<?xml version="1.0" encoding="utf-8"?>
<!-- Generator: Adobe Illustrator 19.1.0, SVG Export Plug-In . SVG Version: 6.00 Build 0)  -->
<svg version="1.1" id="Слой_1" xmlns="http://www.w3.org/2000/svg" xmlns:xlink="http://www.w3.org/1999/xlink" x="0px" y="0px"
	 viewBox="0 0 77.351 42.746" enable-background="new 0 0 77.351 42.746" xml:space="preserve">
<g>
	<path fill-rule="evenodd" clip-rule="evenodd" fill="#FBF9DC" d="M12.557,7.421h0.358C16.443,2.912,21.932,0,28.067,0h21.216
		c6.136,0,11.625,2.912,15.153,7.421h0.357c6.906,0,12.557,5.651,12.557,12.557v2.791c0,6.906-5.65,12.557-12.557,12.557h-0.357
		c-3.528,4.509-9.018,7.421-15.153,7.421H28.067c-6.136,0-11.624-2.912-15.153-7.421h-0.358C5.651,35.325,0,29.675,0,22.768v-2.791
		C0,13.072,5.651,7.421,12.557,7.421L12.557,7.421z"/>
	<path fill-rule="evenodd" clip-rule="evenodd" fill="#CBB08E" d="M12.557,9.466c-5.778,0-10.512,4.734-10.512,10.512v2.791
		c0,5.778,4.734,10.512,10.512,10.512h1.354l0.614,0.785c3.264,4.171,8.23,6.636,13.542,6.636h21.216
		c5.312,0,10.278-2.465,13.543-6.636l0.614-0.785h1.354c5.777,0,10.513-4.735,10.513-10.512v-2.791
		c0-5.777-4.735-10.512-10.513-10.512H63.44l-0.614-0.785c-3.265-4.171-8.231-6.637-13.543-6.637H28.067
		c-5.312,0-10.278,2.465-13.542,6.637l-0.614,0.785H12.557L12.557,9.466z"/>
	<path fill="#393324" d="M12.557,11.166c-1.186,0-2.321,0.239-3.356,0.67c-1.077,0.449-2.049,1.106-2.864,1.921
		c-0.814,0.815-1.472,1.787-1.921,2.863c-0.431,1.036-0.67,2.17-0.67,3.356v2.791c0,1.187,0.239,2.321,0.67,3.357
		c0.449,1.077,1.107,2.049,1.921,2.864c0.815,0.815,1.787,1.473,2.864,1.921c1.035,0.432,2.17,0.67,3.356,0.67h1.995h0.125h0.062
		l0.039,0.049l0.078,0.1l1.008,1.289c0.734,0.939,1.565,1.782,2.471,2.519c0.915,0.744,1.908,1.379,2.958,1.894
		c1.046,0.513,2.152,0.908,3.297,1.173c1.126,0.261,2.292,0.397,3.477,0.397h21.216c1.186,0,2.351-0.136,3.478-0.397
		c1.145-0.266,2.25-0.66,3.297-1.173c1.05-0.515,2.043-1.15,2.958-1.894c0.906-0.736,1.737-1.58,2.472-2.519l1.009-1.289l0.078-0.1
		l0.039-0.049h0.061H62.8h1.994c1.187,0,2.321-0.239,3.356-0.67c1.077-0.449,2.049-1.106,2.864-1.921
		c0.814-0.814,1.472-1.787,1.921-2.863c0.431-1.036,0.67-2.17,0.67-3.357v-2.791c0-1.186-0.239-2.32-0.67-3.356
		c-0.449-1.077-1.106-2.049-1.921-2.864c-0.815-0.815-1.787-1.473-2.864-1.921c-1.035-0.431-2.17-0.67-3.356-0.67H62.8h-0.125
		h-0.061l-0.039-0.05l-0.078-0.1l-1.009-1.289c-0.734-0.939-1.565-1.782-2.472-2.519c-0.915-0.744-1.908-1.379-2.958-1.893
		c-1.047-0.513-2.152-0.908-3.297-1.173c-1.127-0.261-2.292-0.397-3.478-0.397H28.067c-1.185,0-2.351,0.136-3.477,0.397
		c-1.145,0.265-2.25,0.66-3.297,1.173c-1.05,0.515-2.043,1.15-2.958,1.893c-0.906,0.736-1.737,1.58-2.471,2.519l-1.008,1.289
		l-0.078,0.1l-0.039,0.05h-0.062h-0.125H12.557L12.557,11.166z M5.79,13.211c0.885-0.885,1.943-1.6,3.115-2.088
		c1.127-0.469,2.362-0.73,3.652-0.73h1.808l0.892-1.14c0.77-0.985,1.642-1.87,2.593-2.642c0.96-0.78,2.003-1.446,3.106-1.988
		c1.101-0.54,2.263-0.955,3.464-1.233c1.184-0.275,2.407-0.418,3.648-0.418h21.216c1.241,0,2.464,0.143,3.648,0.418
		c1.201,0.278,2.362,0.694,3.464,1.233c1.103,0.541,2.146,1.207,3.106,1.988c0.95,0.772,1.821,1.657,2.592,2.642l0.892,1.14h1.808
		c1.29,0,2.525,0.26,3.652,0.73c1.172,0.488,2.229,1.203,3.114,2.088c0.886,0.885,1.601,1.942,2.089,3.114
		c0.469,1.128,0.729,2.362,0.729,3.652v2.791c0,1.29-0.26,2.524-0.729,3.652c-0.488,1.172-1.203,2.229-2.089,3.115
		c-0.885,0.885-1.942,1.6-3.114,2.088c-1.128,0.47-2.362,0.729-3.652,0.729h-1.808l-0.892,1.14c-0.771,0.985-1.642,1.87-2.592,2.643
		c-0.961,0.78-2.003,1.446-3.106,1.987c-1.102,0.54-2.263,0.955-3.464,1.234c-1.185,0.275-2.407,0.418-3.648,0.418H28.067
		c-1.241,0-2.464-0.143-3.648-0.418c-1.201-0.279-2.363-0.694-3.464-1.234c-1.103-0.542-2.146-1.208-3.106-1.988
		c-0.951-0.772-1.822-1.657-2.593-2.642l-0.892-1.14h-1.808c-1.29,0-2.525-0.26-3.652-0.729c-1.172-0.488-2.229-1.203-3.115-2.088
		c-0.885-0.885-1.6-1.942-2.088-3.115c-0.47-1.127-0.73-2.362-0.73-3.652v-2.791c0-1.29,0.26-2.524,0.73-3.652
		C4.19,15.154,4.905,14.096,5.79,13.211L5.79,13.211z"/>
</g>
</svg>
