<?xml version="1.0" standalone="no"?>
<!DOCTYPE svg PUBLIC "-//W3C//DTD SVG 1.1//EN" "http://www.w3.org/Graphics/SVG/1.1/DTD/svg11.dtd" >
<svg xmlns="http://www.w3.org/2000/svg" xmlns:xlink="http://www.w3.org/1999/xlink" version="1.1">
<metadata>
Created by FontForge 20150824 at Sat Feb  6 17:08:56 2016
 By Everything Fonts
(C) Copyright SoftUnion Ltd, 1993.  Created by N.Vsesvetskii
</metadata>
<defs>
<font id="PopularScript" horiz-adv-x="380" >
  <font-face 
    font-family="PopularScript"
    font-weight="400"
    font-stretch="normal"
    units-per-em="1000"
    panose-1="0 0 0 0 0 0 0 0 0 0"
    ascent="800"
    descent="-200"
    x-height="343"
    cap-height="596"
    bbox="-321 -337 1311.88 791"
    underline-thickness="20"
    underline-position="-163"
    unicode-range="U+0020-2122"
  />
<missing-glyph horiz-adv-x="731" 
d="M45 0v731h641v-731h-641zM641 45v641h-551v-641h551z" />
    <glyph glyph-name=".notdef" horiz-adv-x="731" 
d="M45 0v731h641v-731h-641zM641 45v641h-551v-641h551z" />
    <glyph glyph-name=".null" horiz-adv-x="0" 
 />
    <glyph glyph-name="nonmarkingreturn" horiz-adv-x="216" 
 />
    <glyph glyph-name="space" unicode=" " horiz-adv-x="216" 
 />
    <glyph glyph-name="exclam" unicode="!" horiz-adv-x="240" 
d="M95 142h-20q36 99 64 184q18 54 39 126q18 63 34 119.5t33 75.5t42 19q23 0 32 -11.5t9 -29.5q0 -24 -21 -69q-6 -12 -43 -82q-56 -105 -73 -138q-46 -90 -96 -194zM61 73q11 0 19 -10t8 -22q0 -22 -8 -35q-12 -20 -39 -20q-31 0 -31 30q0 17 16 37t35 20z" />
    <glyph glyph-name="quotedbl" unicode="&#x22;" horiz-adv-x="210" 
d="M131 488q30 0 30 -28q0 -15 -13 -28q-38 -38 -52 -84q-2 -6 -9 -6q-9 0 -7 6q6 22 8 37t2 26q0 9 -3.5 21t-3.5 20q0 36 48 36zM228 488q30 0 30 -28q0 -15 -13 -28q-38 -38 -52 -84q-2 -6 -9 -6q-9 0 -7 6q6 22 8 37t2 26q0 9 -3.5 21t-3.5 20q0 36 48 36z" />
    <glyph glyph-name="numbersign" unicode="#" horiz-adv-x="367" 
d="M197 207h-52l-64 -211q-5 -10 -15 -10t-7 10l64 211h-95q-8 0 -8 12t8 12h102l14 45h-100q-8 0 -8 12t8 12h107l56 180q2 8 14 8q10 0 7 -8l-55 -180h52l55 180q2 8 13 8q10 0 8 -8l-54 -180h91q7 0 7 -12t-7 -12h-98l-14 -45h96q7 0 7 -12t-7 -12h-103l-64 -211
q-5 -10 -15 -10q-9 0 -7 10zM166 276l-14 -45h52l14 45h-52z" />
    <glyph glyph-name="dollar" unicode="$" horiz-adv-x="457" 
d="M433 388q0 -29 -11.5 -47t-33.5 -18t-32.5 10.5t-10.5 28.5q0 11 8 20t18 9q7 0 14 -3t13 -3q10 0 10 21q0 26 -18.5 40.5t-49.5 14.5q-17 -35 -31.5 -77.5t-30.5 -100.5q48 -36 82 -79t34 -69q0 -54 -55 -98q-64 -51 -163 -51q-22 -36 -35 -55q-24 -35 -59 -73
q-4 -4 -13 -4q-10 0 -17.5 5t-1.5 11q36 36 58 62q26 30 39 54q-55 0 -83 12q-49 21 -49 79q0 53 42.5 78.5t106.5 25.5l58 -4l15 43q-35 25 -60 62t-25 64q0 56 51 95t124 39q15 30 29 52.5t31 44.5q2 3 10 3q7 0 11 -2t2 -6q-32 -47 -36 -52q-19 -29 -25 -40
q38 -3 61 -24.5t23 -67.5zM316 461q-44 0 -74.5 -24.5t-30.5 -59.5q0 -20 9 -36q3 -5 36 -40q14 54 29 92q12 31 31 68zM256 204l-12 -33q56 -14 56 -54q0 -29 -17.5 -46.5t-43.5 -17.5q-11 0 -16 5q1 2 2 5q39 13 39 49q0 20 -10 29q-3 2 -16 8q-16 -49 -25 -75
q-13 -37 -29 -70q61 0 115 29q46 25 46 63q0 30 -27 60q-21 24 -62 48zM213 157q-22 6 -39 6q-46 0 -76 -25t-30 -61q0 -27 31.5 -50t55.5 -23q19 39 34 76t24 77z" />
    <glyph glyph-name="percent" unicode="%" horiz-adv-x="459" 
d="M132 212q-41 0 -56.5 19t-15.5 54q0 75 51 135t105 60q31 0 48 -14q21 -18 21 -61q0 -51 -42 -116q-50 -77 -111 -77zM129 226q38 0 76 92q32 78 32 116q0 17 -5.5 24.5t-15.5 7.5q-35 0 -76 -91q-37 -81 -37 -116q0 -15 8 -24t18 -9zM85 0q-7 0 -10 6t0 9l334 448l5 3
q5 0 9 -5t1 -10l-332 -447q-1 -2 -7 -4zM288 -14q-41 0 -56.5 19t-15.5 54q0 75 51 135t105 60q31 0 48 -14q21 -18 21 -61q0 -51 -42 -116q-50 -77 -111 -77zM285 0q38 0 76 92q32 78 32 116q0 17 -5.5 24.5t-15.5 7.5q-35 0 -76 -91q-37 -81 -37 -116q0 -15 8 -24t18 -9z
" />
    <glyph glyph-name="ampersand" unicode="&#x26;" horiz-adv-x="533" 
d="M194 -14q-70 0 -119 32q-55 36 -55 97q0 74 79 124q55 35 118 45q-34 14 -51.5 36t-17.5 56q0 43 45.5 73.5t110.5 30.5q43 0 73.5 -21t30.5 -52q0 -24 -14 -41t-35 -17q-17 0 -27.5 9.5t-10.5 24.5q0 21 27.5 25t27.5 12q0 18 -19 30t-47 12q-41 0 -69.5 -35.5
t-28.5 -86.5q0 -31 17 -42q12 -8 42 -8q38 0 52 -1t14 -5q0 -24 -22 -24q-7 0 -20 3q-30 7 -45 7q-19 0 -34 -4.5t-36 -18.5q-29 -19 -56 -57q-35 -49 -35 -92q0 -48 31 -73t78 -25q60 0 105.5 42t45.5 86q0 33 -27 53.5t-57 20.5q-33 0 -56.5 -19.5t-23.5 -48.5
q0 -19 17 -19q11 0 15 10q10 25 33 25q13 0 22 -8t9 -22q0 -20 -13.5 -33.5t-32.5 -13.5q-29 0 -48.5 17.5t-19.5 43.5q0 36 35 67q42 37 113 37q40 0 69.5 -3.5t51.5 -5.5q21 0 38 10q22 13 22 31q0 20 -17 20q-7 0 -16 -10t-17 -10q-14 0 -21.5 10t-7.5 24t11.5 26.5
t29.5 12.5q23 0 39.5 -16.5t16.5 -42.5q0 -55 -40 -78q-29 -17 -79 -17q-19 0 -31.5 1t-23.5 2q19 -10 30 -31t11 -34q0 -52 -50 -94q-56 -47 -137 -47z" />
    <glyph glyph-name="quotesingle" unicode="'" horiz-adv-x="120" 
d="M131 399q0 7 -15.5 11.5t-15.5 21.5q0 22 17 39t32 17q13 0 21 -11t8 -26q0 -29 -19 -57q-23 -33 -68 -56l-4 -1q-10 0 -10 8l1 3q15 9 31 18q22 15 22 33z" />
    <glyph glyph-name="parenleft" unicode="(" horiz-adv-x="184" 
d="M60 -79l-9 2q-16 29 -22 48q-11 32 -11 71t31 134q38 115 91 198q39 61 80 92q29 22 99 56l7 1q5 0 7.5 -1.5t-0.5 -3.5q-28 -16 -56.5 -38.5t-54.5 -54.5q-31 -38 -86.5 -161t-69.5 -185q-6 -28 -8.5 -44t-2.5 -38t2 -36t10 -37z" />
    <glyph glyph-name="parenright" unicode=")" horiz-adv-x="184" 
d="M-114 -79q-5 0 -7.5 1.5t0.5 3.5q28 16 56.5 38.5t54.5 54.5q31 38 86.5 161t69.5 185q6 28 8.5 44t2.5 38t-2 36t-10 37l7 3l9 -2q16 -29 22 -48q11 -32 11 -71t-31 -134q-38 -115 -91 -198q-39 -61 -80 -92q-29 -22 -99 -56z" />
    <glyph glyph-name="asterisk" unicode="*" horiz-adv-x="227" 
d="M155 488q20 0 20 -24q0 -8 -8 -32t-8 -35q9 4 29.5 26.5t34.5 22.5q20 0 20 -20q0 -16 -27.5 -24t-50.5 -14q5 -3 47 -13q31 -7 31 -27q0 -18 -20 -18q-13 0 -26 12q-19 18 -38 37q0 -12 8 -35t8 -32q0 -24 -19 -24q-20 0 -20 22q0 11 4 24q11 36 11 45q-8 -4 -31 -28
q-19 -21 -33 -21q-5 0 -10 3q-10 6 -10 16q0 18 27 25.5t51 13.5q-7 4 -34 10q-44 9 -44 28q0 20 21 20q11 0 23 -12q35 -35 40 -37q0 11 -7.5 35.5t-7.5 32.5q0 9 5 16t14 7z" />
    <glyph glyph-name="plus" unicode="+" horiz-adv-x="277" 
d="M148 300v-108h111v-24h-111v-108h-24v108h-109v24h109v108h24z" />
    <glyph glyph-name="comma" unicode="," horiz-adv-x="159" 
d="M45 -14q0 7 -15.5 11.5t-15.5 21.5q0 22 17 39t32 17q13 0 21 -11t8 -26q0 -29 -19 -57q-23 -33 -68 -56l-4 -1q-10 0 -10 8l1 3q15 9 31 18q22 15 22 33z" />
    <glyph glyph-name="hyphen" unicode="-" horiz-adv-x="165" 
d="M20 192h122v-24h-122v24z" />
    <glyph glyph-name="period" unicode="." horiz-adv-x="124" 
d="M61 73q11 0 19 -10t8 -22q0 -22 -8 -35q-12 -20 -39 -20q-31 0 -31 30q0 17 16 37t35 20z" />
    <glyph glyph-name="slash" unicode="/" horiz-adv-x="217" 
d="M10 -14q-5 0 -10 4.5t-3 8.5l251 485l5 4q12 0 12 -9l-2 -6l-247 -482q-1 -2 -3 -4q-2 0 -3 -1z" />
    <glyph glyph-name="zero" unicode="0" 
d="M127 -14q-57 0 -84.5 40t-27.5 101q0 82 50.5 178t108.5 136q22 17 54 28t61 11q52 0 79 -38q24 -34 24 -88q0 -50 -37 -140q-31 -75 -56 -111q-40 -59 -83 -88t-89 -29zM126 0q38 0 77 57q29 41 69 135q36 84 50 142q10 43 10 83q0 21 -7 32q-11 17 -42 17
q-43 0 -90 -72q-33 -51 -57 -115q-19 -50 -43.5 -129t-24.5 -93q0 -23 16 -40t42 -17z" />
    <glyph glyph-name="one" unicode="1" 
d="M108 47l127 330q5 13 5 23q0 19 -10 28t-24 9h-25q-3 0 -4.5 2t-1.5 4q0 10 10 10h43q45 0 67.5 7t39.5 23q4 3 7.5 4t5.5 1l6 -3l-2 -7l-163 -431q-2 -8 -2 -12q0 -18 14 -19l38 -3q3 0 5 -3q0 -2 1 -3q0 -12 -14 -12q-27 2 -56 3.5t-44 1.5q-23 0 -56.5 -2.5
t-44.5 -2.5q-7 0 -7 9t7 9q26 0 36 2t21 6t21 26z" />
    <glyph glyph-name="two" unicode="2" 
d="M388 376q0 -121 -148 -179q-51 -16 -84 -28.5t-52.5 -27t-41 -40.5t-31.5 -46q13 11 29 18q24 10 53 10q29 -6 62.5 -11t60.5 -5q47 0 65 25q6 8 15 43q1 7 8 7q8 0 6 -8q-8 -48 -26 -85q-31 -63 -83 -63q-32 0 -62 21q-69 48 -87 48q-33 0 -47 -19q-10 -14 -15 -46
q0 -5 -8 -5q-10 0 -8 7q5 36 27 77q27 50 72 82q73 42 147 84q28 27 52 79.5t24 98.5q0 22 -16.5 37.5t-38.5 15.5q-36 0 -61.5 -20.5t-25.5 -49.5q0 -8 21.5 -17t21.5 -24q0 -17 -13.5 -31.5t-33.5 -14.5q-17 0 -30 15t-13 31q0 53 50 93q40 32 99 32q41 0 73 -24
q39 -29 39 -80z" />
    <glyph glyph-name="three" unicode="3" 
d="M393 391q0 -59 -43 -96q-38 -32 -100 -44q31 -13 48 -33q23 -27 23 -71q0 -62 -49 -109q-54 -52 -139 -52q-51 0 -84.5 22t-33.5 64q0 28 18 51t45 23q45 0 45 -34q0 -18 -10 -29t-25 -11q-5 0 -15.5 6.5t-11.5 6.5q-7 0 -13 -8t-6 -22q0 -25 21.5 -40t55.5 -15
q62 0 101 77q30 59 30 109q0 38 -21 50q-14 8 -51 8h-13q-26 0 -47 3q0 5 1 11q16 2 24 2q13 0 34.5 -2.5t26.5 -2.5q20 0 34 7.5t25 18.5q19 18 38.5 61t19.5 78q0 21 -17 33.5t-35 12.5q-29 0 -57 -16q-35 -20 -35 -51q0 -12 22 -19t22 -25q0 -19 -13.5 -30.5t-31.5 -11.5
q-20 0 -33.5 14.5t-13.5 34.5q0 39 40 76q46 42 108 42q48 0 82 -23.5t34 -65.5z" />
    <glyph glyph-name="four" unicode="4" 
d="M391 488l-119 -298h68v-42h-81l-38 -101q-2 -8 -2 -12q0 -18 14 -19l38 -3q3 0 5 -3q0 -2 1 -3q0 -12 -14 -12q-27 2 -56 3.5t-44 1.5q-23 0 -56.5 -2.5t-44.5 -2.5q-7 0 -7 9t7 9q26 0 36 2t21 6t21 26l39 101h-139q-9 0 -9 12q0 5 3 8q32 40 91 102q51 53 104.5 108.5
t97.5 109.5h64zM194 190l88 216q-21 -25 -128 -135q-43 -44 -71 -81h111z" />
    <glyph glyph-name="five" unicode="5" 
d="M415 498h14q-7 -35 -21 -59q-19 -32 -46 -32h-147q-6 -2 -6 -4l-44 -117q-1 -3 0 -4l2 -2q13 10 21 14q28 15 51 15q32 0 60 -21q39 -29 39 -83q0 -84 -62.5 -151.5t-129.5 -67.5q-40 0 -70.5 23.5t-30.5 61.5q0 25 16.5 48t42.5 23q37 0 37 -37q0 -17 -10 -28t-25 -11
q-6 0 -13.5 5.5t-11.5 5.5q-9 0 -11.5 -6t-2.5 -20q0 -16 18.5 -33.5t49.5 -17.5q54 0 98 98q36 81 36 138q0 21 -9 37q-12 21 -32 21q-33 0 -68 -47q-19 -30 -38 -59q-7 -8 -13 -6.5t-4 6.5q37 88 67 173q23 64 35 107q3 12 14 12h157q26 0 37 18z" />
    <glyph glyph-name="six" unicode="6" 
d="M160 -14q-61 0 -90 36q-25 31 -25 88q0 56 21 115q16 45 52.5 107.5t95 105t107.5 42.5q38 0 61 -22t23 -60q0 -31 -14 -54.5t-41 -23.5q-17 0 -27.5 11.5t-10.5 23.5q0 20 14 28.5t35 8.5q15 0 15 25q0 27 -17.5 38t-44.5 11q-42 0 -88 -67q-51 -74 -91 -197
q41 60 67 78.5t52 18.5q29 0 52 -24q27 -28 27 -73q0 -84 -53 -150t-120 -66zM144 0q42 0 88 101q41 91 41 139q0 24 -10 32t-26 8t-34 -16q-24 -21 -46 -60q-25 -43 -39 -79q-18 -46 -18 -69q0 -22 12 -39t32 -17z" />
    <glyph glyph-name="seven" unicode="7" 
d="M85 -14q-21 0 -30.5 12.5t-9.5 33.5q0 29 23 68q20 34 50 65t94 69q69 42 94 65q36 34 61 86q-9 -3 -18.5 -4t-30.5 -1q-18 0 -60 7.5t-86 16.5q-26 0 -43 -24q-13 -18 -17 -42q-1 -4 -5 -2.5t-8 2.5q0 27 28 78q35 64 81 64q42 0 85 -38t60 -38q22 0 31 22q6 15 6 39
q0 23 16 23q5 0 10 -6t5 -13q0 -18 -18 -57q-27 -57 -80 -117q-13 -15 -34 -32l-70 -58q-36 -33 -60 -84q-19 -40 -26.5 -75.5t-14.5 -45.5q-10 -14 -33 -14z" />
    <glyph glyph-name="eight" unicode="8" 
d="M165 -14q-61 0 -103 24q-47 27 -47 76q0 61 65 101q26 16 98 41q-46 52 -46 111q0 60 46.5 100.5t109.5 40.5q51 0 81 -24t30 -64q0 -57 -57 -100q-64 -37 -76 -44q31 -25 49.5 -58.5t18.5 -74.5q0 -56 -44.5 -92.5t-124.5 -36.5zM287 466q-37 0 -66 -24t-29 -62
q0 -28 17 -60t42 -57q51 26 75 61.5t24 74.5q0 31 -18.5 49t-44.5 18zM165 0q42 0 71.5 25.5t29.5 69.5q0 46 -74 117q-37 -19 -73 -54q-45 -44 -45 -77q0 -35 26 -58t65 -23z" />
    <glyph glyph-name="nine" unicode="9" 
d="M98 -14q-54 0 -83.5 23.5t-29.5 60.5q0 28 17 48t41 20q17 0 30 -11t13 -26q0 -18 -10 -30t-25 -12q-6 0 -15.5 6.5t-13.5 6.5q-13 0 -13 -19q0 -22 21.5 -37.5t52.5 -15.5q75 0 132 96q9 15 60 134l-3 1q-23 -23 -47.5 -38t-45.5 -15q-34 0 -57 14q-36 22 -36 72
q0 77 58.5 146.5t136.5 69.5q97 0 97 -117q0 -60 -29 -138t-71 -129.5t-87.5 -80.5t-92.5 -29zM182 192q40 0 88 80t48 142q0 26 -9.5 39t-28.5 13q-42 0 -86.5 -82.5t-44.5 -151.5q0 -16 7.5 -28t25.5 -12z" />
    <glyph glyph-name="colon" unicode=":" horiz-adv-x="167" 
d="M99 225q11 0 19 -10t8 -22q0 -22 -8 -35q-12 -20 -39 -20q-31 0 -31 30q0 17 16 37t35 20zM44 73q11 0 19 -10t8 -22q0 -22 -8 -35q-12 -20 -39 -20q-31 0 -31 30q0 17 16 37t35 20z" />
    <glyph glyph-name="semicolon" unicode=";" horiz-adv-x="167" 
d="M99 225q11 0 19 -10t8 -22q0 -22 -8 -35q-12 -20 -39 -20q-31 0 -31 30q0 17 16 37t35 20zM24 -14q0 7 -15.5 11.5t-15.5 21.5q0 22 17 39t32 17q13 0 21 -11t8 -26q0 -29 -19 -57q-23 -33 -68 -56l-4 -1q-10 0 -10 8l1 3q16 9 31 18q22 15 22 33z" />
    <glyph glyph-name="less" unicode="&#x3c;" horiz-adv-x="340" 
d="M26 198v26q0 11 14 16q85 34 136 62q43 23 125 78q15 10 21 10q7 0 14 -13t7 -22q0 -8 -5.5 -11.5t-9.5 -5.5q-72 -46 -153 -86q-47 -23 -105 -50q52 -39 107 -73q38 -23 99 -58q6 -3 7 -6t2 -4q0 -9 -3 -17t-8 -8l-5 1q-61 34 -111 67q-27 18 -120 84q-12 9 -12 10z" />
    <glyph glyph-name="equal" unicode="=" horiz-adv-x="335" 
d="M40 192h244v-24h-244v24zM40 257h244v-24h-244v24z" />
    <glyph glyph-name="greater" unicode="&#x3e;" horiz-adv-x="340" 
d="M316 228v-26q0 -11 -14 -16q-85 -34 -136 -62q-43 -23 -125 -78q-15 -10 -21 -10q-7 0 -14 13t-7 22q0 8 5 11l10 6q72 46 153 86q47 23 105 50q-52 39 -107 73q-38 23 -99 58q-5 3 -6 5t-3 5q0 9 3 17t8 8l5 -1q61 -34 111 -67q27 -18 120 -84q12 -9 12 -10z" />
    <glyph glyph-name="question" unicode="?" horiz-adv-x="285" 
d="M60 147q0 42 69 117q119 129 130 144q70 93 70 176q0 26 -21 45t-50 19q-37 0 -63.5 -16.5t-26.5 -40.5q0 -6 19 -15t19 -29q0 -21 -16.5 -35.5t-38.5 -14.5q-19 0 -31.5 13.5t-12.5 32.5q0 38 40 77q47 46 111 46q55 0 96 -35.5t41 -88.5q0 -80 -79 -158
q-75 -61 -149 -121q-80 -67 -80 -118q0 -4 3 -10t3 -13q0 -8 -15 -8q-12 0 -15 7t-3 26zM51 73q11 0 19 -10t8 -22q0 -22 -8 -35q-12 -20 -39 -20q-31 0 -31 30q0 17 16 37t35 20z" />
    <glyph glyph-name="at" unicode="@" horiz-adv-x="588" 
d="M393 336h62l-108 -266q-4 -10 -5.5 -22t-1.5 -13q0 -13 8 -22t19 -9q71 0 132 101q57 95 57 190q0 109 -39 148q-29 29 -96 29q-39 0 -86.5 -17.5t-87.5 -48.5q-87 -66 -147 -173t-60 -196q0 -99 44 -139q38 -34 119 -34q53 0 98 22q33 16 90 63q4 4 9 -1t1 -8
q-55 -52 -97 -71t-112 -19q-89 0 -132.5 49t-43.5 141q0 119 53 220.5t141 161.5q47 32 105.5 49t116.5 17q64 0 100 -40q42 -47 42 -147t-52 -196q-62 -115 -155 -115q-23 0 -39.5 22.5t-16.5 56.5q0 9 2.5 29t10.5 46q-57 -85 -60 -88q-52 -66 -89 -66q-26 0 -40.5 25
t-14.5 60q0 82 74 175t138 93q23 0 33 -14t10 -34zM359 285q0 24 -6.5 34t-16.5 10q-15 0 -33 -23q-21 -27 -78 -128q-19 -35 -41 -86.5t-22 -65.5q0 -6 4.5 -14t10.5 -8q17 0 49 34q36 39 70 91q28 47 47 96q16 42 16 60z" />
    <glyph glyph-name="A" unicode="A" horiz-adv-x="870" 
d="M560 259v20h61q19 25 39 50q38 47 89 90q72 61 177 122q-24 8 -95.5 18t-144.5 10q-124 0 -235 -53q-139 -66 -139 -178q0 -31 29 -53t68 -22q79 0 140 68q55 61 55 119q0 26 -7 33q-2 3 0 7t6 3q19 -6 25 -13q10 -12 10 -49q0 -56 -59 -117q-68 -70 -157 -70
q-66 0 -102 38t-36 98q0 90 87 149q98 67 272 67q80 0 157.5 -10.5t158.5 -29.5q20 -2 56.5 14t54.5 16q9 0 18.5 -7.5t9.5 -15.5q0 -19 -30 -26.5t-91 -7.5q-19 -5 -38 -21q-15 -12 -35 -36q-25 -27 -64 -93q-22 -37 -55 -100h80v-20h-87q-16 -24 -38 -82q-27 -73 -32 -127
q0 -22 7.5 -35t27.5 -13q36 0 67 56q15 27 34 84q1 3 7 1.5t4 -11.5q-17 -69 -47 -107.5t-71 -38.5q-29 0 -51 32q-25 36 -25 90q0 31 13 74q10 33 29 77h-62q-43 -51 -86 -101q-39 -39 -107 -90q-49 -36 -103 -57q-64 -25 -128 -25q-82 0 -140 34q-67 39 -67 109
q0 24 21 49t44 25q24 0 33.5 -9.5t9.5 -25.5q0 -15 -10 -27t-27 -12q-11 0 -19.5 7.5t-10.5 7.5q-6 0 -9.5 -9t-3.5 -20q0 -48 48 -80.5t131 -32.5q80 0 153 38q59 31 125 96q43 43 109 123h-44zM891 499q-62 -32 -133 -103q-28 -28 -105 -117h62q37 62 63 96q46 61 114 121
z" />
    <glyph glyph-name="B" unicode="B" horiz-adv-x="757" 
d="M432 -14q-17 0 -53.5 1t-53.5 1h-22t-21 -2q-72 -10 -115 -29l-68 -36q-7 0 -15.5 8.5t-8.5 16.5q0 28 66 47q54 13 108 27q28 10 55 39q40 43 72 123q17 46 28 77q20 54 44 104q48 100 122 170q-18 5 -44 7t-51 2q-149 0 -281 -106q-119 -96 -119 -177q0 -33 22.5 -53.5
t60.5 -20.5q85 0 149 79q54 67 54 123q0 27 -19 46q-3 3 1 7.5t8 1.5q23 -17 31 -34.5t8 -41.5q0 -92 -79 -150q-66 -49 -136 -49q-43 0 -78 23q-52 34 -52 104q0 89 87 169q108 100 282 100q62 0 106.5 -4t65.5 -9q73 44 106 57q54 21 101 21q27 0 53 -12.5t26 -35.5
q0 -19 -9 -30t-31 -11q-19 0 -26.5 8.5t-7.5 19.5q0 5 4 14t4 13q0 8 -12.5 10t-32.5 2q-33 0 -74 -23q-32 -18 -55 -43q79 -28 111 -61q27 -28 27 -65q0 -69 -70 -110q-27 -16 -101 -38q52 -12 76 -28q42 -27 42 -76q0 -81 -90 -131q-81 -45 -195 -45zM617 519
q-52 -63 -125 -236q4 -2 9 -2.5t18 -0.5q62 0 106 25q65 37 65 118q0 39 -21.5 63t-51.5 33zM246 0v-4q61 4 123 9q112 10 174 40q89 42 89 124q0 43 -35 67q-29 20 -71 20q-22 0 -41 8q-42 -119 -121 -191q-51 -46 -118 -73z" />
    <glyph glyph-name="C" unicode="C" horiz-adv-x="532" 
d="M199 -117q-108 0 -151 52q-38 46 -38 147q0 81 49 183q44 91 109 168q81 88 174.5 141.5t169.5 53.5q50 0 84 -30q38 -34 38 -93q0 -88 -86 -188q-93 -108 -195 -108q-39 0 -68 25.5t-29 64.5q0 86 80 149q68 54 128 54q18 0 28 -4.5t17 -16.5q-2 -3 -2 -4q-3 -5 -5 -4
q-7 5 -9 6q-11 6 -21 6q-52 0 -115.5 -72.5t-63.5 -133.5q0 -25 17.5 -39.5t42.5 -14.5q66 0 151 117t85 204q0 35 -23 51.5t-61 16.5t-113 -53q-100 -71 -193 -198q-52 -70 -95.5 -166t-43.5 -160q0 -134 141 -134q49 0 91 21q53 26 112 95q25 30 51 68l52 76q3 3 8 -2
t3 -9q-18 -34 -28 -50q-26 -40 -69.5 -93t-93.5 -85q-64 -41 -128 -41z" />
    <glyph glyph-name="D" unicode="D" horiz-adv-x="735" 
d="M308 5q36 29 64 72q24 37 56 109q62 137 104 204q26 41 74 98q-29 21 -57 30q-38 12 -100 12q-169 0 -283 -105q-100 -92 -100 -196q0 -35 25 -60t64 -25q60 0 129 71q75 77 75 154q0 12 -6 27t-23 29q-4 4 0.5 8t11.5 2q22 -12 33 -25q22 -25 22 -63q0 -55 -56 -126
q-73 -92 -180 -92q-54 0 -92.5 38.5t-38.5 99.5q0 94 94 183q110 104 273 104q95 0 154 -18q34 -11 69 -34q32 34 84 61q65 33 125 33q30 0 49.5 -10t19.5 -30q0 -21 -10.5 -30.5t-30.5 -9.5q-19 0 -26 7t-7 20q4 13 4 19q0 16 -20 16q-36 0 -80.5 -28.5t-76.5 -69.5
q27 -22 46 -60q23 -46 23 -97q0 -73 -56 -148q-59 -79 -166 -140q-19 -11 -63.5 -21.5t-127.5 -27.5q-34 -19 -77.5 -37t-53.5 -18q-15 0 -15 13q0 61 147 61zM692 327q0 54 -18 92q-13 27 -36 46q-34 -49 -59 -95q-18 -33 -48 -99q-45 -95 -95 -163.5t-96 -102.5
q99 14 158 49q88 54 143 135q51 75 51 138z" />
    <glyph glyph-name="E" unicode="E" horiz-adv-x="600" 
d="M686 550q0 -29 -16 -51q-19 -26 -52 -26q-21 0 -35.5 12.5t-14.5 31.5q0 15 10 26t27 11q10 0 17 -3.5t16 -7.5q15 0 15 27q0 26 -29 50q-34 28 -90 28q-89 0 -158.5 -53t-69.5 -126q0 -48 33 -67q25 -14 75 -14q21 0 40 1l38 2q40 0 40 -20q0 -14 -23 -18q-7 -1 -22 -1
q-26 0 -50.5 2.5t-62.5 7.5q-143 -18 -222 -118q-65 -82 -65 -180q0 -64 45 -96q38 -27 98 -27q124 0 218 114q80 97 80 177q0 32 -22 53t-54 21q-63 0 -133 -66q-76 -72 -76 -152q0 -25 15 -44q9 -11 32 -27q2 -2 -2 -4.5t-6 -1.5q-32 11 -55 33q-27 26 -27 56q0 66 66 137
q77 83 181 83q58 0 96 -38q32 -32 32 -81q0 -84 -83 -172q-101 -108 -251 -108q-90 0 -152 45q-69 50 -69 139q0 97 74 165q53 49 146 81q16 6 97 27q-42 15 -66 36q-38 34 -38 87q0 66 73 114q77 51 189 51q86 0 134 -25q57 -30 57 -91z" />
    <glyph glyph-name="F" unicode="F" horiz-adv-x="817" 
d="M911 536l6 -9q-45 -11 -88 -55q-50 -50 -82 -128h96v-20h-102q-37 -131 -66.5 -211t-81.5 -154q-60 -81 -150.5 -124t-204.5 -43q-103 0 -168 46q-70 50 -70 137q0 78 74 159q93 101 238 101q61 0 106 -25q54 -30 54 -86q0 -52 -46 -101q-58 -61 -152 -61q-43 0 -73 16
q-38 20 -38 55q0 12 5 25h11l-1 -12q0 -37 24 -50q19 -10 62 -10q70 0 120 47t50 104q0 39 -34.5 62t-78.5 23q-106 0 -183 -70.5t-77 -164.5q0 -85 62 -132q58 -44 146 -44q120 0 209 99q64 71 123 213q40 100 80 201h-93v20h104q47 78 88 119q50 50 119 76
q-126 21 -166 27q-113 17 -153 17q-95 0 -164 -42q-79 -48 -79 -131q0 -62 54 -104q49 -38 108 -38q30 0 52.5 7.5t41.5 20.5q3 2 5.5 0t-0.5 -6q-11 -19 -42 -29t-71 -10q-83 0 -133.5 36t-50.5 97q0 129 134 195q100 49 224 49q65 0 146 -11q192 -26 221 -26
q36 0 60.5 8.5t50.5 28.5q4 3 8.5 -6t-0.5 -14q-74 -81 -150 -81q-23 0 -35 1.5t-49 7.5z" />
    <glyph glyph-name="G" unicode="G" horiz-adv-x="720" 
d="M807 589q0 -73 -102 -159q-98 -83 -168 -83q-22 0 -42.5 10.5t-38.5 33.5q-3 3 1 8t6 3q18 -19 30 -27q18 -12 36 -12q67 0 158 92t91 156q0 22 -15.5 30.5t-32.5 8.5q-41 0 -134 -63q-109 -74 -180 -169q-91 -122 -91 -242q0 -35 24 -61t59 -26q38 0 81 28
q51 33 113 104q23 26 46.5 57t32.5 47q16 28 28 59t24 31q10 0 15 -13q2 -5 2 -11q0 -16 -13 -32q-26 -32 -35 -46.5t-20 -44.5t-25 -68q-18 -60 -25 -87q-14 -47 -36 -104q-28 -77 -90 -125q-88 -68 -237 -68q-104 0 -178 39q-91 48 -91 135q0 47 25 80t60 33
q21 0 36.5 -12.5t15.5 -31.5q0 -20 -12.5 -36t-31.5 -16q-21 0 -24 22t-14 22q-14 0 -24 -18.5t-10 -45.5q0 -71 73 -113q64 -37 147 -37q99 0 177 53q68 46 120 130q21 34 45 83q13 26 63 141q-62 -75 -103 -110q-72 -62 -133 -62q-42 0 -78 24q-59 39 -59 126
q0 73 72.5 180.5t172.5 180.5q114 83 212 83q23 0 44 -13q33 -21 33 -64z" />
    <glyph glyph-name="H" unicode="H" horiz-adv-x="907" 
d="M733 316h-142q-20 -50 -30 -70q-24 -49 -60 -99q-57 -82 -145 -124q-77 -37 -159 -37q-78 0 -127 29q-60 35 -60 102q0 35 21 63.5t52 28.5q28 0 39 -15q7 -10 7 -26q0 -18 -10.5 -31t-29.5 -13q-12 0 -21 16q-5 10 -14 16q-16 -12 -19 -18.5t-3 -31.5q0 -53 45 -78
t120 -25q136 0 223 120q14 19 99 193h-36v20h45q38 81 66 119q39 53 109 103q-23 4 -76.5 10t-82.5 6q-116 0 -208 -46q-113 -57 -113 -156q0 -33 24.5 -50.5t62.5 -17.5q72 0 126 69q45 58 45 108q0 8 -3 16.5t-8 15.5q-2 4 2 7.5t8 0.5q21 -14 27.5 -25.5t6.5 -32.5
q0 -54 -50 -108q-61 -66 -151 -66q-56 0 -91 33t-35 87q0 88 84 141q70 44 158 44q78 0 138 -5t130 -11q13 0 24 3q12 5 16 6l50 34q14 7 36 7q19 0 19 -12q0 -11 -25 -20q-52 -19 -58 -22q-58 -23 -108 -112q-26 -47 -54 -126h144q26 50 74 113q66 86 132 136q87 66 167 66
q22 0 38 -9t16 -29q0 -17 -11 -28t-25 -11q-18 0 -26 8t-8 18q0 5 2 13t2 9q0 11 -16 11q-44 0 -118 -74q-82 -82 -142 -201q-45 -88 -73 -169.5t-28 -131.5q0 -24 8 -39t29 -15q38 0 78 69q18 32 43 94q2 5 7.5 2t3.5 -12q-8 -35 -43 -93q-47 -77 -89 -77t-61 35.5
t-19 99.5q0 31 20 101q14 50 31 94z" />
    <glyph glyph-name="I" unicode="I" horiz-adv-x="615" 
d="M706 546q-35 14 -84 24t-78 10q-99 0 -197 -52q-119 -63 -119 -158q0 -32 25 -51.5t60 -19.5q45 0 96 46q56 50 56 106q0 29 -14 41q-1 2 2.5 5t7.5 1q16 -8 24.5 -25t8.5 -40q0 -45 -42 -92q-51 -58 -129 -58q-52 0 -89.5 34.5t-37.5 85.5q0 89 78 139q84 54 203 54
q56 0 125 -12q30 -5 120 -26q56 38 84 38q27 0 27 -19q0 -16 -103 -29q-20 -10 -31 -20q-14 -16 -24 -27q-36 -40 -65 -116q-24 -68 -47 -136q-49 -123 -134 -191q-90 -72 -212 -72q-81 0 -138 31q-69 37 -69 104q0 34 19.5 59.5t49.5 25.5q17 0 30.5 -10t13.5 -27
q0 -18 -11.5 -28.5t-26.5 -10.5q-17 0 -22.5 10t-10.5 10q-10 0 -15.5 -13.5t-5.5 -27.5q0 -55 56 -83q47 -24 117 -24t120 26t87.5 74.5t78.5 136.5q56 121 64 136q34 62 81 112q42 44 71 59z" />
    <glyph glyph-name="J" unicode="J" horiz-adv-x="787" 
d="M249 -223q-95 0 -160 40q-89 55 -89 168q0 127 128 222q107 79 193 79q58 0 92 -33t34 -88q0 -73 -57 -142q-65 -78 -153 -78q-37 0 -56.5 13.5t-40.5 47.5q-3 5 3 10q4 1 9 2q16 -30 29 -41q19 -16 48 -16q67 0 124 74.5t57 153.5q0 47 -27 66q-21 15 -60 15
q-83 0 -178.5 -110.5t-95.5 -215.5q0 -72 61 -114q56 -38 138 -38q115 0 204 102q63 72 120 210q35 87 70 175q-55 28 -109 57q-48 43 -48 101q0 97 97 149q78 42 181 42q23 0 75.5 -5t82.5 -5q49 29 54 32q31 16 53 16q9 0 18.5 -6.5t9.5 -13.5q0 -22 -58 -32
q-19 -3 -58 -6q-53 -19 -98 -68q-38 -42 -76 -115q-28 -53 -63 -139q24 -3 42 -3q20 0 40 3q7 1 7 -8q0 -8 -6 -8q-23 -3 -47 -3q-20 0 -41 3q-27 -73 -58 -151q-44 -109 -60 -135q-58 -103 -144 -155t-187 -52zM884 607q-184 0 -273 -65q-70 -51 -70 -129q0 -44 39 -80
q32 -30 71 -39q59 134 120 211q47 59 113 102z" />
    <glyph glyph-name="K" unicode="K" horiz-adv-x="900" 
d="M224 -14q-91 0 -147.5 36t-56.5 90q0 34 19 58t45 24q19 0 33 -13t14 -30q0 -14 -9 -24t-24 -10q-14 0 -24 12q-5 6 -8 6q-4 0 -11 -10t-7 -22q0 -44 49 -72.5t123 -28.5q72 0 123 34q41 27 79 87q24 38 58 111q8 19 17 41q36 86 59 121q48 75 82 114q28 32 62 55
q-50 7 -80.5 9.5t-72.5 2.5q-121 0 -217 -59q-103 -64 -103 -155q0 -37 21 -55t57 -18q71 0 126 67q46 57 46 104q0 17 -2.5 22t-12.5 17q-2 3 2.5 5.5t6.5 0.5q15 -8 22 -18q12 -17 12 -44q0 -52 -45 -105q-56 -65 -142 -65q-56 0 -91.5 37.5t-35.5 94.5q0 110 108 158
q71 32 164 32q56 0 135.5 -8.5t117.5 -12.5q17 9 43 25q46 28 60 28q22 0 22 -10q0 -19 -32 -33t-84 -23q-12 -11 -28.5 -32t-29.5 -42q-19 -31 -42 -76q-28 -56 -43 -99q8 -2 33 -4.5t45 -2.5q52 0 100 76q76 121 113 157q26 25 61 41t74 16q20 0 33 -10t13 -26
q0 -39 -41 -39q-17 0 -23.5 7.5t-6.5 20.5q0 10 -4 19t-9 9q-31 0 -65.5 -53t-66.5 -104q-84 -113 -166 -123q42 -19 61 -52q15 -26 15 -57q0 -12 -3 -34q-7 -51 -7 -80q0 -32 7.5 -52t31.5 -20q27 0 50 43q17 32 28 79q1 5 7.5 0.5t6.5 -11.5q-9 -42 -32 -79
q-30 -48 -64 -48q-55 0 -80 35q-21 30 -21 83q0 18 3 46q7 65 7 72q0 40 -11 54t-35 14q-21 0 -40.5 2.5t-18.5 9.5q-32 -71 -48 -100q-28 -50 -64 -96q-45 -55 -107.5 -87.5t-133.5 -32.5z" />
    <glyph glyph-name="L" unicode="L" horiz-adv-x="727" 
d="M4 -14q-3 0 -8.5 3t-5.5 8q0 31 54.5 39t82.5 21q20 9 38 23t35 37q26 33 54 116q19 60 29 90q15 52 26 80q16 41 36 77q45 84 111 132q75 54 170 54q70 0 112.5 -48.5t42.5 -121.5q0 -32 -18 -84.5t-40 -87.5q-28 -45 -73 -83q-62 -52 -120 -52q-54 0 -81 31t-27 81
q0 88 78 159q68 62 122 62q14 0 22.5 -2.5t18.5 -7.5q3 -2 3 -7t-4 -4q-16 5 -37 5q-58 0 -114.5 -80t-56.5 -152q0 -39 22 -56q17 -13 48 -13q50 0 87 37q22 22 56 82q29 60 45 116t16 98q0 49 -30.5 80.5t-75.5 31.5q-60 0 -111 -43q-43 -36 -80 -103q-23 -42 -58 -124
q-26 -59 -51 -117q-19 -42 -34 -68q-28 -46 -62 -80q-28 -28 -71 -61q17 3 34 3h11q41 0 112.5 -22.5t145.5 -45.5t114 -23q31 0 54 21q31 28 56 97q2 4 7 0.5t5 -10.5q-4 -38 -45 -101q-53 -82 -111 -82q-50 0 -115.5 37t-126.5 72q-75 39 -132 39q-30 0 -66 -16
q-84 -37 -94 -37z" />
    <glyph glyph-name="M" unicode="M" horiz-adv-x="952" 
d="M735 566l-3 2q-39 -43 -96 -125t-113 -163q-74 -102 -149 -189q-51 -61 -122 -87q-49 -18 -102 -18q-55 0 -97.5 28t-42.5 76q0 27 18.5 50.5t44.5 23.5q17 0 31.5 -11.5t14.5 -28.5q0 -15 -11 -28t-30 -13q-14 0 -18 10t-12 10q-7 0 -11.5 -7.5t-4.5 -16.5q8 -26 19 -38
q34 -39 100 -39q78 0 154 57.5t165 181.5q45 63 123 174q51 73 76 106q33 44 63 75q-31 0 -83 3q-121 7 -140 7q-120 0 -217 -78t-97 -176q0 -24 28 -48t63 -24q61 0 123 70q56 63 56 108q0 16 -2.5 21t-13.5 18q-1 2 3 5t7 2q19 -13 27.5 -29t8.5 -37q0 -52 -50 -106
q-60 -65 -149 -65q-61 0 -95.5 36.5t-34.5 95.5q0 116 107 180q81 49 166 49q51 0 154 -8t151 -8q23 28 36 38q20 16 44 16q15 0 15 -14q0 -7 -31 -25q-25 -15 -43 -31q-31 -90 -44 -126q-20 -56 -42 -110q-45 -112 -84 -194q-49 -103 -49 -139q0 -9 2.5 -17t7.5 -8
q8 0 32 52q59 126 64 136q51 110 100 184q71 105 161 179.5t161 74.5q63 0 63 -46q0 -16 -11.5 -28.5t-30.5 -12.5q-37 0 -37 31q0 12 24 20q12 4 12 8q0 7 -6 9.5t-17 2.5q-42 0 -99 -75q-48 -63 -101 -175q-43 -92 -67 -155q-35 -94 -35 -146q0 -26 9 -42.5t30 -16.5
q29 0 61.5 45t62.5 125q2 5 8 2t4 -12q-9 -39 -44 -97q-47 -79 -91 -79t-63 37t-19 103q0 52 39 152q43 111 107 202q26 38 50 61q12 12 41 36l-1 3q-47 -34 -70 -56q-27 -27 -65 -74q-45 -56 -92.5 -137.5t-86.5 -170.5q-68 -156 -96 -156q-16 0 -20.5 18.5t-4.5 53.5v17
q0 49 19 118t48 126q16 32 71 125q51 87 69 122z" />
    <glyph glyph-name="N" unicode="N" horiz-adv-x="874" 
d="M689 550l-2 2q-40 -57 -87 -133l-86 -144q-53 -88 -94 -147q-96 -142 -245 -142q-64 0 -112 31q-53 34 -53 87q0 37 18 65t52 28q19 0 35 -14t16 -35q0 -12 -12.5 -24.5t-28.5 -12.5t-21 16.5t-10 16.5q-15 0 -21.5 -14t-6.5 -34q0 -46 49 -72q41 -22 102 -22
q65 0 133 51q85 64 165 200q45 79 74 127q40 68 71 113q37 55 76 103q-26 0 -102 8t-105 8q-119 0 -223.5 -82.5t-104.5 -179.5q0 -22 28.5 -44t63.5 -22q61 0 122 67q56 61 56 105q0 16 -2.5 20.5t-13.5 19.5q-2 3 2.5 6t7.5 1q14 -9 22 -20q13 -19 13 -47q0 -52 -49 -104
q-60 -64 -150 -64q-59 0 -94 36t-35 94q0 115 109 180q83 50 167 50q71 0 144.5 -5t158.5 -11q47 54 81 54q16 0 16 -13q0 -10 -22.5 -26t-60.5 -36q-13 -17 -16.5 -36.5t-3.5 -44.5q0 -51 25 -191q12 -67 12 -114q0 -65 -12 -142q16 55 32 111q32 102 66 183q46 109 97 180
q26 36 62.5 63.5t64.5 27.5q63 0 63 -45q0 -16 -12 -29t-30 -13q-38 0 -38 32q0 11 18.5 18t18.5 11q0 7 -5 8.5t-19 1.5q-66 0 -153 -160q-77 -141 -123 -308q-14 -48 -25.5 -99t-13.5 -56q-6 -3 -9 -3q-19 0 -19 10v59q0 43 -41 196q-20 75 -20 127q0 61 10 100.5t30 71.5
z" />
    <glyph glyph-name="O" unicode="O" horiz-adv-x="567" 
d="M600 482q0 -70 -28.5 -152t-80.5 -162q-56 -87 -118 -132q-69 -50 -148 -50q-88 0 -141.5 56.5t-53.5 142.5q0 93 62 190q46 72 102 114q88 65 183 74q32 31 61 46q35 19 72 19q43 0 66.5 -42t23.5 -104zM558 532q0 36 -13.5 58t-39.5 22q-46 0 -104 -61
q-48 -50 -96 -133q-41 -68 -65 -128t-24 -99q0 -43 36 -64q-1 -4 -1 -7q-6 -6 -10 -4q-33 16 -51 53q-14 29 -14 55q0 85 74 192q37 53 110 131q-56 -15 -119 -83q-50 -54 -74 -103q-33 -68 -53 -133.5t-20 -96.5q0 -54 33.5 -91.5t88.5 -37.5q67 0 127 64q46 49 95 144
q56 111 90 206q30 84 30 116z" />
    <glyph glyph-name="P" unicode="P" horiz-adv-x="697" 
d="M613 579q-54 -76 -94 -178l-36 -92q-35 -82 -85 -144.5t-112 -104.5q69 0 147 -26t107 -26q41 0 66 36q22 45 31 61q3 7 10 2t5 -11q-33 -94 -63.5 -124.5t-71.5 -30.5q-51 0 -114 30l-146 74l-66 -36q-47 -23 -74 -23q-20 0 -20 18q0 22 34 35q6 2 129 27q38 26 68 63
q36 44 57 99q53 145 71 187q45 105 120 177q-20 6 -67 13t-69 7q-144 0 -249 -110q-94 -98 -94 -202q0 -32 19 -54t54 -22q60 0 120 74q56 69 56 120q0 33 -17 50q-3 3 1 7.5t8 1.5q23 -16 32 -34t9 -40q0 -89 -73 -147q-60 -48 -123 -48q-52 0 -84 30q-39 36 -39 107
q0 94 80 176q104 107 289 107q51 0 96 -7q27 -4 69 -15q37 26 70 39q51 21 103 21q27 0 52 -12.5t25 -35.5q0 -21 -8 -32.5t-30 -11.5q-20 0 -27 9.5t-7 21.5q0 5 4 14t4 13q0 8 -14 13t-31 5q-28 0 -57 -13.5t-55 -40.5q49 -16 82 -42q59 -47 59 -117t-55 -115.5
t-132 -45.5q-20 0 -36 4q-26 7 -49 23q-3 2 1.5 6.5t7.5 2.5q13 -7 31 -13.5t32 -6.5q48 0 91 46q48 51 48 123q0 38 -27.5 72t-62.5 46z" />
    <glyph glyph-name="Q" unicode="Q" horiz-adv-x="585" 
d="M604 482q0 -70 -28.5 -152t-80.5 -162q-56 -87 -118 -132q-69 -50 -148 -50q-88 0 -141.5 56.5t-53.5 142.5q0 93 62 190q46 72 102 114q88 65 183 74q32 31 61 46q35 19 72 19q43 0 66.5 -42t23.5 -104zM562 532q0 36 -13.5 58t-39.5 22q-46 0 -104 -61
q-48 -50 -96 -133q-41 -68 -65 -128t-24 -99q0 -43 36 -64q-1 -4 -1 -7q-6 -6 -10 -4q-33 16 -51 53q-14 29 -14 55q0 85 74 192q37 53 110 131q-56 -15 -119 -83q-50 -54 -74 -103q-33 -68 -53 -133.5t-20 -96.5q0 -54 33.5 -91.5t88.5 -37.5q67 0 127 64q46 49 95 144
q56 111 90 206q30 84 30 116zM0 -115q0 33 36 63q45 38 115 38q49 0 147 -43t129 -43q41 0 66 39q12 18 29 67q2 4 9.5 1t6.5 -7q-10 -46 -40 -91q-44 -66 -105 -66q-41 0 -149 59.5t-139 59.5q-19 0 -41.5 -15t-22.5 -30q0 -8 19.5 -12t19.5 -23q0 -18 -12.5 -28.5
t-29.5 -10.5q-38 0 -38 42z" />
    <glyph glyph-name="R" unicode="R" horiz-adv-x="900" 
d="M741 605q52 -16 86 -46q49 -44 49 -108q0 -70 -43 -109q-53 -48 -167 -48q58 -24 74 -44q22 -27 22 -93v-22q0 -55 5 -83q9 -50 34 -50q31 0 51 56q8 24 17 48q2 5 8 1t4 -12q-19 -62 -32 -80q-21 -29 -50 -29q-62 0 -87 53q-19 40 -19 113q0 32 -3.5 58t-8.5 45
t-16.5 27.5t-27.5 8.5h-39q-4 0 -2.5 10.5t9.5 10.5t28.5 -2.5t29.5 -2.5q62 0 107 57q40 51 40 107q0 55 -27 87q-20 24 -54 35q-41 -47 -80 -129q-31 -65 -55.5 -139.5t-29.5 -88.5q-16 -42 -35 -79q-50 -96 -146 -139q-72 -32 -166 -32q-78 0 -131 31q-66 39 -66 114
q0 32 19 53t48 21q17 0 32.5 -12.5t15.5 -29.5q0 -16 -12 -29t-28 -13q-9 0 -18 14q-5 7 -10 7q-10 0 -14 -7.5t-4 -27.5q0 -33 36 -64q48 -41 132 -41q46 0 57 1q42 4 74 25q48 31 86 88q29 44 62 122q28 68 56 137q25 54 66 114t85 111q-32 7 -50.5 9.5t-42.5 2.5
q-126 0 -236 -72q-127 -83 -127 -208q0 -20 18 -39q23 -25 60 -25q52 0 109 54t57 111q0 17 -13 43q-2 4 2 4.5t5 0.5q14 -11 22.5 -29.5t8.5 -44.5q0 -49 -41 -96q-52 -60 -135 -60q-55 0 -90.5 32.5t-35.5 84.5q0 103 110.5 181.5t258.5 78.5q40 0 69 -3t64 -13
q25 22 57 35q46 19 101 19q25 0 51 -13t26 -35q0 -19 -8 -29t-30 -10q-18 0 -26 10t-8 23q8 13 8 22q0 8 -14 12t-31 4q-21 0 -50 -12.5t-51 -32.5z" />
    <glyph glyph-name="S" unicode="S" horiz-adv-x="622" 
d="M671 488q0 -32 -19 -58t-49 -26q-21 0 -37 13t-16 35q0 17 9.5 27.5t25.5 10.5q13 0 22.5 -8.5t11.5 -8.5q11 0 14.5 4.5t3.5 14.5v11q0 46 -44 77.5t-121 31.5q-74 0 -127 -34q-59 -38 -59 -100q0 -57 80 -110q74 -46 148 -91q81 -61 81 -136q0 -110 -102 -180
q-96 -66 -228 -66q-102 0 -172 39q-83 46 -83 130q0 83 79 137q73 50 173 50q62 0 109 -24q58 -30 58 -81q0 -52 -46 -90t-110 -38q-31 0 -49.5 9t-43.5 34q-3 4 1.5 11t8.5 2q33 -40 79 -40q48 0 81 31t33 74q0 34 -27 62q-35 36 -97 36q-79 0 -137 -44q-63 -48 -63 -121
q0 -60 52 -106q63 -55 170 -55q98 0 174 53q83 58 83 145q0 76 -81 130q-76 42 -151 84q-81 54 -81 129q0 70 67 121q72 55 183 55q80 0 134 -34q62 -39 62 -106z" />
    <glyph glyph-name="T" unicode="T" horiz-adv-x="727" 
d="M800 536q-44 6 -157.5 18.5t-129.5 12.5q-63 0 -106 -18q-55 -23 -51 -69q1 -5 -7.5 -5.5t-10 10.5t-1.5 23q0 63 49 91.5t140 28.5q54 0 195 -15t197 -15q35 0 60 21q9 8 38 45l4 2q6 0 9 -6t1 -10q-6 -17 -10 -30q-8 -24 -17 -38q-19 -30 -61 -40q-25 -6 -75 -6l-38 2
q3 -3 6.5 -6t-0.5 -6q-16 -4 -25 -7q-59 -23 -96 -72.5t-76 -147.5q-54 -134 -94 -200q-52 -85 -117 -125.5t-164 -40.5q-113 0 -177 71q-56 63 -56 156q0 122 102 212q93 82 197 82q61 0 95.5 -35.5t34.5 -92.5q0 -88 -85 -157q-73 -59 -128 -59q-40 0 -61 13
q-29 18 -29 59q0 19 11 36q1 2 5 -0.5t3 -4.5q-6 -17 -6 -35q0 -24 16 -37t46 -13q46 0 110 59q80 74 80 175q0 39 -22 58t-55 19q-30 0 -91 -38q-75 -47 -121 -111q-60 -84 -60 -179q0 -78 55 -120q49 -38 126 -38q42 0 81 17q56 25 103.5 83.5t91.5 147.5q34 71 69 142
q41 77 88 122q27 23 51 39q29 19 63 32z" />
    <glyph glyph-name="U" unicode="U" horiz-adv-x="870" 
d="M802 550h61l-150 -300q-17 -34 -28.5 -90.5t-11.5 -99.5q0 -23 11 -40.5t31 -17.5q28 0 59.5 44.5t62.5 125.5q2 6 8.5 1.5t4.5 -13.5q-17 -66 -60 -125q-36 -49 -71 -49q-49 0 -69.5 36.5t-20.5 103.5q0 54 38 135l-2 3q-46 -65 -91 -130q-53 -70 -99 -105
q-57 -43 -118 -43q-52 0 -84 45q-28 40 -28 92q0 72 43 140q35 55 106 117t142 122q-31 -7 -56.5 -10t-61.5 -3q-16 0 -53 2.5t-52 2.5q-82 0 -154.5 -46.5t-72.5 -109.5q0 -52 27.5 -76t99.5 -24q4 0 3.5 -9t-10.5 -9q-68 0 -109 36q-37 32 -37 76q0 85 89 151.5t185 66.5
q36 0 81 -8q113 -20 124 -20q10 0 15 1q43 35 61 49q31 24 55 24q19 0 19 -13q0 -29 -51 -47q-71 -25 -83 -35q-41 -39 -127 -144q-60 -73 -96 -159q-29 -69 -29 -123q0 -33 22 -53t53 -20q60 0 158 116q77 92 135 196z" />
    <glyph glyph-name="V" unicode="V" horiz-adv-x="750" 
d="M349 19q43 14 99 66q66 61 156 181q57 77 109 133t111 106q-14 5 -32 7t-36 2q-22 0 -47 -16t-67 -58q-5 -4 -9 5.5t0 13.5q45 64 68 83q38 32 94 32q16 0 39.5 -4t36.5 -6l42 40q30 24 59 24q16 0 22.5 -4t6.5 -18q0 -49 -39.5 -79t-90.5 -30q-14 0 -26 3
q-56 -47 -83 -74q-45 -44 -93 -105q-85 -114 -140 -176q-49 -55 -94 -93q-22 -19 -47 -32t-59 -24q-5 -2 -19.5 -6t-18.5 -4q-3 0 -5 3.5t1 4.5q8 3 15 7t14 10q28 23 52 74q28 59 68 200q36 124 77 192q37 62 107 123q-35 6 -90.5 9t-98.5 3q-116 0 -222 -66
q-113 -70 -113 -159q0 -33 26.5 -56.5t62.5 -23.5q73 0 142 67q65 63 65 115q0 18 -2 22t-12 15q-2 2 2 5t7 1q14 -8 20 -17q12 -17 12 -44q0 -72 -69.5 -126t-149.5 -54q-62 0 -100.5 40.5t-38.5 100.5q0 105 118 159q81 37 171 37q66 0 147.5 -3t136.5 -10l56 34
q31 17 51 17q18 0 18 -13q0 -21 -33.5 -30.5t-67.5 -18.5q-12 -8 -29 -28t-31 -45q-25 -45 -81 -194q-26 -69 -55 -140q-24 -58 -46 -93q-26 -43 -67 -85zM892 558q15 -5 27 -5q24 0 45 15.5t21 30.5q0 13 -10 13q-27 0 -50 -21q-7 -6 -33 -33z" />
    <glyph glyph-name="W" unicode="W" horiz-adv-x="900" 
d="M743 584q-35 -35 -77 -101q-13 -21 -87 -154q-55 -99 -125 -216q-17 -28 -38 -52q-25 -28 -65 -61q-8 -7 -18 -9.5t-24 -4.5q-4 0 -6 5t1 6q11 4 16.5 7t11.5 11q12 16 23 45.5t24 81.5q8 30 17.5 67t19.5 81q21 94 58 170q45 91 107 142l-82 3q-134 0 -257 -54
q-148 -65 -148 -169q0 -32 26 -55t62 -23q72 0 139 65q63 61 63 113q0 18 -5.5 25t-8.5 11q-1 2 3 5t6 1q11 -6 19 -18q12 -18 12 -42q0 -72 -70 -126q-65 -50 -144 -50q-60 0 -98 38t-38 100q0 103 116 160q85 42 168 42q38 0 94 -3q131 -7 157 -7q51 30 69.5 39t34.5 9
q19 0 19 -13q0 -20 -32 -31q-44 -12 -65 -18q-39 -37 -75 -118q-19 -43 -47 -124q-41 -123 -55 -160q-31 -85 -69 -166q25 29 55 73q26 39 50 82q58 105 116 211q71 121 136 189q26 26 54 48q5 4 10.5 -1t0.5 -10q-46 -57 -63 -175q-9 -61 -17 -122q-23 -132 -50 -204
q-9 -24 -46 -94l2 -2q54 61 95 123q5 8 53 87q58 97 106 174q53 86 65 92q-14 4 -33 6t-33 2q-22 0 -48.5 -17t-65.5 -56q-4 2 -7 5q-4 9 -1 14q45 63 68 82q37 31 90 31q17 0 36 -3.5t39 -6.5q20 20 41 40q29 24 58 24q27 0 27 -23q0 -48 -40 -79q-36 -28 -86 -28l-26 3
q-38 -53 -72 -113q-52 -91 -65 -112q-46 -74 -121 -174q-16 -22 -41 -46q-28 -28 -63 -53q-10 -7 -14 -10q-9 -7 -11 -7l-9 9q2 3 3 4q8 12 9 15q22 37 38 102.5t29.5 177.5t45.5 192q15 36 53 98zM1005 556q18 -5 28 -5q24 0 44 15.5t20 29.5q0 16 -10 16q-17 0 -31 -9
q-7 -4 -51 -47z" />
    <glyph glyph-name="X" unicode="X" horiz-adv-x="952" 
d="M545 316h-54v20h64q22 45 37 97.5t15 89.5q0 44 -24.5 66.5t-63.5 22.5q-83 0 -163 -71q-95 -85 -95 -211q0 -26 18 -43.5t49 -17.5q42 0 94 47q69 62 69 160q0 24 -13 37q-2 3 3 6t8 2q14 -5 23.5 -23.5t9.5 -39.5q0 -86 -75 -150q-64 -55 -119 -55q-42 0 -73 30
q-34 33 -34 83q0 82 87 168q95 94 209 94q57 0 86 -25q35 -30 35 -97q0 -43 -20 -116q39 65 75 108q51 61 104 92q65 38 142 38q30 0 59.5 -19.5t29.5 -51.5q0 -30 -17 -44q-13 -11 -33 -11q-15 0 -25 10t-10 26q0 19 22.5 23t22.5 16q0 35 -56 35q-27 0 -49 -5
q-49 -11 -95 -44q-40 -29 -80 -85q-43 -61 -78 -142h80v-20h-88q-29 -62 -42.5 -111.5t-13.5 -83.5q0 -51 28.5 -85t77.5 -34q72 0 141.5 99t69.5 195q0 35 -17 48q-11 8 -31 8q-36 0 -96 -73q-69 -84 -69 -169q0 -11 6 -26.5t11 -21.5q1 -2 -3 -4t-7 1q-39 34 -39 82
q0 25 20 70q26 59 69 102q19 20 56 37.5t57 17.5q35 0 60.5 -31.5t25.5 -82.5q0 -80 -63 -165q-77 -103 -190 -103q-73 0 -106 60q-25 45 -25 113q0 25 3 43l-3 1q-64 -98 -137 -152q-88 -65 -189 -65q-77 0 -133 35q-63 40 -63 105q0 42 27.5 75.5t64.5 33.5
q25 0 38.5 -13.5t13.5 -31.5t-12.5 -28.5t-30.5 -10.5q-30 0 -30 20q0 6 3 13t3 8q0 4 -8 8q-12 0 -29 -20q-20 -24 -20 -53q0 -53 48.5 -89t124.5 -36q109 0 204 100q80 84 128 214z" />
    <glyph glyph-name="Y" unicode="Y" horiz-adv-x="877" 
d="M600 -7q28 37 65 104q56 102 87 154q73 124 168 264q-32 0 -86 12t-87 12q-70 0 -95 -42q-7 -14 -13 -28h-8l-2 12q0 33 58 80q43 35 98 35q36 0 109 -15q39 -8 62 -8q36 39 68 62q43 31 76 31q12 0 20.5 -7.5t8.5 -20.5q0 -75 -68 -104q-44 -19 -110 -19
q-47 -61 -239 -385q-84 -140 -128 -198q-74 -99 -150 -145q-92 -56 -210 -56q-98 0 -168 51q-76 55 -76 142q0 105 86 189q96 94 244 94q70 0 123.5 -35.5t53.5 -96.5q0 -60 -59 -118q-70 -69 -171 -69q-55 0 -99 27q-50 30 -50 77q0 20 7 34t30 33q3 2 9 -2t2 -8
q-29 -23 -29 -57q0 -29 27 -53q34 -31 94 -31q79 0 138 48t59 118q0 41 -34 73q-39 36 -104 36q-109 0 -190.5 -69.5t-81.5 -175.5q0 -92 67 -145q58 -46 141 -46q90 0 177 57q63 41 103 95q36 49 58 114q26 78 26 166q0 172 -87 294.5t-220 122.5q-54 0 -90.5 -34.5
t-36.5 -87.5q0 -56 61 -110q69 -61 163 -61q39 0 64 17q13 9 36 35q2 3 5 0q7 -8 3 -15q-23 -39 -69 -55q-34 -12 -75 -12q-86 0 -149.5 56.5t-63.5 128.5q0 74 53 122t145 48q118 0 202 -79q103 -97 103 -277q0 -103 -14 -166q-7 -31 -37 -113zM991 573q47 0 83 18.5
t36 44.5q0 14 -13 14q-24 0 -58 -27q-30 -24 -48 -50z" />
    <glyph glyph-name="Z" unicode="Z" horiz-adv-x="592" 
d="M392 276h-94v16h110q20 19 98.5 91.5t94.5 88.5q42 41 81 88q-95 12 -142 18q-86 11 -143 11q-101 0 -183 -38q-104 -48 -104 -135q0 -33 28 -55.5t81 -22.5q17 0 49 11t46 19q33 23 59 55q34 41 34 73q0 10 -2 15t3 9.5t8 2.5q14 -18 14 -50q0 -21 -11.5 -48t-36.5 -53
t-63.5 -42t-87.5 -16q-60 0 -101 35.5t-41 92.5q0 80 65 133t170 53q50 0 186 -24.5t187 -24.5q40 61 56 76q12 11 28 11q17 0 17 -15q0 -8 -38 -40q-28 -24 -49 -46q-83 -88 -132 -139q-53 -55 -134 -134h103v-16h-119q-65 -60 -118 -103q-62 -50 -130 -94q16 2 23 2
q42 0 77 -22q53 -34 131 -114q95 -99 123 -122q69 -58 122 -58q39 0 64 26t25 65q0 28 -19.5 47.5t-35.5 19.5q-5 -2 -7 -3q-8 -5 -8 -11q0 -5 5.5 -13.5t5.5 -14.5q0 -16 -11 -27t-27 -11q-20 0 -34 14.5t-14 36.5q0 23 20 41t46 18q39 0 66.5 -28.5t27.5 -67.5
q0 -52 -44 -89t-107 -37q-67 0 -127 49q-33 27 -107 113t-125 124q-19 14 -44.5 23.5t-56.5 13.5q-36 -21 -63 -45q-10 -9 -52 -51q-5 -5 -15 -5q-13 0 -21.5 3.5t-8.5 12.5q0 34 34 56.5t123 52.5q71 51 144 110q62 51 101 88z" />
    <glyph glyph-name="bracketleft" unicode="[" horiz-adv-x="190" 
d="M106 -79q-37 10 -53 15q-27 8 -50 20q-3 2 -7 10.5t-4 14.5q0 33 24 110q21 68 57 154q60 143 138 264q5 8 15.5 11t22.5 3h115q10 0 10 -17q-5 -5 -7 -5q-22 0 -44 -0.5t-54 -5.5q-4 -1 -13.5 -10.5t-16.5 -18.5q-22 -30 -55 -98.5t-63 -145t-50 -134.5q-24 -71 -24 -96
q0 -19 8 -28.5t22.5 -13.5t26 -6t13.5 -3t3 -3q0 -4 -7 -11q-2 -2 -7 -6z" />
    <glyph glyph-name="backslash" unicode="\" horiz-adv-x="244" 
d="M205 -14q-5 4 -5 6l-131 483q-3 13 13 13q5 -3 5 -5l134 -487q2 -10 -16 -10z" />
    <glyph glyph-name="bracketright" unicode="]" horiz-adv-x="190" 
d="M-34 -79h-115q-10 0 -10 17q5 5 7 5q35 0 54.5 1.5t47.5 10.5q11 4 26 23q22 30 55 98.5t63 145t50 134.5q24 71 24 96q0 6 -1 15.5t-9.5 15.5t-23 11t-24.5 6.5t-12 2.5t-3 3q0 4 7 11q2 2 7 6q47 -10 103 -35q5 -3 5 -17q0 -31 -21.5 -103.5t-52.5 -152.5
q-50 -127 -79.5 -184.5t-59.5 -95.5q-6 -8 -16.5 -11t-21.5 -3z" />
    <glyph glyph-name="asciicircum" unicode="^" horiz-adv-x="355" 
d="M187 343h26q11 0 16 -14q23 -61 50 -112q19 -36 55 -93q10 -15 10 -21q0 -7 -13 -14t-22 -7t-17 15q-33 58 -51 94t-50 108q-39 -52 -73 -107q-23 -38 -58 -99q-3 -6 -6 -7.5t-4 -1.5q-9 0 -17 3t-8 8l1 5q34 61 67 111q18 27 84 120q9 12 10 12z" />
    <glyph glyph-name="underscore" unicode="_" horiz-adv-x="488" 
d="M0 -55h488v-24h-488v24z" />
    <glyph glyph-name="grave" unicode="`" horiz-adv-x="153" 
d="M116 337q-13 0 -21 11t-8 26q0 29 19 57q23 33 68 56l4 1q6 0 9.5 -4t-0.5 -7q-16 -9 -31 -18q-22 -15 -22 -33q0 -7 15.5 -11.5t15.5 -21.5q0 -22 -17 -39t-32 -17z" />
    <glyph glyph-name="a" unicode="a" horiz-adv-x="362" 
d="M265 295l18 41h62l-115 -301q0 -31 19 -31q29 0 55 42q15 24 27 60q3 7 8 7q8 0 6 -8q-9 -36 -28 -67q-30 -48 -68 -48q-24 0 -36 22.5t-12 56.5q0 9 2.5 29t10.5 46q-57 -85 -60 -88q-52 -66 -89 -66q-26 0 -40.5 25t-14.5 60q0 82 74 175t138 93q23 0 33 -14t10 -34z
M249 285q0 24 -6.5 34t-16.5 10q-15 0 -33 -23q-21 -27 -78 -128q-19 -35 -41 -86.5t-22 -65.5q0 -6 4.5 -14t10.5 -8q17 0 49 34q36 39 70 91q28 47 47 96q16 42 16 60z" />
    <glyph glyph-name="b" unicode="b" horiz-adv-x="301" 
d="M488 620q0 -13 -11.5 -22.5t-25.5 -9.5q-26 0 -26 18q0 6 2.5 17t2.5 13q0 9 -8.5 11.5t-20.5 2.5q-39 0 -87 -44q-57 -53 -99 -146l-99 -222q23 32 46 65q33 40 65 40t46 -26q11 -21 11 -61q0 -76 -59 -167q-64 -99 -133 -99q-52 0 -67 20.5t-15 63.5q0 51 37 151
q27 73 85 198q25 53 53 95q36 54 69.5 80.5t62.5 41.5q50 26 100 26q27 0 49 -14t22 -32zM87 4q30 0 59 48q15 25 40 85q21 50 34.5 96t13.5 68q0 26 -15 26q-21 0 -60 -56q-28 -40 -47 -78q-58 -119 -58 -149q0 -17 9.5 -28.5t23.5 -11.5z" />
    <glyph glyph-name="c" unicode="c" horiz-adv-x="288" 
d="M278 284q0 -33 -13 -55.5t-40 -22.5q-12 0 -20.5 7.5t-8.5 18.5q0 15 8.5 25.5t21.5 10.5q32 0 32 32q0 11 -10 19t-25 8q-23 0 -51 -30q-32 -35 -60 -96q-22 -50 -34.5 -89.5t-12.5 -62.5q0 -17 10 -29t35 -12q38 0 69 39q12 16 30 47q14 26 18 33q1 3 7 1t5 -6
q-12 -26 -25.5 -49t-27.5 -41q-32 -42 -81 -42q-29 0 -57 22q-38 30 -38 85q0 33 12.5 67t34.5 67q34 49 79 80.5t81 31.5q25 0 43 -17t18 -42z" />
    <glyph glyph-name="d" unicode="d" horiz-adv-x="364" 
d="M265 295l77 185q28 82 98.5 134t161.5 52q30 0 52 -11t22 -34q0 -15 -10.5 -24.5t-29.5 -9.5q-14 0 -24.5 8.5t-10.5 22.5q0 6 4 10q9 10 9 13q0 5 -10 8t-21 3q-50 0 -97 -42.5t-82 -129.5l-174 -445q0 -31 19 -31q29 0 55 42q15 24 27 60q3 7 8 7q8 0 6 -8
q-9 -36 -28 -67q-30 -48 -68 -48q-24 0 -36 22.5t-12 56.5q0 9 2.5 29t10.5 46q-57 -85 -60 -88q-52 -66 -89 -66q-26 0 -40.5 25t-14.5 60q0 82 74 175t138 93q23 0 33 -14t10 -34zM249 285q0 24 -6.5 34t-16.5 10q-15 0 -33 -23q-21 -27 -78 -128q-19 -35 -41 -86.5
t-22 -65.5q0 -6 4.5 -14t10.5 -8q17 0 49 34q36 39 70 91q28 47 47 96q16 42 16 60z" />
    <glyph glyph-name="e" unicode="e" horiz-adv-x="275" 
d="M276 291q0 -62 -51 -94q-41 -26 -97 -26l-28 2q-18 -38 -28.5 -69t-10.5 -47q0 -49 49 -49q38 0 69 39q12 16 30 47q14 26 18 33q1 3 7 1t5 -6q-12 -26 -25.5 -49t-27.5 -41q-32 -42 -81 -42q-44 0 -69.5 28.5t-25.5 73.5q0 87 67 169t141 82q58 0 58 -52zM223 307
q0 22 -15 22q-25 0 -60 -59q-8 -13 -41 -82l17 -1q52 0 79 48q20 35 20 72z" />
    <glyph glyph-name="f" unicode="f" horiz-adv-x="231" 
d="M125 322h-83v14h89l56 144q28 82 98.5 134t161.5 52q30 0 52 -11t22 -34q0 -15 -10.5 -24.5t-29.5 -9.5q-14 0 -24.5 8.5t-10.5 22.5q0 6 4 10q9 10 9 13q0 5 -10 8t-21 3q-50 0 -97 -42.5t-82 -129.5l-56 -144h80v-14h-86l-155 -396q-32 -80 -103.5 -133t-156.5 -53
q-30 0 -52 11t-22 34q0 15 10.5 24.5t29.5 9.5q14 0 24.5 -8.5t10.5 -22.5q0 -6 -4 -10q-9 -10 -9 -13q0 -5 10 -8t21 -3q47 0 97.5 49t81.5 123z" />
    <glyph glyph-name="g" unicode="g" horiz-adv-x="340" 
d="M269 295l11 27q5 14 17 14h76q5 0 3 -7t-9 -7q-22 0 -30 -19l-155 -382q-31 -78 -80 -119q-67 -56 -174 -56q-61 0 -94 30q-28 25 -28 58q0 16 15 35q19 23 43 23q15 0 28.5 -10t13.5 -29q0 -36 -28 -36q-8 0 -16 3.5t-15 5.5q-6 0 -6 -11q0 -19 18 -34q25 -21 69 -21
q66 0 116 46q43 40 76 115l98 223q-57 -85 -60 -88q-52 -66 -89 -66q-26 0 -40.5 25t-14.5 60q0 82 74 175t138 93q23 0 33 -14t10 -34zM253 285q0 24 -6.5 34t-16.5 10q-15 0 -33 -23q-21 -27 -78 -128q-19 -35 -41 -86.5t-22 -65.5q0 -6 4.5 -14t10.5 -8q17 0 49 34
q36 39 70 91q28 47 47 96q16 42 16 60z" />
    <glyph glyph-name="h" unicode="h" horiz-adv-x="350" 
d="M52 0h-62l194 480q28 82 98.5 134t161.5 52q30 0 52 -11t22 -34q0 -15 -10.5 -24.5t-29.5 -9.5q-14 0 -24.5 8.5t-10.5 22.5q0 6 4 10q9 10 9 13q0 5 -10 8t-21 3q-50 0 -97 -42.5t-82 -129.5l-120 -289q41 65 71 101q43 51 70 51q21 0 31.5 -24.5t10.5 -59.5
q0 -46 -24 -94q-31 -48 -61 -96q-4 -9 -5 -18t-1 -16q0 -31 19 -31q29 0 55 42q15 24 27 60q3 7 8 7q8 0 6 -8q-9 -36 -28 -67q-30 -48 -68 -48q-24 0 -36 22.5t-12 56.5q0 45 44 135t44 110q0 15 -12 15q-18 0 -60 -53t-89 -130z" />
    <glyph glyph-name="i" unicode="i" horiz-adv-x="194" 
d="M82 -10q-29 0 -41.5 29.5t-12.5 66.5q0 43 44 123t44 107q0 13 -10 13q-23 0 -58 -58q-14 -24 -24 -46q-2 -3 -8 0t-5 8q6 25 31 61q34 49 65 49q22 0 34.5 -20.5t12.5 -53.5q0 -59 -33 -120q-22 -34 -43 -68q-10 -19 -10 -43q0 -34 14 -34q29 0 55 42q15 24 27 60
q3 7 8 7q8 0 6 -8q-9 -36 -28 -67q-30 -48 -68 -48zM206 458q0 -22 -15 -44t-33 -22q-13 0 -17.5 9.5t-4.5 21.5q0 16 16 40.5t31 24.5q11 0 17 -9t6 -21z" />
    <glyph glyph-name="j" unicode="j" horiz-adv-x="178" 
d="M206 458q0 -22 -15 -44t-33 -22q-13 0 -17.5 9.5t-4.5 21.5q0 16 16 40.5t31 24.5q11 0 17 -9t6 -21zM161 269q0 -49 -34.5 -150.5t-82.5 -197.5q-41 -83 -86 -123q-58 -52 -138 -52q-43 0 -68.5 23.5t-25.5 53.5q0 25 20 45q14 14 34 14q15 0 28.5 -10t13.5 -29
q0 -36 -28 -36q-8 0 -16 3.5t-15 5.5q-7 0 -7 -12q0 -14 12 -25q17 -15 49 -15q50 0 101 59q31 36 64 98t67 150q40 102 67 204q3 12 5 21.5t2 19.5q0 13 -10 13q-23 0 -58 -58q-14 -24 -24 -46q-2 -3 -8 0t-5 8q6 25 31 61q34 49 65 49q22 0 34.5 -20.5t12.5 -53.5z" />
    <glyph glyph-name="k" unicode="k" horiz-adv-x="346" 
d="M52 0h-62l190 480q28 82 98.5 134t161.5 52q30 0 52 -11t22 -34q0 -15 -10.5 -24.5t-29.5 -9.5q-14 0 -24.5 8.5t-10.5 22.5q0 6 4 10q9 10 9 13q0 5 -10 8t-21 3q-50 0 -97 -42.5t-82 -129.5l-90 -229q15 17 31 34q60 58 120 58q12 0 23.5 -12t11.5 -29q0 -57 -59 -84
q-30 -13 -89 -21q28 -4 38.5 -19.5t10.5 -46.5q0 -13 -2.5 -45.5t-2.5 -45.5q0 -14 3.5 -23t15.5 -9q19 0 40 42q21 49 27 62q2 4 8 0t5 -8q-14 -51 -34 -80q-24 -34 -51 -34q-31 0 -51.5 23.5t-20.5 61.5q0 17 2.5 45t2.5 30q0 42 -31 42h-22zM134 208h29q66 0 98 26
q23 19 23 45q0 14 -8.5 21.5t-18.5 7.5q-22 0 -57 -31q-27 -24 -66 -69z" />
    <glyph glyph-name="l" unicode="l" horiz-adv-x="204" 
d="M87 -10q-33 0 -53 34.5t-20 86.5q0 34 24 108q32 98 94 216q50 94 105 149q83 82 180 82q34 0 59.5 -16t25.5 -40q0 -17 -10.5 -29.5t-26.5 -12.5q-15 0 -25 8t-10 22q0 11 12 19t12 14q0 7 -12.5 14t-25.5 7q-44 0 -97 -48q-77 -69 -148 -220q-54 -116 -81 -188
q-34 -92 -34 -140q0 -18 8.5 -33t23.5 -15q18 0 45 43t41 84q1 3 7.5 -0.5t4.5 -10.5q-15 -52 -47 -96q-28 -38 -52 -38z" />
    <glyph glyph-name="m" unicode="m" horiz-adv-x="494" 
d="M72 0h-62l78 192q3 8 16 46q21 62 21 68q0 23 -12 23q-19 0 -46 -44t-32 -70l-7 -3q-9 0 -7 6q5 33 31 75q31 50 60 50q47 0 47 -50q0 -24 -3.5 -48t-12.5 -53q53 93 61 104q33 47 61 47q24 0 34 -28q3 -9 6 -29q0 -13 -3.5 -34t-11.5 -60l62 100q35 51 61 51
q21 0 33.5 -20.5t12.5 -53.5q0 -59 -33 -120q-22 -34 -43 -68q-10 -19 -10 -43q0 -34 14 -34q29 0 55 42q15 24 27 60q3 7 8 7q8 0 6 -8q-9 -36 -28 -67q-30 -48 -68 -48q-29 0 -41.5 29.5t-12.5 66.5q0 43 44 123t44 107q0 13 -10 13q-16 0 -67 -81q-6 -10 -62 -102
l-64 -146h-62l83 211q9 24 20.5 60.5t11.5 44.5q0 13 -11 13q-13 0 -43.5 -46.5t-71.5 -123.5z" />
    <glyph glyph-name="n" unicode="n" horiz-adv-x="348" 
d="M72 0h-62l79 192q3 8 16 46q21 62 21 68q0 23 -12 23q-19 0 -46 -44t-32 -70l-7 -3q-9 0 -7 6q5 33 31 75q31 50 60 50q47 0 47 -50q0 -24 -3.5 -48t-12.5 -53q47 82 60 100q36 51 63 51q21 0 33.5 -20.5t12.5 -53.5q0 -59 -33 -120q-22 -34 -43 -68q-10 -19 -10 -43
q0 -34 14 -34q29 0 55 42q15 24 27 60q3 7 8 7q8 0 6 -8q-9 -36 -28 -67q-30 -48 -68 -48q-29 0 -41.5 29.5t-12.5 66.5q0 43 44 123t44 107q0 13 -10 13q-16 0 -53 -56t-72 -127z" />
    <glyph glyph-name="o" unicode="o" horiz-adv-x="325" 
d="M119 -10q-53 0 -81 32.5t-28 79.5q0 67 51 144q64 97 159 97q46 0 69 -26t23 -67q0 -69 -44 -151q-58 -109 -149 -109zM111 4q49 0 102 132q45 112 45 150q0 19 -5 27q-10 16 -36 16q-48 0 -102 -121q-47 -106 -47 -150q0 -24 10 -39t33 -15z" />
    <glyph glyph-name="p" unicode="p" horiz-adv-x="331" 
d="M81 26l-93 -239q-2 -8 -2 -12q0 -17 11.5 -18t20.5 -2.5t20 -1.5q3 0 4 -2l2 -4q0 -12 -14 -12q-15 0 -45 3t-45 3q-20 0 -31 -1q-55 -5 -68 -5q-7 0 -7 9t7 9q30 0 50.5 8t27.5 26l164 405q3 8 16 46q21 62 21 68q0 23 -12 23q-19 0 -46 -44t-32 -70l-7 -3q-9 0 -7 6
q5 33 31 75q31 50 60 50q47 0 47 -50q0 -24 -3.5 -48t-12.5 -53q43 80 55 97q36 54 67 54q24 0 41.5 -25.5t17.5 -63.5q0 -60 -48 -150q-61 -114 -140 -114q-21 0 -35.5 10.5t-14.5 25.5zM269 307q0 7 -4.5 12.5t-9.5 5.5q-14 0 -38.5 -35t-58.5 -98l-59 -128q-6 -12 -6 -20
q0 -17 8 -26.5t28 -9.5q24 0 52 48q21 35 38 83q27 72 38.5 112.5t11.5 55.5z" />
    <glyph glyph-name="q" unicode="q" horiz-adv-x="334" 
d="M333 310l-201 -523q-2 -8 -2 -13q0 -20 14 -21l38 -3q6 0 6 -6q0 -9 -14 -9q-19 0 -51.5 2.5t-40.5 2.5q-21 0 -53.5 -2.5t-41.5 -2.5q-7 0 -7 9t7 9q30 0 50.5 8t27.5 26l148 356q-31 -44 -61 -87q-53 -66 -89 -66q-26 0 -40.5 25t-14.5 60q0 82 74 175t138 93
q23 0 33 -14t10 -34l13 34q5 14 17 14h76q5 0 3 -7t-9 -7q-22 0 -30 -19zM247 285q0 24 -6.5 34t-16.5 10q-15 0 -33 -23q-21 -27 -78 -128q-19 -35 -41 -86.5t-22 -65.5q0 -6 4.5 -14t10.5 -8q17 0 49 34q36 39 70 91q28 47 47 96q16 42 16 60z" />
    <glyph glyph-name="r" unicode="r" horiz-adv-x="279" 
d="M10 0l72 192q3 8 16 46q21 62 21 68q0 23 -12 23q-19 0 -46 -44t-32 -70l-7 -3q-9 0 -7 6q5 33 31 75q31 50 60 50q47 0 47 -50q0 -24 -3.5 -48t-12.5 -53q36 86 62 118.5t62 32.5q19 0 26 -9.5t7 -23.5q0 -20 -13 -39.5t-33 -19.5q-14 0 -18 7.5t-4 21.5q-6 3 -8 3
q-7 0 -37 -47q-33 -52 -48 -91l-61 -145h-62z" />
    <glyph glyph-name="s" unicode="s" horiz-adv-x="278" 
d="M112 -10q-40 0 -73.5 22t-33.5 56q0 22 15 39t35 17q36 0 36 -33q0 -11 -7.5 -21.5t-19.5 -10.5q-14 6 -22 6q-9 0 -9 -13q0 -18 20 -33t50 -15q32 0 57 17.5t25 46.5q0 28 -55 80t-55 97q0 54 48 80q33 18 64 18q44 0 67 -18.5t23 -47.5q0 -21 -11.5 -34.5t-31.5 -13.5
q-15 0 -23 8t-8 20q0 10 7.5 19.5t17.5 9.5q11 -6 17 -6q8 0 8 12q0 20 -19.5 28.5t-40.5 8.5q-29 0 -47.5 -20.5t-18.5 -34.5q0 -27 53 -77t53 -96q0 -50 -40 -84q-32 -27 -81 -27z" />
    <glyph glyph-name="t" unicode="t" horiz-adv-x="200" 
d="M104 322h-76v14h82l59 144h62l-59 -144h73v-14h-79l-104 -233q-4 -8 -7 -25t-3 -26q0 -12 8 -22t17 -10q22 0 43.5 26t37.5 74q3 7 8 7q8 0 6 -8q-9 -36 -28 -67q-30 -48 -68 -48q-24 0 -40 30.5t-16 63.5q0 32 8 55z" />
    <glyph glyph-name="u" unicode="u" horiz-adv-x="339" 
d="M266 336h62l-115 -301q0 -31 19 -31q29 0 55 42q15 24 27 60q3 7 8 7q8 0 6 -8q-9 -36 -28 -67q-30 -48 -68 -48q-24 0 -36 22.5t-12 56.5q0 26 6 51q6 19 8 26q-38 -67 -60 -99q-40 -57 -63 -57t-37.5 21.5t-14.5 52.5q0 41 46 130t46 112t-12 23q-21 0 -45 -39.5
t-33 -74.5q-1 -4 -8 -3t-6 6q9 42 30 77q29 48 63 48q20 0 30 -17q14 -23 14 -71q0 -46 -28 -102q-62 -124 -62 -127q0 -22 16 -22q18 0 57 58q36 53 62 109z" />
    <glyph glyph-name="v" unicode="v" horiz-adv-x="294" 
d="M103 -10q-28 0 -51 21q-30 27 -30 73q0 33 46.5 113.5t46.5 108.5q0 23 -12 23q-21 0 -45 -39.5t-33 -74.5q-1 -4 -8 -3t-6 6q9 42 30 77q29 48 63 48q20 0 30 -17q14 -23 14 -71q0 -44 -25 -91q-55 -104 -55 -121q0 -14 8 -24q13 -15 33 -15q45 0 93 84.5t48 151.5
q0 16 -5 19.5t-16 3.5q-13 0 -21 7t-8 24q0 24 14.5 36.5t29.5 12.5q16 0 30 -14t14 -34q0 -76 -51 -180q-61 -125 -134 -125z" />
    <glyph glyph-name="w" unicode="w" horiz-adv-x="441" 
d="M260 336h62l-75 -182q-12 -29 -19.5 -62t-7.5 -49q0 -20 9.5 -29.5t26.5 -9.5q45 0 93 84.5t48 151.5q0 16 -5 19.5t-16 3.5q-13 0 -21 7t-8 24q0 24 14.5 36.5t29.5 12.5q16 0 30 -14t14 -34q0 -76 -51 -180q-61 -125 -134 -125q-36 0 -50.5 22.5t-14.5 59.5
q0 17 4.5 43.5t6.5 37.5l-50 -98q-38 -65 -67 -65q-22 0 -36 21q-17 25 -17 72q0 41 28 95q61 117 61 128q0 23 -12 23q-21 0 -45 -39.5t-33 -74.5q-1 -4 -8 -3t-6 6q9 42 30 77q29 48 63 48q20 0 30 -17q14 -23 14 -71q0 -43 -27 -91q-58 -103 -58 -120t3 -28.5t19 -11.5
q12 0 40.5 43.5t61.5 119.5z" />
    <glyph glyph-name="x" unicode="x" horiz-adv-x="440" 
d="M339 178v-14h-73q-9 -28 -15 -50q-9 -35 -9 -55q0 -33 12 -46q8 -9 24 -9q36 0 67 50q18 28 31 68q1 4 9 4q7 0 5 -5q-12 -43 -31 -73q-36 -58 -87 -58q-26 0 -38 21.5t-12 51.5q0 26 5 43q-48 -64 -57 -73q-43 -43 -91 -43q-27 0 -49 13q-30 18 -30 51q0 30 17.5 45.5
t39.5 15.5q14 0 24.5 -10.5t10.5 -22.5q0 -15 -8 -25t-23 -10q-9 0 -16 9t-15 9q-4 0 -7 -4.5t-3 -16.5q0 -16 16.5 -28t30.5 -12q29 0 69 57q29 41 57 103h-57v14h63q17 37 27 66.5t10 51.5q0 13 -8 23t-20 10q-23 0 -45 -25q-26 -29 -44 -75q-2 -6 -9 -6q-3 3 -5 7
q14 37 36 66q35 47 72 47q66 0 66 -78q0 -18 -6 -42q29 59 44 76q37 44 96 44q18 0 30.5 -10.5t12.5 -25.5q0 -18 -10 -30t-24 -12q-28 0 -28 26l3 21q0 12 -10 12q-25 0 -53 -33q-32 -38 -63 -113h68z" />
    <glyph glyph-name="y" unicode="y" horiz-adv-x="322" 
d="M270 336h62l-161 -415q-43 -107 -113 -152q-59 -38 -141 -38q-60 0 -94 32q-28 27 -28 60q0 16 15 35q19 23 43 23q15 0 28.5 -10t13.5 -29q0 -36 -28 -36q-8 0 -16 3.5t-15 5.5q-6 0 -6 -11q0 -21 18 -37q24 -22 69 -22q64 0 116 54q41 43 76 122l92 225
q-29 -54 -42 -74q-52 -82 -80 -82q-23 0 -37.5 21.5t-14.5 52.5q0 41 46 130t46 112t-12 23q-21 0 -45 -39.5t-33 -74.5q-1 -4 -8 -3t-6 6q9 42 30 77q29 48 63 48q20 0 30 -17q14 -23 14 -71q0 -46 -28 -102q-62 -124 -62 -127q0 -22 16 -22q18 0 57 58q36 53 62 109z" />
    <glyph glyph-name="z" unicode="z" horiz-adv-x="287" 
d="M135 144h-81v14h90l92 109q-19 0 -81 11q-20 3 -58 11q-29 0 -42 -20q-10 -25 -13.5 -33.5t-9.5 -8.5q-7 0 -5 8q6 30 28 68q31 54 66 54q24 0 50 -21q59 -47 67 -47q25 0 35 41t30 41q11 0 12.5 -4.5t1.5 -11.5q0 -14 -10.5 -29.5t-34.5 -42.5l-104 -125h80v-14h-90
l-121 -123q26 0 46 -8q33 -14 76 -57q31 -38 51 -60q37 -41 61 -41q18 0 32 15t14 25q0 11 -7 11q-8 0 -14.5 -4.5t-13.5 -4.5q-11 0 -20 8t-9 24q0 12 12 24t30 12q16 0 31 -13t15 -35q0 -32 -20 -55q-24 -27 -68 -27q-61 0 -134.5 82.5t-93.5 82.5q-15 0 -58 -45
q-21 -22 -34 -22q-2 0 -6 5.5t-4 8.5q0 23 37 42q51 25 64 39z" />
    <glyph glyph-name="braceleft" unicode="{" horiz-adv-x="302" 
d="M397 523q5 0 7.5 -1.5t-0.5 -3.5q-28 -16 -56.5 -38.5t-54.5 -54.5q-17 -21 -31 -48q-19 -36 -39 -91q-9 -25 -30.5 -41t-42.5 -19q11 -6 19 -19t8 -35t-16 -49q-22 -37 -24 -44q-8 -25 -10.5 -42.5t-2.5 -34.5q0 -34 14 -78l-7 -3l-9 2q-16 29 -22 48q-11 32 -11 71
q0 34 6.5 59.5t27.5 57.5q7 11 10.5 23t3.5 19q0 20 -24 20h-37h-14q-22 0 -22 3q0 24 23 24q10 0 25.5 -3t30.5 -6q15 -2 28 6.5t19 22.5q25 63 51 126q37 57 77 82q55 26 96 46z" />
    <glyph glyph-name="bar" unicode="|" horiz-adv-x="164" 
d="M94 -14q-12 0 -12 8v489q0 5 12 5q5 0 8 -2t4 -3v-489q0 -8 -12 -8z" />
    <glyph glyph-name="braceright" unicode="}" horiz-adv-x="285" 
d="M-91 -79q-5 0 -7.5 1.5t0.5 3.5q28 16 56.5 38.5t54.5 54.5q16 20 30 47q18 36 38 89q9 25 30.5 41t42.5 19q-11 6 -19 19t-8 35t17 51q23 40 25 45q8 25 10.5 42.5t2.5 34.5q0 34 -14 78l7 3l9 -2q16 -29 22 -48q11 -32 11 -71v-15q0 -33 -4 -54.5t-21 -47.5
q-7 -11 -10.5 -23t-3.5 -19q0 -20 24 -20h48.5t24.5 -3q0 -24 -23 -24q-10 0 -25.5 3t-30.5 6q-15 2 -28 -6.5t-19 -22.5q-14 -33 -27.5 -65t-32.5 -61q-37 -57 -77 -82q-55 -26 -96 -46z" />
    <glyph glyph-name="asciitilde" unicode="~" horiz-adv-x="607" 
d="M417 135q-41 0 -149 59.5t-139 59.5q-16 0 -37 -17.5t-37 -40.5q-4 -5 -11.5 1t-4.5 9q35 43 57 55q32 17 79 17q49 0 147 -43t129 -43q41 0 66 39q12 18 29 67q2 4 9.5 1t6.5 -7q-10 -46 -40 -91q-44 -66 -105 -66z" />
    <glyph glyph-name="nonbreakingspace" unicode="&#xa0;" horiz-adv-x="500" 
 />
    <glyph glyph-name="exclamdown" unicode="&#xa1;" horiz-adv-x="211" 
d="M108 187h20q-36 -99 -64 -184q-18 -54 -37.5 -121.5t-35.5 -124t-33 -75.5t-42 -19q-23 0 -32 11.5t-9 29.5q0 24 21 69q6 12 43 82q56 105 73 138q46 90 96 194zM142 256q-11 0 -19 10t-8 22q0 22 8 35q12 20 39 20q31 0 31 -30q0 -17 -16 -37t-35 -20z" />
    <glyph glyph-name="exclamdown" unicode="&#x40e;" horiz-adv-x="211" 
d="M108 187h20q-36 -99 -64 -184q-18 -54 -37.5 -121.5t-35.5 -124t-33 -75.5t-42 -19q-23 0 -32 11.5t-9 29.5q0 24 21 69q6 12 43 82q56 105 73 138q46 90 96 194zM142 256q-11 0 -19 10t-8 22q0 22 8 35q12 20 39 20q31 0 31 -30q0 -17 -16 -37t-35 -20z" />
    <glyph glyph-name="cent" unicode="&#xa2;" horiz-adv-x="287" 
d="M31 -79q-5 0 -10 4.5t-3 8.5l37 72q-20 13 -31 33q-14 25 -14 58t12.5 67t34.5 67q34 49 79 80.5t81 31.5l12 -1l40 77l5 4q12 0 12 -9l-2 -6l-37 -72q35 -18 35 -51t-11 -56t-33 -23q-11 0 -19.5 7.5t-8.5 18.5q0 15 8.5 25.5t21.5 10.5q22 0 22 32q0 15 -21 24
l-159 -309q12 -7 28 -7q38 0 69 39q12 16 30 47q14 26 18 33q1 3 7 1t5 -6q-12 -26 -25.5 -49t-27.5 -41q-32 -42 -81 -42q-14 0 -32 7l-36 -71q-1 -2 -3 -4q-2 0 -3 -1zM65 49l3 -18l153 296q-23 0 -52 -32.5t-57 -93.5q-22 -50 -34.5 -89.5t-12.5 -62.5z" />
    <glyph glyph-name="cent" unicode="&#x45e;" horiz-adv-x="287" 
d="M31 -79q-5 0 -10 4.5t-3 8.5l37 72q-20 13 -31 33q-14 25 -14 58t12.5 67t34.5 67q34 49 79 80.5t81 31.5l12 -1l40 77l5 4q12 0 12 -9l-2 -6l-37 -72q35 -18 35 -51t-11 -56t-33 -23q-11 0 -19.5 7.5t-8.5 18.5q0 15 8.5 25.5t21.5 10.5q22 0 22 32q0 15 -21 24
l-159 -309q12 -7 28 -7q38 0 69 39q12 16 30 47q14 26 18 33q1 3 7 1t5 -6q-12 -26 -25.5 -49t-27.5 -41q-32 -42 -81 -42q-14 0 -32 7l-36 -71q-1 -2 -3 -4q-2 0 -3 -1zM65 49l3 -18l153 296q-23 0 -52 -32.5t-57 -93.5q-22 -50 -34.5 -89.5t-12.5 -62.5z" />
    <glyph glyph-name="sterling" unicode="&#xa3;" horiz-adv-x="511" 
d="M534 397q0 -44 -21 -75t-51 -31q-23 0 -35.5 11t-12.5 25q0 26 13 34.5t35 8.5q29 0 38.5 9.5t9.5 29.5q0 22 -21 40t-52 18q-45 0 -73.5 -26.5t-49.5 -79.5q-17 -43 -34 -114h87v-18h-91q-13 -44 -41 -83q-33 -45 -90 -85q21 0 41.5 -2t44.5 -8q40 -12 61 -17
q64 -17 76 -17q28 0 44 20q10 12 23 47l6 -2q6 -5 6 -11q0 -43 -29 -82q-32 -44 -76 -44q-41 0 -93 30l-114 66q-14 0 -49 -23q-26 -17 -51 -29q-6 -3 -14 -3q-9 0 -15 4t-6 11q0 16 78 44q44 16 61 35q21 23 40 63.5t30 85.5h-89v18h91q15 68 36.5 116.5t53.5 77.5
q50 47 130 47q41 0 72 -26t31 -65z" />
    <glyph glyph-name="sterling" unicode="&#x408;" horiz-adv-x="511" 
d="M534 397q0 -44 -21 -75t-51 -31q-23 0 -35.5 11t-12.5 25q0 26 13 34.5t35 8.5q29 0 38.5 9.5t9.5 29.5q0 22 -21 40t-52 18q-45 0 -73.5 -26.5t-49.5 -79.5q-17 -43 -34 -114h87v-18h-91q-13 -44 -41 -83q-33 -45 -90 -85q21 0 41.5 -2t44.5 -8q40 -12 61 -17
q64 -17 76 -17q28 0 44 20q10 12 23 47l6 -2q6 -5 6 -11q0 -43 -29 -82q-32 -44 -76 -44q-41 0 -93 30l-114 66q-14 0 -49 -23q-26 -17 -51 -29q-6 -3 -14 -3q-9 0 -15 4t-6 11q0 16 78 44q44 16 61 35q21 23 40 63.5t30 85.5h-89v18h91q15 68 36.5 116.5t53.5 77.5
q50 47 130 47q41 0 72 -26t31 -65z" />
    <glyph glyph-name="currency" unicode="&#xa4;" horiz-adv-x="654" 
d="M324 468q-95 0 -162.5 -67.5t-67.5 -162.5t67 -163t163 -68q95 0 163 68t68 163q0 94 -68 162t-163 68zM575 0l-14 -14l-67 67q-34 -32 -78 -49.5t-92 -17.5q-49 0 -92 17t-78 49l-66 -66l-14 14l66 66q-31 34 -48.5 78t-17.5 93t17 92t49 79l-66 66l14 14l66 -66
q34 31 78 48.5t92 17.5q51 0 92.5 -16.5t77.5 -50.5l67 67l14 -14l-67 -67q32 -35 49.5 -78t17.5 -92t-17.5 -92t-49.5 -78z" />
    <glyph glyph-name="yen" unicode="&#xa5;" horiz-adv-x="986" 
d="M611 3q18 22 37 53q3 5 65 114h-57q-6 -51 -17 -89q-6 -20 -28 -78zM659 227l-1 -35h68l20 35h-87zM505 227v22h109q-17 146 -95 244q-82 103 -195 103q-51 0 -86 -33t-35 -83q0 -54 58 -106q66 -59 156 -59q38 0 62 16q15 10 34 34q2 3 5 0q7 -8 3 -15q-22 -38 -66 -53
q-29 -10 -72 -10q-83 0 -144 54t-61 123q0 71 51.5 117.5t138.5 46.5q112 0 194 -82q98 -98 98 -274v-23h99q29 50 69.5 112.5t98.5 147.5q-43 9 -85.5 14.5t-88.5 5.5q-58 0 -83 -29q-17 -33 -20 -39h-8l-2 12q0 31 56 76q42 34 94 34q35 0 86 -11t78 -11q62 65 83 81
q32 24 56 24q10 0 18.5 -8.5t8.5 -20.5q0 -72 -68 -107q-48 -25 -105 -25q-41 -53 -161 -256h131v-22h-144l-20 -35h164v-22h-177l-21 -34q-87 -145 -122 -194q-71 -98 -144 -145q-88 -57 -201 -57q-94 0 -162 49q-73 53 -73 136q0 100 83 181q93 91 234 91q67 0 119 -34.5
t52 -92.5t-57 -113q-68 -66 -165 -66q-52 0 -95 26q-48 29 -48 74q0 19 7 32.5t28 30.5q3 2 8.5 -2t2.5 -7q-15 -11 -21.5 -23.5t-6.5 -30.5q0 -28 26 -52q33 -30 90 -30q76 0 132.5 46.5t56.5 113.5q0 40 -32 70q-37 35 -100 35q-106 0 -184 -66.5t-78 -168.5
q0 -89 65 -137q55 -41 135 -41q88 0 171 51q63 39 99 88q33 45 54 111q25 78 25 159h-113v22h113l-2 35h-111zM988 561q44 0 79 24t35 51q0 13 -12 13q-23 0 -57 -33q-25 -25 -45 -55z" />
    <glyph glyph-name="yen" unicode="&#x490;" horiz-adv-x="986" 
d="M611 3q18 22 37 53q3 5 65 114h-57q-6 -51 -17 -89q-6 -20 -28 -78zM659 227l-1 -35h68l20 35h-87zM505 227v22h109q-17 146 -95 244q-82 103 -195 103q-51 0 -86 -33t-35 -83q0 -54 58 -106q66 -59 156 -59q38 0 62 16q15 10 34 34q2 3 5 0q7 -8 3 -15q-22 -38 -66 -53
q-29 -10 -72 -10q-83 0 -144 54t-61 123q0 71 51.5 117.5t138.5 46.5q112 0 194 -82q98 -98 98 -274v-23h99q29 50 69.5 112.5t98.5 147.5q-43 9 -85.5 14.5t-88.5 5.5q-58 0 -83 -29q-17 -33 -20 -39h-8l-2 12q0 31 56 76q42 34 94 34q35 0 86 -11t78 -11q62 65 83 81
q32 24 56 24q10 0 18.5 -8.5t8.5 -20.5q0 -72 -68 -107q-48 -25 -105 -25q-41 -53 -161 -256h131v-22h-144l-20 -35h164v-22h-177l-21 -34q-87 -145 -122 -194q-71 -98 -144 -145q-88 -57 -201 -57q-94 0 -162 49q-73 53 -73 136q0 100 83 181q93 91 234 91q67 0 119 -34.5
t52 -92.5t-57 -113q-68 -66 -165 -66q-52 0 -95 26q-48 29 -48 74q0 19 7 32.5t28 30.5q3 2 8.5 -2t2.5 -7q-15 -11 -21.5 -23.5t-6.5 -30.5q0 -28 26 -52q33 -30 90 -30q76 0 132.5 46.5t56.5 113.5q0 40 -32 70q-37 35 -100 35q-106 0 -184 -66.5t-78 -168.5
q0 -89 65 -137q55 -41 135 -41q88 0 171 51q63 39 99 88q33 45 54 111q25 78 25 159h-113v22h113l-2 35h-111zM988 561q44 0 79 24t35 51q0 13 -12 13q-23 0 -57 -33q-25 -25 -45 -55z" />
    <glyph glyph-name="brokenbar" unicode="&#xa6;" horiz-adv-x="164" 
d="M111 -14q-5 0 -8 3.5t-4 4.5v215q0 6 12 6t12 -6v-215q-7 -8 -12 -8zM111 259q-5 0 -10 5q-1 1 -2 3v215q0 6 12 6t12 -6v-215q-7 -8 -12 -8z" />
    <glyph glyph-name="section" unicode="&#xa7;" horiz-adv-x="349" 
d="M112 -10q-40 0 -73.5 22t-33.5 56q0 22 15 39t35 17q36 0 36 -33q0 -11 -7.5 -21.5t-19.5 -10.5q-14 6 -22 6q-9 0 -9 -13q0 -18 20 -33t50 -15q32 0 57 17.5t25 46.5q0 23 -14 42.5t-42 38t-41 41.5t-13 55q0 46 37 73q25 18 62 24q-9 18 -9 40q0 54 48 80q33 18 64 18
q44 0 67 -18.5t23 -47.5q0 -21 -11.5 -34.5t-31.5 -13.5q-15 0 -23 8t-8 20q0 10 7.5 19.5t17.5 9.5q11 -6 17 -6q8 0 8 12q0 20 -19.5 28.5t-40.5 8.5q-29 0 -47.5 -20.5t-18.5 -34.5q0 -27 53 -77t53 -96q0 -30 -19 -60q-26 -40 -75 -49q4 -12 4 -28q0 -50 -40 -84
q-32 -27 -81 -27zM127 274q0 -27 53 -78q31 -30 42 -51q23 7 38 23t15 37q0 27 -35 61q-50 48 -59 62q-24 -4 -39 -22.5t-15 -31.5z" />
    <glyph glyph-name="dieresis" unicode="&#xa8;" horiz-adv-x="600" 
d="M686 550q0 -29 -16 -51q-19 -26 -52 -26q-21 0 -35.5 12.5t-14.5 31.5q0 15 10 26t27 11q10 0 17 -3.5t16 -7.5q15 0 15 27q0 26 -29 50q-34 28 -90 28q-89 0 -158.5 -53t-69.5 -126q0 -48 33 -67q25 -14 75 -14q21 0 40 1l38 2q40 0 40 -20q0 -14 -23 -18q-7 -1 -22 -1
q-26 0 -50.5 2.5t-62.5 7.5q-143 -18 -222 -118q-65 -82 -65 -180q0 -64 45 -96q38 -27 98 -27q124 0 218 114q80 97 80 177q0 32 -22 53t-54 21q-63 0 -133 -66q-76 -72 -76 -152q0 -25 15 -44q9 -11 32 -27q2 -2 -2 -4.5t-6 -1.5q-32 11 -55 33q-27 26 -27 56q0 66 66 137
q77 83 181 83q58 0 96 -38q32 -32 32 -81q0 -84 -83 -172q-101 -108 -251 -108q-90 0 -152 45q-69 50 -69 139q0 97 74 165q53 49 146 81q16 6 97 27q-42 15 -66 36q-38 34 -38 87q0 66 73 114q77 51 189 51q86 0 134 -25q57 -30 57 -91zM526 761q0 -22 -15 -44t-33 -22
q-13 0 -17.5 9.5t-4.5 21.5q0 16 16 40.5t31 24.5q11 0 17 -9t6 -21zM615 761q0 -22 -15 -44t-33 -22q-13 0 -17.5 9.5t-4.5 21.5q0 16 16 40.5t31 24.5q11 0 17 -9t6 -21z" />
    <glyph glyph-name="dieresis" unicode="&#x401;" horiz-adv-x="600" 
d="M686 550q0 -29 -16 -51q-19 -26 -52 -26q-21 0 -35.5 12.5t-14.5 31.5q0 15 10 26t27 11q10 0 17 -3.5t16 -7.5q15 0 15 27q0 26 -29 50q-34 28 -90 28q-89 0 -158.5 -53t-69.5 -126q0 -48 33 -67q25 -14 75 -14q21 0 40 1l38 2q40 0 40 -20q0 -14 -23 -18q-7 -1 -22 -1
q-26 0 -50.5 2.5t-62.5 7.5q-143 -18 -222 -118q-65 -82 -65 -180q0 -64 45 -96q38 -27 98 -27q124 0 218 114q80 97 80 177q0 32 -22 53t-54 21q-63 0 -133 -66q-76 -72 -76 -152q0 -25 15 -44q9 -11 32 -27q2 -2 -2 -4.5t-6 -1.5q-32 11 -55 33q-27 26 -27 56q0 66 66 137
q77 83 181 83q58 0 96 -38q32 -32 32 -81q0 -84 -83 -172q-101 -108 -251 -108q-90 0 -152 45q-69 50 -69 139q0 97 74 165q53 49 146 81q16 6 97 27q-42 15 -66 36q-38 34 -38 87q0 66 73 114q77 51 189 51q86 0 134 -25q57 -30 57 -91zM526 761q0 -22 -15 -44t-33 -22
q-13 0 -17.5 9.5t-4.5 21.5q0 16 16 40.5t31 24.5q11 0 17 -9t6 -21zM615 761q0 -22 -15 -44t-33 -22q-13 0 -17.5 9.5t-4.5 21.5q0 16 16 40.5t31 24.5q11 0 17 -9t6 -21z" />
    <glyph glyph-name="copyright" unicode="&#xa9;" horiz-adv-x="560" 
d="M222 63q-50 0 -69.5 23.5t-19.5 70.5q0 39 22 85t53 82q22 27 60 53q57 40 103 40q24 0 41 -15t17 -44q0 -44 -40 -90q-44 -51 -93 -51q-19 0 -32.5 12.5t-13.5 31.5q0 40 38 70q33 26 60 26q14 0 22 -11q1 -2 -5 -8q-9 5 -15 5q-25 0 -53.5 -29.5t-28.5 -57.5
q0 -13 7.5 -19t20.5 -6q31 0 71.5 53.5t40.5 93.5q0 12 -7.5 18.5t-32.5 6.5q-21 0 -54 -21q-47 -30 -92 -91q-21 -26 -45 -81q-20 -46 -20 -74q0 -59 67 -59q29 0 53 16q19 12 40 38q14 17 31 43q14 21 15 23q1 1 4 -1t7 -5q-5 -11 -14 -24.5t-33 -44.5q-18 -23 -43 -39
q-32 -20 -62 -20zM290 -14q-105 0 -178 73t-73 178t73 178t178 73t178 -73t73 -178t-73 -178t-178 -73zM290 8q95 0 162 67t67 162t-67 162t-162 67t-162 -67t-67 -162t67 -162t162 -67z" />
    <glyph glyph-name="ordfeminine" unicode="&#xaa;" horiz-adv-x="287" 
d="M228 461l13 31h47l-84 -199q-4 -9 -4 -26q0 -11 3.5 -17t12.5 -6q22 0 41 30q12 18 20 44q3 6 7 6q6 0 4 -7q-7 -36 -31 -64q-19 -23 -41 -23q-19 0 -28.5 17.5t-9.5 41.5q0 11 1.5 23t8.5 35q-37 -57 -45 -67q-39 -50 -67 -50q-21 0 -31.5 18t-10.5 45q0 63 56 134
t104 71q18 0 25 -10t9 -27zM77 244q16 0 51 41q27 31 39 51q23 38 35 69.5t12 44.5q0 19 -5.5 26.5t-14.5 7.5q-10 0 -22 -16q-18 -23 -58 -95q-17 -29 -33 -64t-16 -49q0 -16 12 -16z" />
    <glyph glyph-name="ordfeminine" unicode="&#x404;" horiz-adv-x="287" 
d="M228 461l13 31h47l-84 -199q-4 -9 -4 -26q0 -11 3.5 -17t12.5 -6q22 0 41 30q12 18 20 44q3 6 7 6q6 0 4 -7q-7 -36 -31 -64q-19 -23 -41 -23q-19 0 -28.5 17.5t-9.5 41.5q0 11 1.5 23t8.5 35q-37 -57 -45 -67q-39 -50 -67 -50q-21 0 -31.5 18t-10.5 45q0 63 56 134
t104 71q18 0 25 -10t9 -27zM77 244q16 0 51 41q27 31 39 51q23 38 35 69.5t12 44.5q0 19 -5.5 26.5t-14.5 7.5q-10 0 -22 -16q-18 -23 -58 -95q-17 -29 -33 -64t-16 -49q0 -16 12 -16z" />
    <glyph glyph-name="guillemotleft" unicode="&#xab;" horiz-adv-x="340" 
d="M37 175v26q0 11 14 16q31 14 50 26t67 51l9.5 9.5t8.5 4.5q7 0 14 -16.5t7 -25.5q0 -12 -8 -20q-20 -16 -53 -33q-63 -33 -65 -34q15 -26 32 -49q24 -32 49 -49q6 -4 8 -7q0 -2 1 -3q0 -9 -3 -17t-8 -8l-8 4q-45 37 -65 60t-40 48q-10 12 -10 17zM160 162v26
q0 6 6.5 10.5t7.5 5.5q39 23 50 30q16 11 41 32l9.5 9.5t8.5 4.5q7 0 14 -16.5t7 -25.5q0 -12 -8 -20q-22 -17 -59 -33q-30 -13 -44 -19q11 -21 41 -52q19 -20 28 -29l8 -8q0 -1 1 -2q0 -9 -3 -17t-8 -8l-8 4q-29 29 -47 49q-14 16 -35 42q-10 12 -10 17z" />
    <glyph glyph-name="logicalnot" unicode="&#xac;" horiz-adv-x="277" 
d="M15 168v24h244v-122h-24v98h-220z" />
    <glyph glyph-name="minus" unicode="&#xad;" horiz-adv-x="159" 
d="M20 192h122v-24h-122v24z" />
    <glyph glyph-name="registered" unicode="&#xae;" horiz-adv-x="549" 
d="M273 -14q-105 0 -178 73t-73 178t73 178t178 73t178 -73t73 -178t-73 -178t-178 -73zM273 8q95 0 162 67t67 162t-67 162t-162 67t-162 -67t-67 -162t67 -162t162 -67zM360 351q17 -5 31 -16q21 -17 21 -43q0 -35 -27 -52q-19 -12 -40 -12q11 -5 17.5 -14.5t6.5 -34.5
v-35q2 -27 11 -27q10 0 17 13t10 29q1 5 5 4t4 -7q0 -16 -10 -34.5t-26 -18.5q-18 0 -30 16.5t-12 56.5q0 52 -16 52h-11q-1 2 0.5 8t5.5 6l14 -1q23 0 37 19t14 40q0 19 -10 30q-6 7 -19 11q-33 -31 -53 -98q-14 -47 -23 -66q-17 -37 -55 -57q-32 -17 -66 -17q-31 0 -53 13
q-27 16 -27 47q0 12 9 22t20 10q7 0 14.5 -6.5t7.5 -14.5q0 -6 -6 -12t-13 -6q-6 0 -8.5 3t-2.5 4q-3 -3 -3 -9q0 -12 15 -24.5t47 -12.5q26 0 49 13q19 13 34 39q3 5 42 95q10 21 25 43t31 38q-15 4 -30 4q-46 0 -88 -27q-48 -31 -48 -75q0 -8 6 -15.5t20 -7.5
q19 0 37.5 17.5t18.5 38.5q0 15 -5 23q-2 3 1.5 5.5t6.5 0.5q14 -9 14 -30q0 -22 -14 -42q-19 -27 -53 -27q-22 0 -37 14t-15 36q0 42 40.5 71.5t98.5 29.5q12 0 26.5 -2t28.5 -4q17 15 32 22.5t31 7.5q11 0 22.5 -6t11.5 -16q0 -20 -18 -20q-17 0 -17 14q0 4 2.5 7t2.5 4
q-6 3 -12 3q-9 0 -19 -4.5t-21 -15.5z" />
    <glyph glyph-name="macron" unicode="&#xaf;" horiz-adv-x="153" 
d="M82 480h122v-24h-122v24z" />
    <glyph glyph-name="macron" unicode="&#x407;" horiz-adv-x="153" 
d="M82 480h122v-24h-122v24z" />
    <glyph glyph-name="degree" unicode="&#xb0;" horiz-adv-x="321" 
d="M191 220q-55 0 -94 39t-39 95t39 95t94 39q54 0 94 -39t40 -95t-39 -95t-95 -39zM191 234q51 0 85.5 34.5t34.5 85.5q0 50 -35 85t-85 35q-51 0 -85 -34t-34 -86q0 -51 34.5 -85.5t84.5 -34.5z" />
    <glyph glyph-name="plusminus" unicode="&#xb1;" horiz-adv-x="277" 
d="M148 300v-108h111v-24h-111v-108h-24v108h-109v24h109v108h24zM15 24h244v-24h-244v24z" />
    <glyph glyph-name="twosuperior" unicode="&#xb2;" horiz-adv-x="266" 
d="M197 360q-19 0 -51 24q-16 12 -27 12q-16 0 -21 -6.5t-8 -22.5q0 -7 -7 -7q-9 0 -9 8q3 20 16.5 45t37.5 41q7 5 37 20.5t38 23.5q15 12 27.5 40t12.5 51t-25 23q-17 0 -29 -9t-12 -23q0 -1 11 -6t11 -16q0 -9 -8.5 -18.5t-19.5 -9.5q-10 0 -18.5 9.5t-8.5 18.5
q0 30 28 52q23 18 54 18q22 0 42.5 -15.5t20.5 -43.5q0 -66 -80 -97q-27 -9 -43 -15t-27 -14t-22 -20l-7 -7q0 -1 7.5 1.5t23.5 2.5q15 -3 33.5 -6.5t29.5 -3.5q22 0 31 12q4 6 7 17t9 11q10 0 8 -9q-6 -30 -14 -46q-18 -35 -48 -35z" />
    <glyph glyph-name="twosuperior" unicode="&#x406;" horiz-adv-x="266" 
d="M197 360q-19 0 -51 24q-16 12 -27 12q-16 0 -21 -6.5t-8 -22.5q0 -7 -7 -7q-9 0 -9 8q3 20 16.5 45t37.5 41q7 5 37 20.5t38 23.5q15 12 27.5 40t12.5 51t-25 23q-17 0 -29 -9t-12 -23q0 -1 11 -6t11 -16q0 -9 -8.5 -18.5t-19.5 -9.5q-10 0 -18.5 9.5t-8.5 18.5
q0 30 28 52q23 18 54 18q22 0 42.5 -15.5t20.5 -43.5q0 -66 -80 -97q-27 -9 -43 -15t-27 -14t-22 -20l-7 -7q0 -1 7.5 1.5t23.5 2.5q15 -3 33.5 -6.5t29.5 -3.5q22 0 31 12q4 6 7 17t9 11q10 0 8 -9q-6 -30 -14 -46q-18 -35 -48 -35z" />
    <glyph glyph-name="threesuperior" unicode="&#xb3;" horiz-adv-x="266" 
d="M140 360q-28 0 -47 12.5t-19 36.5q0 16 10.5 30t26.5 14q28 0 28 -23q0 -10 -7 -17.5t-16 -7.5q-5 0 -8 2t-6 5q-7 0 -7 -12t10 -18t28 -6q31 0 49 38q14 29 14 56q0 17 -7.5 21.5t-24.5 4.5l-32 1q-4 0 -4 6t4 8q4 1 13 1t16.5 -1t15.5 -2q14 0 28 13q9 8 19.5 30
t10.5 40q0 9 -7.5 14.5t-16.5 5.5q-14 0 -29 -8t-15 -22q0 -2 11.5 -6t11.5 -18q0 -11 -8.5 -18.5t-18.5 -7.5q-12 0 -20.5 9.5t-8.5 20.5q0 21 22 42q26 24 59 24q26 0 45.5 -13.5t19.5 -36.5q0 -33 -20.5 -52.5t-44.5 -23.5q12 -5 20 -20t8 -33q0 -34 -28.5 -61.5
t-74.5 -27.5z" />
    <glyph glyph-name="threesuperior" unicode="&#x456;" horiz-adv-x="266" 
d="M140 360q-28 0 -47 12.5t-19 36.5q0 16 10.5 30t26.5 14q28 0 28 -23q0 -10 -7 -17.5t-16 -7.5q-5 0 -8 2t-6 5q-7 0 -7 -12t10 -18t28 -6q31 0 49 38q14 29 14 56q0 17 -7.5 21.5t-24.5 4.5l-32 1q-4 0 -4 6t4 8q4 1 13 1t16.5 -1t15.5 -2q14 0 28 13q9 8 19.5 30
t10.5 40q0 9 -7.5 14.5t-16.5 5.5q-14 0 -29 -8t-15 -22q0 -2 11.5 -6t11.5 -18q0 -11 -8.5 -18.5t-18.5 -7.5q-12 0 -20.5 9.5t-8.5 20.5q0 21 22 42q26 24 59 24q26 0 45.5 -13.5t19.5 -36.5q0 -33 -20.5 -52.5t-44.5 -23.5q12 -5 20 -20t8 -33q0 -34 -28.5 -61.5
t-74.5 -27.5z" />
    <glyph glyph-name="mu" unicode="&#xb5;" horiz-adv-x="336" 
d="M266 336h62l-109 -267q-4 -9 -5 -18t-1 -16q0 -31 19 -31q29 0 55 42q15 24 27 60q3 7 8 7q8 0 6 -8q-9 -36 -28 -67q-30 -48 -68 -48q-24 0 -36 22.5t-12 56.5q0 26 6 51q6 19 8 26q-48 -85 -57 -99q-38 -57 -65 -57q-16 0 -28 14l-35 -78q-32 -80 -103.5 -133
t-156.5 -53q-30 0 -52 11t-22 34q0 15 10.5 24.5t29.5 9.5q14 0 24.5 -8.5t10.5 -22.5q0 -6 -4 -10q-9 -10 -9 -13q0 -5 10 -8t21 -3q47 0 97.5 49t81.5 123l140 308q10 22 17 41.5t7 30.5q0 23 -12 23q-21 0 -45 -39.5t-33 -74.5q-1 -4 -8 -3t-6 6q9 42 30 77q29 48 63 48
q20 0 30 -17q14 -23 14 -71q0 -27 -7 -50.5t-22 -53.5l-52 -117q-3 -8 -3 -13q0 -17 18 -17q17 0 53 58q29 47 58 109z" />
    <glyph glyph-name="paragraph" unicode="&#xb6;" horiz-adv-x="312" 
d="M229 268l16 47q12 35 36 66q2 3 11 3q6 -4 5 -6q-12 -17 -18 -29.5t-12 -29.5l-17 -53q4 -1 12 -1q6 0 17 1t16 1q3 1 4 -4t-3 -5q-10 -2 -28 -2q-14 0 -21 1l-113 -331q-1 -2 -2.5 -3t-2.5 -2q-6 0 -11.5 4t-3.5 9l112 323q-7 0 -15 0.5t-22 3.5l-113 -335l-5 -5
q-6 0 -11.5 4t-3.5 9l112 331q-38 13 -55 24q-46 31 -46 79q0 61 62 94q49 26 115 26q32 0 55.5 -1t47.5 -2q15 10 31 20t37 10q6 0 12 -4t6 -9q0 -14 -37 -20q-12 -2 -37 -3q-116 -33 -166 -207q9 -2 17 -3t19 -1zM324 475q-120 0 -177 -40q-45 -32 -45 -82q0 -29 25 -52
q20 -18 45 -25q31 90 72 138q30 34 80 61z" />
    <glyph glyph-name="cedilla" unicode="&#xb8;" horiz-adv-x="278" 
d="M276 291q0 -62 -51 -94q-41 -26 -97 -26l-28 2q-18 -38 -28.5 -69t-10.5 -47q0 -49 49 -49q38 0 69 39q12 16 30 47q14 26 18 33q1 3 7 1t5 -6q-12 -26 -25.5 -49t-27.5 -41q-32 -42 -81 -42q-44 0 -69.5 28.5t-25.5 73.5q0 87 67 169t141 82q58 0 58 -52zM223 307
q0 22 -15 22q-25 0 -60 -59q-8 -13 -41 -82l17 -1q52 0 79 48q20 35 20 72zM223 458q0 -22 -15 -44t-33 -22q-13 0 -17.5 9.5t-4.5 21.5q0 16 16 40.5t31 24.5q11 0 17 -9t6 -21zM312 458q0 -22 -15 -44t-33 -22q-13 0 -17.5 9.5t-4.5 21.5q0 16 16 40.5t31 24.5q11 0 17 -9
t6 -21z" />
    <glyph glyph-name="cedilla" unicode="&#x451;" horiz-adv-x="278" 
d="M276 291q0 -62 -51 -94q-41 -26 -97 -26l-28 2q-18 -38 -28.5 -69t-10.5 -47q0 -49 49 -49q38 0 69 39q12 16 30 47q14 26 18 33q1 3 7 1t5 -6q-12 -26 -25.5 -49t-27.5 -41q-32 -42 -81 -42q-44 0 -69.5 28.5t-25.5 73.5q0 87 67 169t141 82q58 0 58 -52zM223 307
q0 22 -15 22q-25 0 -60 -59q-8 -13 -41 -82l17 -1q52 0 79 48q20 35 20 72zM223 458q0 -22 -15 -44t-33 -22q-13 0 -17.5 9.5t-4.5 21.5q0 16 16 40.5t31 24.5q11 0 17 -9t6 -21zM312 458q0 -22 -15 -44t-33 -22q-13 0 -17.5 9.5t-4.5 21.5q0 16 16 40.5t31 24.5q11 0 17 -9
t6 -21z" />
    <glyph glyph-name="onesuperior" unicode="&#xb9;" horiz-adv-x="1095" 
d="M689 550l-2 2q-40 -57 -87 -133l-86 -144q-53 -88 -94 -147q-96 -142 -245 -142q-64 0 -112 31q-53 34 -53 87q0 37 18 65t52 28q19 0 35 -14t16 -35q0 -12 -12.5 -24.5t-28.5 -12.5t-21 16.5t-10 16.5q-15 0 -21.5 -14t-6.5 -34q0 -46 49 -72q41 -22 102 -22
q65 0 133 51q85 64 165 200q45 79 74 127q40 68 71 113q37 55 76 103q-26 0 -102 8t-105 8q-119 0 -223.5 -82.5t-104.5 -179.5q0 -22 28.5 -44t63.5 -22q61 0 122 67q56 61 56 105q0 16 -2.5 20.5t-13.5 19.5q-2 3 2.5 6t7.5 1q14 -9 22 -20q13 -19 13 -47q0 -52 -49 -104
q-60 -64 -150 -64q-59 0 -94 36t-35 94q0 115 109 180q83 50 167 50q71 0 144.5 -5t158.5 -11q47 54 81 54q16 0 16 -13q0 -10 -22.5 -26t-60.5 -36q-13 -17 -16.5 -36.5t-3.5 -44.5q0 -51 25 -191q12 -67 12 -114q0 -65 -12 -142q16 55 32 111q32 102 66 183q46 109 97 180
q26 36 62.5 63.5t64.5 27.5q63 0 63 -45q0 -16 -12 -29t-30 -13q-38 0 -38 32q0 11 18.5 18t18.5 11q0 7 -5 8.5t-19 1.5q-66 0 -153 -160q-77 -141 -123 -308q-14 -48 -25.5 -99t-13.5 -56q-6 -3 -9 -3q-19 0 -19 10v59q0 43 -41 196q-20 75 -20 127q0 61 10 100.5t30 71.5
zM906 64q-41 0 -56.5 19t-15.5 54q0 75 51 135t105 60q31 0 48 -14q21 -18 21 -61q0 -51 -42 -116q-50 -77 -111 -77zM903 78q38 0 76 92q32 78 32 116q0 17 -5.5 24.5t-15.5 7.5q-35 0 -76 -91q-37 -81 -37 -116q0 -15 8 -24t18 -9zM818 24h198v-24h-198v24z" />
    <glyph glyph-name="onesuperior" unicode="&#x2116;" horiz-adv-x="1095" 
d="M689 550l-2 2q-40 -57 -87 -133l-86 -144q-53 -88 -94 -147q-96 -142 -245 -142q-64 0 -112 31q-53 34 -53 87q0 37 18 65t52 28q19 0 35 -14t16 -35q0 -12 -12.5 -24.5t-28.5 -12.5t-21 16.5t-10 16.5q-15 0 -21.5 -14t-6.5 -34q0 -46 49 -72q41 -22 102 -22
q65 0 133 51q85 64 165 200q45 79 74 127q40 68 71 113q37 55 76 103q-26 0 -102 8t-105 8q-119 0 -223.5 -82.5t-104.5 -179.5q0 -22 28.5 -44t63.5 -22q61 0 122 67q56 61 56 105q0 16 -2.5 20.5t-13.5 19.5q-2 3 2.5 6t7.5 1q14 -9 22 -20q13 -19 13 -47q0 -52 -49 -104
q-60 -64 -150 -64q-59 0 -94 36t-35 94q0 115 109 180q83 50 167 50q71 0 144.5 -5t158.5 -11q47 54 81 54q16 0 16 -13q0 -10 -22.5 -26t-60.5 -36q-13 -17 -16.5 -36.5t-3.5 -44.5q0 -51 25 -191q12 -67 12 -114q0 -65 -12 -142q16 55 32 111q32 102 66 183q46 109 97 180
q26 36 62.5 63.5t64.5 27.5q63 0 63 -45q0 -16 -12 -29t-30 -13q-38 0 -38 32q0 11 18.5 18t18.5 11q0 7 -5 8.5t-19 1.5q-66 0 -153 -160q-77 -141 -123 -308q-14 -48 -25.5 -99t-13.5 -56q-6 -3 -9 -3q-19 0 -19 10v59q0 43 -41 196q-20 75 -20 127q0 61 10 100.5t30 71.5
zM906 64q-41 0 -56.5 19t-15.5 54q0 75 51 135t105 60q31 0 48 -14q21 -18 21 -61q0 -51 -42 -116q-50 -77 -111 -77zM903 78q38 0 76 92q32 78 32 116q0 17 -5.5 24.5t-15.5 7.5q-35 0 -76 -91q-37 -81 -37 -116q0 -15 8 -24t18 -9zM818 24h198v-24h-198v24z" />
    <glyph glyph-name="ordmasculine" unicode="&#xba;" horiz-adv-x="261" 
d="M134 230q-41 0 -62 24.5t-21 61.5q0 50 39 109q49 73 121 73q35 0 52.5 -19.5t17.5 -50.5q0 -53 -33 -115q-44 -83 -114 -83zM209 484q-37 0 -78 -88q-36 -77 -36 -111q0 -17 8 -29t25 -12q38 0 78 97q34 82 34 110q0 14 -4 21q-7 12 -27 12z" />
    <glyph glyph-name="ordmasculine" unicode="&#x454;" horiz-adv-x="261" 
d="M134 230q-41 0 -62 24.5t-21 61.5q0 50 39 109q49 73 121 73q35 0 52.5 -19.5t17.5 -50.5q0 -53 -33 -115q-44 -83 -114 -83zM209 484q-37 0 -78 -88q-36 -77 -36 -111q0 -17 8 -29t25 -12q38 0 78 97q34 82 34 110q0 14 -4 21q-7 12 -27 12z" />
    <glyph glyph-name="guillemotright" unicode="&#xbb;" horiz-adv-x="283" 
d="M268 188v-26q0 -6 -6.5 -10.5t-7.5 -5.5q-25 -13 -47 -32t-50 -52q-5 -7 -9 -11.5t-9 -4.5t-11 12q-10 21 -10 38q0 5 3 11t5 9q20 22 42 37q15 10 56 31q-9 26 -22 44t-42 43l-6.5 6.5t-2.5 3.5q0 9 3 17t8 8l8 -4q34 -30 56 -57q11 -14 32 -40q10 -12 10 -17zM167 207
v-26q0 -6 -6.5 -10.5t-7.5 -5.5q-39 -23 -50 -30q-16 -11 -41 -32l-9.5 -9.5t-8.5 -4.5q-7 0 -14 16.5t-7 25.5q0 12 8 20q22 17 55.5 31.5t47.5 20.5q-12 21 -18.5 28t-25.5 22q-6 5 -7.5 7t-1.5 3q0 9 3 17t8 8l8 -4q20 -18 32 -30q9 -9 25 -30q10 -12 10 -17z" />
    <glyph glyph-name="onequarter" unicode="&#xbc;" horiz-adv-x="454" 
d="M59 0q-7 0 -10 6t0 9l334 448l5 3q5 0 9 -5t1 -10l-332 -447q-1 -2 -7 -4zM298 0l-54 -3q-8 0 -8 8q0 9 8 9q22 0 31 5q4 5 6 11l19 47h-68q-5 0 -7 7t1 11q20 25 54 60q82 85 102 109h41l-62 -156h33v-31h-43l-19 -49q-3 -12 3 -13l19 -1q6 -2 6 -8q0 -9 -10 -9
q-6 0 -27 1.5t-25 1.5zM311 108l35 87q-42 -44 -83 -87h48zM97 223l-52 -3q-7 0 -7 8t7 8q22 0 30 5q4 5 6 11l65 168l3 11q0 15 -14 15h-13q-6 0 -6 6q0 9 8 9h22q24 0 35.5 6t22.5 12l4 1q7 -2 7 -6l-2 -4l-82 -220q-5 -11 3 -13l18 -1q6 -2 6 -7q0 -9 -10 -9
q-5 0 -26 1.5t-25 1.5z" />
    <glyph glyph-name="onequarter" unicode="&#x458;" horiz-adv-x="454" 
d="M59 0q-7 0 -10 6t0 9l334 448l5 3q5 0 9 -5t1 -10l-332 -447q-1 -2 -7 -4zM298 0l-54 -3q-8 0 -8 8q0 9 8 9q22 0 31 5q4 5 6 11l19 47h-68q-5 0 -7 7t1 11q20 25 54 60q82 85 102 109h41l-62 -156h33v-31h-43l-19 -49q-3 -12 3 -13l19 -1q6 -2 6 -8q0 -9 -10 -9
q-6 0 -27 1.5t-25 1.5zM311 108l35 87q-42 -44 -83 -87h48zM97 223l-52 -3q-7 0 -7 8t7 8q22 0 30 5q4 5 6 11l65 168l3 11q0 15 -14 15h-13q-6 0 -6 6q0 9 8 9h22q24 0 35.5 6t22.5 12l4 1q7 -2 7 -6l-2 -4l-82 -220q-5 -11 3 -13l18 -1q6 -2 6 -7q0 -9 -10 -9
q-5 0 -26 1.5t-25 1.5z" />
    <glyph glyph-name="onehalf" unicode="&#xbd;" horiz-adv-x="454" 
d="M59 0q-7 0 -10 6t0 9l334 448l5 3q5 0 9 -5t1 -10l-332 -447q-1 -2 -7 -4zM322 -14q-19 0 -51 24q-16 12 -27 12q-16 0 -21 -6.5t-8 -22.5q0 -7 -7 -7q-9 0 -9 8q3 20 16.5 45t37.5 41q7 5 37 20.5t38 23.5q15 12 27.5 40t12.5 51t-25 23q-17 0 -29 -9t-12 -23
q0 -1 11 -6t11 -16q0 -9 -8.5 -18.5t-19.5 -9.5q-10 0 -18.5 9.5t-8.5 18.5q0 30 28 52q23 18 54 18q22 0 42.5 -15.5t20.5 -43.5q0 -66 -80 -97q-27 -9 -43 -15t-27 -14t-22 -20l-7 -7q0 -1 7.5 1.5t23.5 2.5q15 -3 33.5 -6.5t29.5 -3.5q22 0 31 12q4 6 7 17t9 11
q10 0 8 -9q-6 -30 -14 -46q-18 -35 -48 -35zM97 223l-52 -3q-7 0 -7 8t7 8q22 0 30 5q4 5 6 11l65 168l3 11q0 15 -14 15h-13q-6 0 -6 6q0 9 8 9h22q24 0 35.5 6t22.5 12l4 1q7 -2 7 -6l-2 -4l-82 -220q-5 -11 3 -13l18 -1q6 -2 6 -7q0 -9 -10 -9q-5 0 -26 1.5t-25 1.5z" />
    <glyph glyph-name="onehalf" unicode="&#x405;" horiz-adv-x="454" 
d="M59 0q-7 0 -10 6t0 9l334 448l5 3q5 0 9 -5t1 -10l-332 -447q-1 -2 -7 -4zM322 -14q-19 0 -51 24q-16 12 -27 12q-16 0 -21 -6.5t-8 -22.5q0 -7 -7 -7q-9 0 -9 8q3 20 16.5 45t37.5 41q7 5 37 20.5t38 23.5q15 12 27.5 40t12.5 51t-25 23q-17 0 -29 -9t-12 -23
q0 -1 11 -6t11 -16q0 -9 -8.5 -18.5t-19.5 -9.5q-10 0 -18.5 9.5t-8.5 18.5q0 30 28 52q23 18 54 18q22 0 42.5 -15.5t20.5 -43.5q0 -66 -80 -97q-27 -9 -43 -15t-27 -14t-22 -20l-7 -7q0 -1 7.5 1.5t23.5 2.5q15 -3 33.5 -6.5t29.5 -3.5q22 0 31 12q4 6 7 17t9 11
q10 0 8 -9q-6 -30 -14 -46q-18 -35 -48 -35zM97 223l-52 -3q-7 0 -7 8t7 8q22 0 30 5q4 5 6 11l65 168l3 11q0 15 -14 15h-13q-6 0 -6 6q0 9 8 9h22q24 0 35.5 6t22.5 12l4 1q7 -2 7 -6l-2 -4l-82 -220q-5 -11 3 -13l18 -1q6 -2 6 -7q0 -9 -10 -9q-5 0 -26 1.5t-25 1.5z" />
    <glyph glyph-name="threequarters" unicode="&#xbe;" horiz-adv-x="454" 
d="M83 0q-7 0 -10 6t0 9l334 448l5 3q5 0 9 -5t1 -10l-332 -447q-1 -2 -7 -4zM309 0l-54 -3q-8 0 -8 8q0 9 8 9q22 0 31 5q4 5 6 11l19 47h-68q-5 0 -7 7t1 11q20 25 54 60q82 85 102 109h41l-62 -156h33v-31h-43l-19 -49q-3 -12 3 -13l19 -1q6 -2 6 -8q0 -9 -10 -9
q-6 0 -27 1.5t-25 1.5zM322 108l35 87q-42 -44 -83 -87h48zM108 212q-28 0 -47 12.5t-19 36.5q0 16 10.5 30t26.5 14q28 0 28 -23q0 -10 -7 -17.5t-16 -7.5q-5 0 -8 2t-6 5q-7 0 -7 -12t10 -18t28 -6q31 0 49 38q14 29 14 56q0 17 -7.5 21.5t-24.5 4.5l-32 1q-4 0 -4 6t4 8
q4 1 13 1t16.5 -1t15.5 -2q14 0 28 13q9 8 19.5 30t10.5 40q0 9 -7.5 14.5t-16.5 5.5q-14 0 -29 -8t-15 -22q0 -2 11.5 -6t11.5 -18q0 -11 -8.5 -18.5t-18.5 -7.5q-12 0 -20.5 9.5t-8.5 20.5q0 21 22 42q26 24 59 24q26 0 45.5 -13.5t19.5 -36.5q0 -33 -20.5 -52.5
t-44.5 -23.5q12 -5 20 -20t8 -33q0 -34 -28.5 -61.5t-74.5 -27.5z" />
    <glyph glyph-name="threequarters" unicode="&#x455;" horiz-adv-x="454" 
d="M83 0q-7 0 -10 6t0 9l334 448l5 3q5 0 9 -5t1 -10l-332 -447q-1 -2 -7 -4zM309 0l-54 -3q-8 0 -8 8q0 9 8 9q22 0 31 5q4 5 6 11l19 47h-68q-5 0 -7 7t1 11q20 25 54 60q82 85 102 109h41l-62 -156h33v-31h-43l-19 -49q-3 -12 3 -13l19 -1q6 -2 6 -8q0 -9 -10 -9
q-6 0 -27 1.5t-25 1.5zM322 108l35 87q-42 -44 -83 -87h48zM108 212q-28 0 -47 12.5t-19 36.5q0 16 10.5 30t26.5 14q28 0 28 -23q0 -10 -7 -17.5t-16 -7.5q-5 0 -8 2t-6 5q-7 0 -7 -12t10 -18t28 -6q31 0 49 38q14 29 14 56q0 17 -7.5 21.5t-24.5 4.5l-32 1q-4 0 -4 6t4 8
q4 1 13 1t16.5 -1t15.5 -2q14 0 28 13q9 8 19.5 30t10.5 40q0 9 -7.5 14.5t-16.5 5.5q-14 0 -29 -8t-15 -22q0 -2 11.5 -6t11.5 -18q0 -11 -8.5 -18.5t-18.5 -7.5q-12 0 -20.5 9.5t-8.5 20.5q0 21 22 42q26 24 59 24q26 0 45.5 -13.5t19.5 -36.5q0 -33 -20.5 -52.5
t-44.5 -23.5q12 -5 20 -20t8 -33q0 -34 -28.5 -61.5t-74.5 -27.5z" />
    <glyph glyph-name="questiondown" unicode="&#xbf;" horiz-adv-x="287" 
d="M222 182q0 -42 -69 -117q-119 -129 -130 -144q-70 -93 -70 -176q0 -26 21 -45t50 -19q37 0 63.5 16.5t26.5 40.5q0 6 -19 15t-19 29q0 21 16.5 35.5t38.5 14.5q19 0 31.5 -13.5t12.5 -32.5q0 -38 -40 -77q-47 -46 -111 -46q-55 0 -96 35.5t-41 88.5q0 81 79 159
q74 60 149 121q80 67 80 117q0 4 -3 10t-3 13q0 8 15 8q13 0 15.5 -6t2.5 -27zM231 256q-11 0 -19 10t-8 22q0 22 8 35q12 20 39 20q31 0 31 -30q0 -17 -16 -37t-35 -20z" />
    <glyph glyph-name="questiondown" unicode="&#x457;" horiz-adv-x="287" 
d="M222 182q0 -42 -69 -117q-119 -129 -130 -144q-70 -93 -70 -176q0 -26 21 -45t50 -19q37 0 63.5 16.5t26.5 40.5q0 6 -19 15t-19 29q0 21 16.5 35.5t38.5 14.5q19 0 31.5 -13.5t12.5 -32.5q0 -38 -40 -77q-47 -46 -111 -46q-55 0 -96 35.5t-41 88.5q0 81 79 159
q74 60 149 121q80 67 80 117q0 4 -3 10t-3 13q0 8 15 8q13 0 15.5 -6t2.5 -27zM231 256q-11 0 -19 10t-8 22q0 22 8 35q12 20 39 20q31 0 31 -30q0 -17 -16 -37t-35 -20z" />
    <glyph glyph-name="Agrave" unicode="&#xc0;" horiz-adv-x="870" 
d="M560 259v20h61q19 25 39 50q38 47 89 90q72 61 177 122q-24 8 -95.5 18t-144.5 10q-124 0 -235 -53q-139 -66 -139 -178q0 -31 29 -53t68 -22q79 0 140 68q55 61 55 119q0 26 -7 33q-2 3 0 7t6 3q19 -6 25 -13q10 -12 10 -49q0 -56 -59 -117q-68 -70 -157 -70
q-66 0 -102 38t-36 98q0 90 87 149q98 67 272 67q80 0 157.5 -10.5t158.5 -29.5q20 -2 56.5 14t54.5 16q9 0 18.5 -7.5t9.5 -15.5q0 -19 -30 -26.5t-91 -7.5q-19 -5 -38 -21q-15 -12 -35 -36q-25 -27 -64 -93q-22 -37 -55 -100h80v-20h-87q-16 -24 -38 -82q-27 -73 -32 -127
q0 -22 7.5 -35t27.5 -13q36 0 67 56q15 27 34 84q1 3 7 1.5t4 -11.5q-17 -69 -47 -107.5t-71 -38.5q-29 0 -51 32q-25 36 -25 90q0 31 13 74q10 33 29 77h-62q-43 -51 -86 -101q-39 -39 -107 -90q-49 -36 -103 -57q-64 -25 -128 -25q-82 0 -140 34q-67 39 -67 109
q0 24 21 49t44 25q24 0 33.5 -9.5t9.5 -25.5q0 -15 -10 -27t-27 -12q-11 0 -19.5 7.5t-10.5 7.5q-6 0 -9.5 -9t-3.5 -20q0 -48 48 -80.5t131 -32.5q80 0 153 38q59 31 125 96q43 43 109 123h-44zM891 499q-62 -32 -133 -103q-28 -28 -105 -117h62q37 62 63 96q46 61 114 121
z" />
    <glyph glyph-name="Agrave" unicode="&#x410;" horiz-adv-x="870" 
d="M560 259v20h61q19 25 39 50q38 47 89 90q72 61 177 122q-24 8 -95.5 18t-144.5 10q-124 0 -235 -53q-139 -66 -139 -178q0 -31 29 -53t68 -22q79 0 140 68q55 61 55 119q0 26 -7 33q-2 3 0 7t6 3q19 -6 25 -13q10 -12 10 -49q0 -56 -59 -117q-68 -70 -157 -70
q-66 0 -102 38t-36 98q0 90 87 149q98 67 272 67q80 0 157.5 -10.5t158.5 -29.5q20 -2 56.5 14t54.5 16q9 0 18.5 -7.5t9.5 -15.5q0 -19 -30 -26.5t-91 -7.5q-19 -5 -38 -21q-15 -12 -35 -36q-25 -27 -64 -93q-22 -37 -55 -100h80v-20h-87q-16 -24 -38 -82q-27 -73 -32 -127
q0 -22 7.5 -35t27.5 -13q36 0 67 56q15 27 34 84q1 3 7 1.5t4 -11.5q-17 -69 -47 -107.5t-71 -38.5q-29 0 -51 32q-25 36 -25 90q0 31 13 74q10 33 29 77h-62q-43 -51 -86 -101q-39 -39 -107 -90q-49 -36 -103 -57q-64 -25 -128 -25q-82 0 -140 34q-67 39 -67 109
q0 24 21 49t44 25q24 0 33.5 -9.5t9.5 -25.5q0 -15 -10 -27t-27 -12q-11 0 -19.5 7.5t-10.5 7.5q-6 0 -9.5 -9t-3.5 -20q0 -48 48 -80.5t131 -32.5q80 0 153 38q59 31 125 96q43 43 109 123h-44zM891 499q-62 -32 -133 -103q-28 -28 -105 -117h62q37 62 63 96q46 61 114 121
z" />
    <glyph glyph-name="Aacute" unicode="&#xc1;" horiz-adv-x="1084" 
d="M706 175l-9 -26q-15 -50 -35 -92q-25 -52 -59 -102q-60 -82 -153 -126t-207 -44q-106 0 -172 46q-71 50 -71 140q0 79 75 162q95 104 241 104q63 0 109 -26q56 -32 56 -89q0 -52 -48 -103q-60 -64 -155 -64q-41 0 -74 18q-38 21 -38 56q0 13 5 25q5 2 11 0l-1 -11
q0 -39 24 -50q15 -7 63 -7q70 0 122 46.5t52 101.5q0 39 -35.5 63t-80.5 24q-107 0 -185.5 -71.5t-78.5 -167.5q0 -86 63 -135q59 -46 148 -46q123 0 213 101q66 74 126 219q40 102 81 204q47 103 99 151q40 37 122 69q-58 13 -167.5 28.5t-156.5 15.5q-97 0 -167 -43
q-80 -49 -80 -133q0 -64 55 -107q50 -39 109 -39q31 0 58 10q17 6 38 20q2 2 5 0t0 -7q-7 -14 -28 -24q-32 -15 -87 -15q-82 0 -134.5 37t-52.5 98q0 131 137 195q100 47 227 47q70 0 197 -16t177 -16q40 0 60 3.5t42 18.5q3 2 8 6t7 4l4 -6t2 -9q-2 -3 -3 -5.5t-3 -4.5
q-38 -42 -71.5 -58t-78.5 -16q-22 0 -43 3.5t-42 9.5l7 -11q-47 -10 -91 -59q-51 -55 -87 -147l-9 -23q32 49 94 84t120 35q51 0 85.5 -30.5t34.5 -77.5q0 -139 -74 -233t-182 -94q-44 0 -67.5 25.5t-23.5 70.5q0 90 55 154t132 64q10 0 21 -4.5t16 -6.5q3 -2 2 -6t-3 -3
q-17 4 -33 4q-63 0 -107.5 -67.5t-44.5 -163.5q0 -51 51 -51q83 0 140.5 88.5t57.5 222.5q0 36 -22.5 61.5t-57.5 25.5q-65 0 -133.5 -65.5t-100.5 -159.5z" />
    <glyph glyph-name="Aacute" unicode="&#x411;" horiz-adv-x="1084" 
d="M706 175l-9 -26q-15 -50 -35 -92q-25 -52 -59 -102q-60 -82 -153 -126t-207 -44q-106 0 -172 46q-71 50 -71 140q0 79 75 162q95 104 241 104q63 0 109 -26q56 -32 56 -89q0 -52 -48 -103q-60 -64 -155 -64q-41 0 -74 18q-38 21 -38 56q0 13 5 25q5 2 11 0l-1 -11
q0 -39 24 -50q15 -7 63 -7q70 0 122 46.5t52 101.5q0 39 -35.5 63t-80.5 24q-107 0 -185.5 -71.5t-78.5 -167.5q0 -86 63 -135q59 -46 148 -46q123 0 213 101q66 74 126 219q40 102 81 204q47 103 99 151q40 37 122 69q-58 13 -167.5 28.5t-156.5 15.5q-97 0 -167 -43
q-80 -49 -80 -133q0 -64 55 -107q50 -39 109 -39q31 0 58 10q17 6 38 20q2 2 5 0t0 -7q-7 -14 -28 -24q-32 -15 -87 -15q-82 0 -134.5 37t-52.5 98q0 131 137 195q100 47 227 47q70 0 197 -16t177 -16q40 0 60 3.5t42 18.5q3 2 8 6t7 4l4 -6t2 -9q-2 -3 -3 -5.5t-3 -4.5
q-38 -42 -71.5 -58t-78.5 -16q-22 0 -43 3.5t-42 9.5l7 -11q-47 -10 -91 -59q-51 -55 -87 -147l-9 -23q32 49 94 84t120 35q51 0 85.5 -30.5t34.5 -77.5q0 -139 -74 -233t-182 -94q-44 0 -67.5 25.5t-23.5 70.5q0 90 55 154t132 64q10 0 21 -4.5t16 -6.5q3 -2 2 -6t-3 -3
q-17 4 -33 4q-63 0 -107.5 -67.5t-44.5 -163.5q0 -51 51 -51q83 0 140.5 88.5t57.5 222.5q0 36 -22.5 61.5t-57.5 25.5q-65 0 -133.5 -65.5t-100.5 -159.5z" />
    <glyph glyph-name="Acircumflex" unicode="&#xc2;" horiz-adv-x="754" 
d="M432 -14q-17 0 -53.5 1t-53.5 1h-22t-21 -2q-72 -10 -115 -29l-68 -36q-7 0 -15.5 8.5t-8.5 16.5q0 28 66 47q54 13 108 27q28 10 55 39q40 43 72 123q17 46 28 77q20 54 44 104q48 100 122 170q-18 5 -44 7t-51 2q-149 0 -281 -106q-119 -96 -119 -177q0 -33 22.5 -53.5
t60.5 -20.5q85 0 149 79q54 67 54 123q0 27 -19 46q-3 3 1 7.5t8 1.5q23 -17 31 -34.5t8 -41.5q0 -92 -79 -150q-66 -49 -136 -49q-43 0 -78 23q-52 34 -52 104q0 89 87 169q108 100 282 100q62 0 106.5 -4t65.5 -9q73 44 106 57q54 21 101 21q27 0 53 -12.5t26 -35.5
q0 -19 -9 -30t-31 -11q-19 0 -26.5 8.5t-7.5 19.5q0 5 4 14t4 13q0 8 -12.5 10t-32.5 2q-33 0 -74 -23q-32 -18 -55 -43q79 -28 111 -61q27 -28 27 -65q0 -69 -70 -110q-27 -16 -101 -38q52 -12 76 -28q42 -27 42 -76q0 -81 -90 -131q-81 -45 -195 -45zM617 519
q-52 -63 -125 -236q4 -2 9 -2.5t18 -0.5q62 0 106 25q65 37 65 118q0 39 -21.5 63t-51.5 33zM246 0v-4q61 4 123 9q112 10 174 40q89 42 89 124q0 43 -35 67q-29 20 -71 20q-22 0 -41 8q-42 -119 -121 -191q-51 -46 -118 -73z" />
    <glyph glyph-name="Acircumflex" unicode="&#x412;" horiz-adv-x="754" 
d="M432 -14q-17 0 -53.5 1t-53.5 1h-22t-21 -2q-72 -10 -115 -29l-68 -36q-7 0 -15.5 8.5t-8.5 16.5q0 28 66 47q54 13 108 27q28 10 55 39q40 43 72 123q17 46 28 77q20 54 44 104q48 100 122 170q-18 5 -44 7t-51 2q-149 0 -281 -106q-119 -96 -119 -177q0 -33 22.5 -53.5
t60.5 -20.5q85 0 149 79q54 67 54 123q0 27 -19 46q-3 3 1 7.5t8 1.5q23 -17 31 -34.5t8 -41.5q0 -92 -79 -150q-66 -49 -136 -49q-43 0 -78 23q-52 34 -52 104q0 89 87 169q108 100 282 100q62 0 106.5 -4t65.5 -9q73 44 106 57q54 21 101 21q27 0 53 -12.5t26 -35.5
q0 -19 -9 -30t-31 -11q-19 0 -26.5 8.5t-7.5 19.5q0 5 4 14t4 13q0 8 -12.5 10t-32.5 2q-33 0 -74 -23q-32 -18 -55 -43q79 -28 111 -61q27 -28 27 -65q0 -69 -70 -110q-27 -16 -101 -38q52 -12 76 -28q42 -27 42 -76q0 -81 -90 -131q-81 -45 -195 -45zM617 519
q-52 -63 -125 -236q4 -2 9 -2.5t18 -0.5q62 0 106 25q65 37 65 118q0 39 -21.5 63t-51.5 33zM246 0v-4q61 4 123 9q112 10 174 40q89 42 89 124q0 43 -35 67q-29 20 -71 20q-22 0 -41 8q-42 -119 -121 -191q-51 -46 -118 -73z" />
    <glyph glyph-name="Atilde" unicode="&#xc3;" horiz-adv-x="712" 
d="M1088 668q-7 -11 -13 -22q-10 -17 -22 -31q-23 -29 -67 -40q-31 -8 -78 -8l-41 2q3 -3 7 -6.5t0 -6.5q-6 -3 -16 -5t-12 -3q-63 -25 -101.5 -77t-81.5 -160q-57 -141 -101 -213q-56 -91 -122 -132q-73 -45 -180 -45q-122 0 -190 76q-60 67 -60 167q0 130 109 227
q100 89 211 89q66 0 103 -38t37 -100q0 -96 -91 -170q-77 -63 -139 -63q-40 0 -64 15q-32 20 -32 63q0 19 13 39q1 2 5.5 0t3.5 -5q-6 -21 -6 -38q0 -53 65 -53q49 0 118 63q86 79 86 188q0 41 -23.5 60t-60.5 19q-29 0 -93 -40q-79 -49 -130 -118q-66 -89 -66 -191
q0 -84 58 -129q53 -41 135 -41q44 0 87 19q61 26 110 87.5t98 159.5q38 76 76 153q45 84 95.5 131.5t120.5 75.5q-13 6 -151.5 19.5t-156.5 13.5q-68 0 -111 -18q-57 -24 -57 -73q0 -8 -6 -8q-14 0 -15 10.5t-1 23.5q0 68 53 99.5t150 31.5q55 0 154 -10q219 -22 267 -22
q40 0 65 12q16 8 45 34q4 3 11.5 -2t4.5 -10z" />
    <glyph glyph-name="Atilde" unicode="&#x413;" horiz-adv-x="712" 
d="M1088 668q-7 -11 -13 -22q-10 -17 -22 -31q-23 -29 -67 -40q-31 -8 -78 -8l-41 2q3 -3 7 -6.5t0 -6.5q-6 -3 -16 -5t-12 -3q-63 -25 -101.5 -77t-81.5 -160q-57 -141 -101 -213q-56 -91 -122 -132q-73 -45 -180 -45q-122 0 -190 76q-60 67 -60 167q0 130 109 227
q100 89 211 89q66 0 103 -38t37 -100q0 -96 -91 -170q-77 -63 -139 -63q-40 0 -64 15q-32 20 -32 63q0 19 13 39q1 2 5.5 0t3.5 -5q-6 -21 -6 -38q0 -53 65 -53q49 0 118 63q86 79 86 188q0 41 -23.5 60t-60.5 19q-29 0 -93 -40q-79 -49 -130 -118q-66 -89 -66 -191
q0 -84 58 -129q53 -41 135 -41q44 0 87 19q61 26 110 87.5t98 159.5q38 76 76 153q45 84 95.5 131.5t120.5 75.5q-13 6 -151.5 19.5t-156.5 13.5q-68 0 -111 -18q-57 -24 -57 -73q0 -8 -6 -8q-14 0 -15 10.5t-1 23.5q0 68 53 99.5t150 31.5q55 0 154 -10q219 -22 267 -22
q40 0 65 12q16 8 45 34q4 3 11.5 -2t4.5 -10z" />
    <glyph glyph-name="Adieresis" unicode="&#xc4;" horiz-adv-x="724" 
d="M308 5q36 29 64 72q24 37 56 109q62 137 104 204q26 41 74 98q-29 21 -57 30q-38 12 -100 12q-169 0 -283 -105q-100 -92 -100 -196q0 -35 25 -60t64 -25q60 0 129 71q75 77 75 154q0 12 -6 27t-23 29q-4 4 0.5 8t11.5 2q22 -12 33 -25q22 -25 22 -63q0 -55 -56 -126
q-73 -92 -180 -92q-54 0 -92.5 38.5t-38.5 99.5q0 94 94 183q110 104 273 104q95 0 154 -18q34 -11 69 -34q32 34 84 61q65 33 125 33q30 0 49.5 -10t19.5 -30q0 -21 -10.5 -30.5t-30.5 -9.5q-19 0 -26 7t-7 20q4 13 4 19q0 16 -20 16q-36 0 -80.5 -28.5t-76.5 -69.5
q27 -22 46 -60q23 -46 23 -97q0 -73 -56 -148q-59 -79 -166 -140q-19 -11 -63.5 -21.5t-127.5 -27.5q-34 -19 -77.5 -37t-53.5 -18q-15 0 -15 13q0 61 147 61zM692 327q0 54 -18 92q-13 27 -36 46q-34 -49 -59 -95q-18 -33 -48 -99q-45 -95 -95 -163.5t-96 -102.5
q99 14 158 49q88 54 143 135q51 75 51 138z" />
    <glyph glyph-name="Adieresis" unicode="&#x414;" horiz-adv-x="724" 
d="M308 5q36 29 64 72q24 37 56 109q62 137 104 204q26 41 74 98q-29 21 -57 30q-38 12 -100 12q-169 0 -283 -105q-100 -92 -100 -196q0 -35 25 -60t64 -25q60 0 129 71q75 77 75 154q0 12 -6 27t-23 29q-4 4 0.5 8t11.5 2q22 -12 33 -25q22 -25 22 -63q0 -55 -56 -126
q-73 -92 -180 -92q-54 0 -92.5 38.5t-38.5 99.5q0 94 94 183q110 104 273 104q95 0 154 -18q34 -11 69 -34q32 34 84 61q65 33 125 33q30 0 49.5 -10t19.5 -30q0 -21 -10.5 -30.5t-30.5 -9.5q-19 0 -26 7t-7 20q4 13 4 19q0 16 -20 16q-36 0 -80.5 -28.5t-76.5 -69.5
q27 -22 46 -60q23 -46 23 -97q0 -73 -56 -148q-59 -79 -166 -140q-19 -11 -63.5 -21.5t-127.5 -27.5q-34 -19 -77.5 -37t-53.5 -18q-15 0 -15 13q0 61 147 61zM692 327q0 54 -18 92q-13 27 -36 46q-34 -49 -59 -95q-18 -33 -48 -99q-45 -95 -95 -163.5t-96 -102.5
q99 14 158 49q88 54 143 135q51 75 51 138z" />
    <glyph glyph-name="Aring" unicode="&#xc5;" horiz-adv-x="577" 
d="M676 550q0 -29 -16 -51q-19 -26 -52 -26q-21 0 -35.5 12.5t-14.5 31.5q0 15 10 26t27 11q10 0 17 -3.5t16 -7.5q15 0 15 27q0 26 -29 50q-34 28 -90 28q-89 0 -158.5 -53t-69.5 -126q0 -48 33 -67q25 -14 75 -14q21 0 40 1l38 2q40 0 40 -20q0 -14 -23 -18q-7 -1 -22 -1
q-26 0 -50.5 2.5t-62.5 7.5q-143 -18 -222 -118q-65 -82 -65 -180q0 -64 45 -96q38 -27 98 -27q124 0 218 114q80 97 80 177q0 32 -22 53t-54 21q-63 0 -133 -66q-76 -72 -76 -152q0 -25 15 -44q9 -11 32 -27q2 -2 -2 -4.5t-6 -1.5q-32 11 -55 33q-27 26 -27 56q0 66 66 137
q77 83 181 83q58 0 96 -38q32 -32 32 -81q0 -84 -83 -172q-101 -108 -251 -108q-90 0 -152 45q-69 50 -69 139q0 97 74 165q53 49 146 81q16 6 97 27q-42 15 -66 36q-38 34 -38 87q0 66 73 114q77 51 189 51q86 0 134 -25q57 -30 57 -91z" />
    <glyph glyph-name="Aring" unicode="&#x415;" horiz-adv-x="577" 
d="M676 550q0 -29 -16 -51q-19 -26 -52 -26q-21 0 -35.5 12.5t-14.5 31.5q0 15 10 26t27 11q10 0 17 -3.5t16 -7.5q15 0 15 27q0 26 -29 50q-34 28 -90 28q-89 0 -158.5 -53t-69.5 -126q0 -48 33 -67q25 -14 75 -14q21 0 40 1l38 2q40 0 40 -20q0 -14 -23 -18q-7 -1 -22 -1
q-26 0 -50.5 2.5t-62.5 7.5q-143 -18 -222 -118q-65 -82 -65 -180q0 -64 45 -96q38 -27 98 -27q124 0 218 114q80 97 80 177q0 32 -22 53t-54 21q-63 0 -133 -66q-76 -72 -76 -152q0 -25 15 -44q9 -11 32 -27q2 -2 -2 -4.5t-6 -1.5q-32 11 -55 33q-27 26 -27 56q0 66 66 137
q77 83 181 83q58 0 96 -38q32 -32 32 -81q0 -84 -83 -172q-101 -108 -251 -108q-90 0 -152 45q-69 50 -69 139q0 97 74 165q53 49 146 81q16 6 97 27q-42 15 -66 36q-38 34 -38 87q0 66 73 114q77 51 189 51q86 0 134 -25q57 -30 57 -91z" />
    <glyph glyph-name="AE" unicode="&#xc6;" horiz-adv-x="1100" 
d="M628 336l-109 -152q-61 -90 -138 -141q-87 -57 -185 -57q-77 0 -133 35q-63 39 -63 105q0 43 27.5 75.5t64.5 32.5q25 0 38 -13t13 -31t-12 -29t-30 -11q-15 0 -22.5 6.5t-7.5 15.5q0 5 3 12t3 8q0 8 -8 8q-18 0 -36 -30q-13 -21 -13 -43q0 -54 48.5 -89.5t124.5 -35.5
q96 0 190 95q80 81 141 208q29 61 46 118t17 100q0 44 -27 66.5t-67 22.5q-82 0 -160 -71q-93 -85 -93 -211q0 -27 18.5 -45.5t49.5 -18.5q41 0 93 48q70 65 70 163q0 23 -13 36q1 3 3 6q5 3 8 2q13 -4 23 -23t10 -40q0 -86 -75 -151q-64 -55 -119 -55q-43 0 -75 32t-32 83
q0 81 87 167q95 94 209 94q57 0 86 -25q35 -30 35 -97q0 -58 -9 -115.5t-29 -96.5l3 -2l74 112q37 61 76 116q57 81 75 108q3 4 11 4q6 0 8 -1t0 -3q-44 -63 -88 -159q-30 -65 -61 -148l-21 -55l110 150q60 92 138 147q92 65 194 65q30 0 59.5 -19.5t29.5 -51.5
q0 -31 -14.5 -44.5t-35.5 -13.5q-15 0 -25 11t-10 27q0 20 22.5 24t22.5 17q0 16 -15 25t-41 9q-30 0 -81 -26q-65 -33 -120 -88q-70 -70 -109 -162q-27 -62 -38 -98q-19 -61 -19 -117q0 -51 29 -85t77 -34q71 0 141.5 99.5t70.5 194.5q0 27 -11 41t-37 14q-35 0 -96 -73
q-70 -84 -70 -168q0 -9 5 -22t12 -28h-8q-23 19 -31.5 36t-8.5 44q0 25 20 71q25 58 69 102q18 19 55 35.5t56 16.5q36 0 62 -30t26 -82q0 -80 -63 -164q-77 -103 -191 -103q-78 0 -117 55q-33 47 -33 124q0 39 7 74.5t20 67.5l-3 2l-79 -109q-50 -79 -92 -138t-108 -141
q-3 -4 -12 -4q-3 0 -6 0.5t-1 3.5q77 114 131 215.5t89 199.5z" />
    <glyph glyph-name="AE" unicode="&#x416;" horiz-adv-x="1100" 
d="M628 336l-109 -152q-61 -90 -138 -141q-87 -57 -185 -57q-77 0 -133 35q-63 39 -63 105q0 43 27.5 75.5t64.5 32.5q25 0 38 -13t13 -31t-12 -29t-30 -11q-15 0 -22.5 6.5t-7.5 15.5q0 5 3 12t3 8q0 8 -8 8q-18 0 -36 -30q-13 -21 -13 -43q0 -54 48.5 -89.5t124.5 -35.5
q96 0 190 95q80 81 141 208q29 61 46 118t17 100q0 44 -27 66.5t-67 22.5q-82 0 -160 -71q-93 -85 -93 -211q0 -27 18.5 -45.5t49.5 -18.5q41 0 93 48q70 65 70 163q0 23 -13 36q1 3 3 6q5 3 8 2q13 -4 23 -23t10 -40q0 -86 -75 -151q-64 -55 -119 -55q-43 0 -75 32t-32 83
q0 81 87 167q95 94 209 94q57 0 86 -25q35 -30 35 -97q0 -58 -9 -115.5t-29 -96.5l3 -2l74 112q37 61 76 116q57 81 75 108q3 4 11 4q6 0 8 -1t0 -3q-44 -63 -88 -159q-30 -65 -61 -148l-21 -55l110 150q60 92 138 147q92 65 194 65q30 0 59.5 -19.5t29.5 -51.5
q0 -31 -14.5 -44.5t-35.5 -13.5q-15 0 -25 11t-10 27q0 20 22.5 24t22.5 17q0 16 -15 25t-41 9q-30 0 -81 -26q-65 -33 -120 -88q-70 -70 -109 -162q-27 -62 -38 -98q-19 -61 -19 -117q0 -51 29 -85t77 -34q71 0 141.5 99.5t70.5 194.5q0 27 -11 41t-37 14q-35 0 -96 -73
q-70 -84 -70 -168q0 -9 5 -22t12 -28h-8q-23 19 -31.5 36t-8.5 44q0 25 20 71q25 58 69 102q18 19 55 35.5t56 16.5q36 0 62 -30t26 -82q0 -80 -63 -164q-77 -103 -191 -103q-78 0 -117 55q-33 47 -33 124q0 39 7 74.5t20 67.5l-3 2l-79 -109q-50 -79 -92 -138t-108 -141
q-3 -4 -12 -4q-3 0 -6 0.5t-1 3.5q77 114 131 215.5t89 199.5z" />
    <glyph glyph-name="Ccedilla" unicode="&#xc7;" horiz-adv-x="608" 
d="M423 378q66 -6 117 -57q46 -46 46 -86q0 -134 -136 -230q-119 -84 -236 -84q-97 0 -153 45q-51 41 -51 102q0 118 89 191q74 61 156 61q69 0 106 -33q33 -29 33 -78q0 -80 -56 -135q-50 -49 -127 -63q-3 -1 -6.5 5.5t0.5 8.5q61 31 98 72q44 49 44 106q0 46 -24.5 74.5
t-62.5 28.5q-74 0 -128.5 -70.5t-54.5 -157.5q0 -61 27 -95q33 -42 104 -42q101 0 201 85q110 94 110 214q0 48 -31 78q-35 35 -106 44q-34 -5 -51.5 -7.5t-42.5 -2.5q-6 0 -10 3q-9 6 -6 16q5 20 23 20q88 0 144 22q102 40 102 146q0 37 -33 63t-80 26q-52 0 -97 -20
q-26 -11 -60 -37q-11 -7 -11 -19q0 -18 20 -18q9 0 15.5 -8.5t6.5 -17.5q0 -26 -23.5 -42t-48.5 -16q-23 0 -33 14.5t-10 35.5q0 60 75.5 103t182.5 43q69 0 119 -28t50 -67q0 -73 -78 -135q-61 -49 -113 -58z" />
    <glyph glyph-name="Ccedilla" unicode="&#x417;" horiz-adv-x="608" 
d="M423 378q66 -6 117 -57q46 -46 46 -86q0 -134 -136 -230q-119 -84 -236 -84q-97 0 -153 45q-51 41 -51 102q0 118 89 191q74 61 156 61q69 0 106 -33q33 -29 33 -78q0 -80 -56 -135q-50 -49 -127 -63q-3 -1 -6.5 5.5t0.5 8.5q61 31 98 72q44 49 44 106q0 46 -24.5 74.5
t-62.5 28.5q-74 0 -128.5 -70.5t-54.5 -157.5q0 -61 27 -95q33 -42 104 -42q101 0 201 85q110 94 110 214q0 48 -31 78q-35 35 -106 44q-34 -5 -51.5 -7.5t-42.5 -2.5q-6 0 -10 3q-9 6 -6 16q5 20 23 20q88 0 144 22q102 40 102 146q0 37 -33 63t-80 26q-52 0 -97 -20
q-26 -11 -60 -37q-11 -7 -11 -19q0 -18 20 -18q9 0 15.5 -8.5t6.5 -17.5q0 -26 -23.5 -42t-48.5 -16q-23 0 -33 14.5t-10 35.5q0 60 75.5 103t182.5 43q69 0 119 -28t50 -67q0 -73 -78 -135q-61 -49 -113 -58z" />
    <glyph glyph-name="Egrave" unicode="&#xc8;" horiz-adv-x="849" 
d="M802 550h61l-150 -300q-17 -34 -28.5 -90.5t-11.5 -99.5q0 -23 11 -40.5t31 -17.5q28 0 59.5 44.5t62.5 125.5q2 6 8.5 1.5t4.5 -13.5q-17 -66 -60 -125q-36 -49 -71 -49q-49 0 -69.5 36.5t-20.5 103.5q0 54 38 135l-2 3q-46 -65 -91 -130q-53 -70 -99 -105
q-57 -43 -118 -43q-52 0 -84 45q-28 40 -28 92q0 72 43 140q35 55 106 117t142 122q-31 -7 -56.5 -10t-61.5 -3q-16 0 -53 2.5t-52 2.5q-82 0 -154.5 -46.5t-72.5 -109.5q0 -52 27.5 -76t99.5 -24q4 0 3.5 -9t-10.5 -9q-68 0 -109 36q-37 32 -37 76q0 85 89 151.5t185 66.5
q36 0 81 -8q113 -20 124 -20q10 0 15 1q43 35 61 49q31 24 55 24q19 0 19 -13q0 -29 -51 -47q-71 -25 -83 -35q-41 -39 -127 -144q-60 -73 -96 -159q-29 -69 -29 -123q0 -33 22 -53t53 -20q60 0 158 116q77 92 135 196z" />
    <glyph glyph-name="Egrave" unicode="&#x418;" horiz-adv-x="849" 
d="M802 550h61l-150 -300q-17 -34 -28.5 -90.5t-11.5 -99.5q0 -23 11 -40.5t31 -17.5q28 0 59.5 44.5t62.5 125.5q2 6 8.5 1.5t4.5 -13.5q-17 -66 -60 -125q-36 -49 -71 -49q-49 0 -69.5 36.5t-20.5 103.5q0 54 38 135l-2 3q-46 -65 -91 -130q-53 -70 -99 -105
q-57 -43 -118 -43q-52 0 -84 45q-28 40 -28 92q0 72 43 140q35 55 106 117t142 122q-31 -7 -56.5 -10t-61.5 -3q-16 0 -53 2.5t-52 2.5q-82 0 -154.5 -46.5t-72.5 -109.5q0 -52 27.5 -76t99.5 -24q4 0 3.5 -9t-10.5 -9q-68 0 -109 36q-37 32 -37 76q0 85 89 151.5t185 66.5
q36 0 81 -8q113 -20 124 -20q10 0 15 1q43 35 61 49q31 24 55 24q19 0 19 -13q0 -29 -51 -47q-71 -25 -83 -35q-41 -39 -127 -144q-60 -73 -96 -159q-29 -69 -29 -123q0 -33 22 -53t53 -20q60 0 158 116q77 92 135 196z" />
    <glyph glyph-name="Eacute" unicode="&#xc9;" horiz-adv-x="883" 
d="M834 573h62l-155 -313q-16 -33 -28.5 -94t-12.5 -102q0 -25 11 -43.5t32 -18.5q37 0 80 75q22 38 47 103q2 6 8.5 1.5t4.5 -13.5q-11 -44 -42 -100q-46 -82 -94 -82q-51 0 -72.5 38.5t-21.5 106.5q0 58 39 142l-2 3q-76 -112 -94 -136q-57 -76 -102 -110
q-59 -44 -124 -44q-54 0 -85.5 44.5t-31.5 97.5q0 77 45 147q36 56 113 125q72 61 145 123q-31 -7 -58 -10t-64 -3q-17 0 -55.5 2.5t-53.5 2.5q-85 0 -160.5 -48.5t-75.5 -114.5q0 -53 29 -78.5t103 -25.5q4 0 3.5 -9.5t-11.5 -9.5q-70 0 -114 38q-39 34 -39 79
q0 88 93.5 157.5t192.5 69.5q33 0 84 -9q114 -20 128 -20q12 0 17 1q55 48 78.5 65.5t41.5 17.5q22 0 22 -13q0 -32 -53 -53q-77 -31 -88 -40q-28 -25 -53 -53q-38 -42 -79 -96q-23 -35 -35 -54q-39 -64 -62 -116q-33 -75 -33 -124q0 -36 22.5 -56.5t56.5 -20.5
q61 0 163 121q82 97 142 204zM817 609q-41 0 -149 59.5t-139 59.5q-16 0 -37 -17.5t-37 -40.5q-4 -5 -11.5 1t-4.5 9q35 43 57 55q32 17 79 17q49 0 147 -43t129 -43q41 0 66 39q12 18 29 67q2 4 9.5 1t6.5 -7q-10 -46 -40 -91q-44 -66 -105 -66z" />
    <glyph glyph-name="Eacute" unicode="&#x419;" horiz-adv-x="883" 
d="M834 573h62l-155 -313q-16 -33 -28.5 -94t-12.5 -102q0 -25 11 -43.5t32 -18.5q37 0 80 75q22 38 47 103q2 6 8.5 1.5t4.5 -13.5q-11 -44 -42 -100q-46 -82 -94 -82q-51 0 -72.5 38.5t-21.5 106.5q0 58 39 142l-2 3q-76 -112 -94 -136q-57 -76 -102 -110
q-59 -44 -124 -44q-54 0 -85.5 44.5t-31.5 97.5q0 77 45 147q36 56 113 125q72 61 145 123q-31 -7 -58 -10t-64 -3q-17 0 -55.5 2.5t-53.5 2.5q-85 0 -160.5 -48.5t-75.5 -114.5q0 -53 29 -78.5t103 -25.5q4 0 3.5 -9.5t-11.5 -9.5q-70 0 -114 38q-39 34 -39 79
q0 88 93.5 157.5t192.5 69.5q33 0 84 -9q114 -20 128 -20q12 0 17 1q55 48 78.5 65.5t41.5 17.5q22 0 22 -13q0 -32 -53 -53q-77 -31 -88 -40q-28 -25 -53 -53q-38 -42 -79 -96q-23 -35 -35 -54q-39 -64 -62 -116q-33 -75 -33 -124q0 -36 22.5 -56.5t56.5 -20.5
q61 0 163 121q82 97 142 204zM817 609q-41 0 -149 59.5t-139 59.5q-16 0 -37 -17.5t-37 -40.5q-4 -5 -11.5 1t-4.5 9q35 43 57 55q32 17 79 17q49 0 147 -43t129 -43q41 0 66 39q12 18 29 67q2 4 9.5 1t6.5 -7q-10 -46 -40 -91q-44 -66 -105 -66z" />
    <glyph glyph-name="Ecircumflex" unicode="&#xca;" horiz-adv-x="870" 
d="M214 -14q-91 0 -147.5 36t-56.5 90q0 34 19 58t45 24q19 0 33 -13t14 -30q0 -14 -9 -24t-24 -10q-14 0 -24 12q-5 6 -8 6q-4 0 -11 -10t-7 -22q0 -44 49 -72.5t123 -28.5q72 0 123 34q41 27 79 87q24 38 58 111q8 19 17 41q36 86 59 121q48 75 82 114q28 32 62 55
q-50 7 -80.5 9.5t-72.5 2.5q-121 0 -217 -59q-103 -64 -103 -155q0 -37 21 -55t57 -18q71 0 126 67q46 57 46 104q0 17 -2.5 22t-12.5 17q-2 3 2.5 5.5t6.5 0.5q15 -8 22 -18q12 -17 12 -44q0 -52 -45 -105q-56 -65 -142 -65q-56 0 -91.5 37.5t-35.5 94.5q0 110 108 158
q71 32 164 32q56 0 135.5 -8.5t117.5 -12.5q17 9 43 25q46 28 60 28q22 0 22 -10q0 -19 -32 -33t-84 -23q-12 -11 -28.5 -32t-29.5 -42q-19 -31 -42 -76q-28 -56 -43 -99q8 -2 33 -4.5t45 -2.5q52 0 100 76q76 121 113 157q26 25 61 41t74 16q20 0 33 -10t13 -26
q0 -39 -41 -39q-17 0 -23.5 7.5t-6.5 20.5q0 10 -4 19t-9 9q-31 0 -65.5 -53t-66.5 -104q-84 -113 -166 -123q42 -19 61 -52q15 -26 15 -57q0 -12 -3 -34q-7 -51 -7 -80q0 -32 7.5 -52t31.5 -20q27 0 50 43q17 32 28 79q1 5 7.5 0.5t6.5 -11.5q-9 -42 -32 -79
q-30 -48 -64 -48q-55 0 -80 35q-21 30 -21 83q0 18 3 46q7 65 7 72q0 40 -11 54t-35 14q-21 0 -40.5 2.5t-18.5 9.5q-32 -71 -48 -100q-28 -50 -64 -96q-45 -55 -107.5 -87.5t-133.5 -32.5z" />
    <glyph glyph-name="Ecircumflex" unicode="&#x41a;" horiz-adv-x="870" 
d="M214 -14q-91 0 -147.5 36t-56.5 90q0 34 19 58t45 24q19 0 33 -13t14 -30q0 -14 -9 -24t-24 -10q-14 0 -24 12q-5 6 -8 6q-4 0 -11 -10t-7 -22q0 -44 49 -72.5t123 -28.5q72 0 123 34q41 27 79 87q24 38 58 111q8 19 17 41q36 86 59 121q48 75 82 114q28 32 62 55
q-50 7 -80.5 9.5t-72.5 2.5q-121 0 -217 -59q-103 -64 -103 -155q0 -37 21 -55t57 -18q71 0 126 67q46 57 46 104q0 17 -2.5 22t-12.5 17q-2 3 2.5 5.5t6.5 0.5q15 -8 22 -18q12 -17 12 -44q0 -52 -45 -105q-56 -65 -142 -65q-56 0 -91.5 37.5t-35.5 94.5q0 110 108 158
q71 32 164 32q56 0 135.5 -8.5t117.5 -12.5q17 9 43 25q46 28 60 28q22 0 22 -10q0 -19 -32 -33t-84 -23q-12 -11 -28.5 -32t-29.5 -42q-19 -31 -42 -76q-28 -56 -43 -99q8 -2 33 -4.5t45 -2.5q52 0 100 76q76 121 113 157q26 25 61 41t74 16q20 0 33 -10t13 -26
q0 -39 -41 -39q-17 0 -23.5 7.5t-6.5 20.5q0 10 -4 19t-9 9q-31 0 -65.5 -53t-66.5 -104q-84 -113 -166 -123q42 -19 61 -52q15 -26 15 -57q0 -12 -3 -34q-7 -51 -7 -80q0 -32 7.5 -52t31.5 -20q27 0 50 43q17 32 28 79q1 5 7.5 0.5t6.5 -11.5q-9 -42 -32 -79
q-30 -48 -64 -48q-55 0 -80 35q-21 30 -21 83q0 18 3 46q7 65 7 72q0 40 -11 54t-35 14q-21 0 -40.5 2.5t-18.5 9.5q-32 -71 -48 -100q-28 -50 -64 -96q-45 -55 -107.5 -87.5t-133.5 -32.5z" />
    <glyph glyph-name="Edieresis" unicode="&#xcb;" horiz-adv-x="951" 
d="M990 557q-77 -46 -140 -106t-138 -160q-53 -71 -77 -96q-47 -50 -135 -118q-54 -42 -120 -66.5t-141 -24.5q-92 0 -155 37q-74 44 -74 122q0 29 22 56.5t49 27.5t37 -11t10 -29t-11 -31t-30 -13q-12 0 -21.5 8.5t-11.5 8.5q-7 0 -10.5 -9t-3.5 -23q0 -53 54 -90.5
t145 -37.5q89 0 174 48q69 39 148 118q41 41 129 145q27 32 55 65q53 60 108 105q77 64 166 110q-58 19 -135 31t-134 12q-133 0 -260 -65q-155 -79 -155 -204q0 -35 32.5 -62t74.5 -27q88 0 157 79q61 70 61 135q0 26 -9 36q-2 3 1.5 7.5t6.5 3.5q21 -7 27 -15
q11 -14 11 -55q0 -63 -65 -130q-75 -77 -175 -77q-74 0 -114.5 42.5t-40.5 108.5q0 101 98 172q111 81 302 81q81 0 182 -19q36 -7 171 -38q3 1 67 33q48 24 73 24q11 0 22 -8.5t11 -16.5q0 -25 -66 -43q-24 -7 -87 -19q-36 -11 -70 -51q-29 -31 -72 -103q-32 -55 -61 -112
q-32 -64 -50 -113q-31 -81 -36 -142q0 -25 9 -40.5t30 -15.5q40 0 74 64q15 27 38 94q2 5 8 1.5t4 -12.5q-16 -73 -51 -118t-80 -45q-33 0 -57 35q-27 39 -27 101q0 38 13 83.5t34 85.5q45 85 77 128q48 65 132 138z" />
    <glyph glyph-name="Edieresis" unicode="&#x41b;" horiz-adv-x="951" 
d="M990 557q-77 -46 -140 -106t-138 -160q-53 -71 -77 -96q-47 -50 -135 -118q-54 -42 -120 -66.5t-141 -24.5q-92 0 -155 37q-74 44 -74 122q0 29 22 56.5t49 27.5t37 -11t10 -29t-11 -31t-30 -13q-12 0 -21.5 8.5t-11.5 8.5q-7 0 -10.5 -9t-3.5 -23q0 -53 54 -90.5
t145 -37.5q89 0 174 48q69 39 148 118q41 41 129 145q27 32 55 65q53 60 108 105q77 64 166 110q-58 19 -135 31t-134 12q-133 0 -260 -65q-155 -79 -155 -204q0 -35 32.5 -62t74.5 -27q88 0 157 79q61 70 61 135q0 26 -9 36q-2 3 1.5 7.5t6.5 3.5q21 -7 27 -15
q11 -14 11 -55q0 -63 -65 -130q-75 -77 -175 -77q-74 0 -114.5 42.5t-40.5 108.5q0 101 98 172q111 81 302 81q81 0 182 -19q36 -7 171 -38q3 1 67 33q48 24 73 24q11 0 22 -8.5t11 -16.5q0 -25 -66 -43q-24 -7 -87 -19q-36 -11 -70 -51q-29 -31 -72 -103q-32 -55 -61 -112
q-32 -64 -50 -113q-31 -81 -36 -142q0 -25 9 -40.5t30 -15.5q40 0 74 64q15 27 38 94q2 5 8 1.5t4 -12.5q-16 -73 -51 -118t-80 -45q-33 0 -57 35q-27 39 -27 101q0 38 13 83.5t34 85.5q45 85 77 128q48 65 132 138z" />
    <glyph glyph-name="Igrave" unicode="&#xcc;" horiz-adv-x="943" 
d="M735 566l-3 2q-39 -43 -96 -125t-113 -163q-74 -102 -149 -189q-51 -61 -122 -87q-49 -18 -102 -18q-55 0 -97.5 28t-42.5 76q0 27 18.5 50.5t44.5 23.5q17 0 31.5 -11.5t14.5 -28.5q0 -15 -11 -28t-30 -13q-14 0 -18 10t-12 10q-7 0 -11.5 -7.5t-4.5 -16.5q8 -26 19 -38
q34 -39 100 -39q78 0 154 57.5t165 181.5q45 63 123 174q51 73 76 106q33 44 63 75q-31 0 -83 3q-121 7 -140 7q-120 0 -217 -78t-97 -176q0 -24 28 -48t63 -24q61 0 123 70q56 63 56 108q0 16 -2.5 21t-13.5 18q-1 2 3 5t7 2q19 -13 27.5 -29t8.5 -37q0 -52 -50 -106
q-60 -65 -149 -65q-61 0 -95.5 36.5t-34.5 95.5q0 116 107 180q81 49 166 49q51 0 154 -8t151 -8q23 28 36 38q20 16 44 16q15 0 15 -14q0 -7 -31 -25q-25 -15 -43 -31q-31 -90 -44 -126q-20 -56 -42 -110q-45 -112 -84 -194q-49 -103 -49 -139q0 -9 2.5 -17t7.5 -8
q8 0 32 52q59 126 64 136q51 110 100 184q71 105 161 179.5t161 74.5q63 0 63 -46q0 -16 -11.5 -28.5t-30.5 -12.5q-37 0 -37 31q0 12 24 20q12 4 12 8q0 7 -6 9.5t-17 2.5q-42 0 -99 -75q-48 -63 -101 -175q-43 -92 -67 -155q-35 -94 -35 -146q0 -26 9 -42.5t30 -16.5
q29 0 61.5 45t62.5 125q2 5 8 2t4 -12q-9 -39 -44 -97q-47 -79 -91 -79t-63 37t-19 103q0 52 39 152q43 111 107 202q26 38 50 61q12 12 41 36l-1 3q-47 -34 -70 -56q-27 -27 -65 -74q-45 -56 -92.5 -137.5t-86.5 -170.5q-68 -156 -96 -156q-16 0 -20.5 18.5t-4.5 53.5v17
q0 49 19 118t48 126q16 32 71 125q51 87 69 122z" />
    <glyph glyph-name="Igrave" unicode="&#x41c;" horiz-adv-x="943" 
d="M735 566l-3 2q-39 -43 -96 -125t-113 -163q-74 -102 -149 -189q-51 -61 -122 -87q-49 -18 -102 -18q-55 0 -97.5 28t-42.5 76q0 27 18.5 50.5t44.5 23.5q17 0 31.5 -11.5t14.5 -28.5q0 -15 -11 -28t-30 -13q-14 0 -18 10t-12 10q-7 0 -11.5 -7.5t-4.5 -16.5q8 -26 19 -38
q34 -39 100 -39q78 0 154 57.5t165 181.5q45 63 123 174q51 73 76 106q33 44 63 75q-31 0 -83 3q-121 7 -140 7q-120 0 -217 -78t-97 -176q0 -24 28 -48t63 -24q61 0 123 70q56 63 56 108q0 16 -2.5 21t-13.5 18q-1 2 3 5t7 2q19 -13 27.5 -29t8.5 -37q0 -52 -50 -106
q-60 -65 -149 -65q-61 0 -95.5 36.5t-34.5 95.5q0 116 107 180q81 49 166 49q51 0 154 -8t151 -8q23 28 36 38q20 16 44 16q15 0 15 -14q0 -7 -31 -25q-25 -15 -43 -31q-31 -90 -44 -126q-20 -56 -42 -110q-45 -112 -84 -194q-49 -103 -49 -139q0 -9 2.5 -17t7.5 -8
q8 0 32 52q59 126 64 136q51 110 100 184q71 105 161 179.5t161 74.5q63 0 63 -46q0 -16 -11.5 -28.5t-30.5 -12.5q-37 0 -37 31q0 12 24 20q12 4 12 8q0 7 -6 9.5t-17 2.5q-42 0 -99 -75q-48 -63 -101 -175q-43 -92 -67 -155q-35 -94 -35 -146q0 -26 9 -42.5t30 -16.5
q29 0 61.5 45t62.5 125q2 5 8 2t4 -12q-9 -39 -44 -97q-47 -79 -91 -79t-63 37t-19 103q0 52 39 152q43 111 107 202q26 38 50 61q12 12 41 36l-1 3q-47 -34 -70 -56q-27 -27 -65 -74q-45 -56 -92.5 -137.5t-86.5 -170.5q-68 -156 -96 -156q-16 0 -20.5 18.5t-4.5 53.5v17
q0 49 19 118t48 126q16 32 71 125q51 87 69 122z" />
    <glyph glyph-name="Iacute" unicode="&#xcd;" horiz-adv-x="900" 
d="M733 316h-142q-20 -50 -30 -70q-24 -49 -60 -99q-57 -82 -145 -124q-77 -37 -159 -37q-78 0 -127 29q-60 35 -60 102q0 35 21 63.5t52 28.5q28 0 39 -15q7 -10 7 -26q0 -18 -10.5 -31t-29.5 -13q-12 0 -21 16q-5 10 -14 16q-16 -12 -19 -18.5t-3 -31.5q0 -53 45 -78
t120 -25q136 0 223 120q14 19 99 193h-36v20h45q38 81 66 119q39 53 109 103q-23 4 -76.5 10t-82.5 6q-116 0 -208 -46q-113 -57 -113 -156q0 -33 24.5 -50.5t62.5 -17.5q72 0 126 69q45 58 45 108q0 8 -3 16.5t-8 15.5q-2 4 2 7.5t8 0.5q21 -14 27.5 -25.5t6.5 -32.5
q0 -54 -50 -108q-61 -66 -151 -66q-56 0 -91 33t-35 87q0 88 84 141q70 44 158 44q78 0 138 -5t130 -11q13 0 24 3q12 5 16 6l50 34q14 7 36 7q19 0 19 -12q0 -11 -25 -20q-52 -19 -58 -22q-58 -23 -108 -112q-26 -47 -54 -126h144q26 50 74 113q66 86 132 136q87 66 167 66
q22 0 38 -9t16 -29q0 -17 -11 -28t-25 -11q-18 0 -26 8t-8 18q0 5 2 13t2 9q0 11 -16 11q-44 0 -118 -74q-82 -82 -142 -201q-45 -88 -73 -169.5t-28 -131.5q0 -24 8 -39t29 -15q38 0 78 69q18 32 43 94q2 5 7.5 2t3.5 -12q-8 -35 -43 -93q-47 -77 -89 -77t-61 35.5
t-19 99.5q0 31 20 101q14 50 31 94z" />
    <glyph glyph-name="Iacute" unicode="&#x41d;" horiz-adv-x="900" 
d="M733 316h-142q-20 -50 -30 -70q-24 -49 -60 -99q-57 -82 -145 -124q-77 -37 -159 -37q-78 0 -127 29q-60 35 -60 102q0 35 21 63.5t52 28.5q28 0 39 -15q7 -10 7 -26q0 -18 -10.5 -31t-29.5 -13q-12 0 -21 16q-5 10 -14 16q-16 -12 -19 -18.5t-3 -31.5q0 -53 45 -78
t120 -25q136 0 223 120q14 19 99 193h-36v20h45q38 81 66 119q39 53 109 103q-23 4 -76.5 10t-82.5 6q-116 0 -208 -46q-113 -57 -113 -156q0 -33 24.5 -50.5t62.5 -17.5q72 0 126 69q45 58 45 108q0 8 -3 16.5t-8 15.5q-2 4 2 7.5t8 0.5q21 -14 27.5 -25.5t6.5 -32.5
q0 -54 -50 -108q-61 -66 -151 -66q-56 0 -91 33t-35 87q0 88 84 141q70 44 158 44q78 0 138 -5t130 -11q13 0 24 3q12 5 16 6l50 34q14 7 36 7q19 0 19 -12q0 -11 -25 -20q-52 -19 -58 -22q-58 -23 -108 -112q-26 -47 -54 -126h144q26 50 74 113q66 86 132 136q87 66 167 66
q22 0 38 -9t16 -29q0 -17 -11 -28t-25 -11q-18 0 -26 8t-8 18q0 5 2 13t2 9q0 11 -16 11q-44 0 -118 -74q-82 -82 -142 -201q-45 -88 -73 -169.5t-28 -131.5q0 -24 8 -39t29 -15q38 0 78 69q18 32 43 94q2 5 7.5 2t3.5 -12q-8 -35 -43 -93q-47 -77 -89 -77t-61 35.5
t-19 99.5q0 31 20 101q14 50 31 94z" />
    <glyph glyph-name="Icircumflex" unicode="&#xce;" horiz-adv-x="567" 
d="M600 482q0 -70 -28.5 -152t-80.5 -162q-56 -87 -118 -132q-69 -50 -148 -50q-88 0 -141.5 56.5t-53.5 142.5q0 93 62 190q46 72 102 114q88 65 183 74q32 31 61 46q35 19 72 19q43 0 66.5 -42t23.5 -104zM558 532q0 36 -13.5 58t-39.5 22q-46 0 -104 -61
q-48 -50 -96 -133q-41 -68 -65 -128t-24 -99q0 -43 36 -64q-1 -4 -1 -7q-6 -6 -10 -4q-33 16 -51 53q-14 29 -14 55q0 85 74 192q37 53 110 131q-56 -15 -119 -83q-50 -54 -74 -103q-33 -68 -53 -133.5t-20 -96.5q0 -54 33.5 -91.5t88.5 -37.5q67 0 127 64q46 49 95 144
q56 111 90 206q30 84 30 116z" />
    <glyph glyph-name="Icircumflex" unicode="&#x41e;" horiz-adv-x="567" 
d="M600 482q0 -70 -28.5 -152t-80.5 -162q-56 -87 -118 -132q-69 -50 -148 -50q-88 0 -141.5 56.5t-53.5 142.5q0 93 62 190q46 72 102 114q88 65 183 74q32 31 61 46q35 19 72 19q43 0 66.5 -42t23.5 -104zM558 532q0 36 -13.5 58t-39.5 22q-46 0 -104 -61
q-48 -50 -96 -133q-41 -68 -65 -128t-24 -99q0 -43 36 -64q-1 -4 -1 -7q-6 -6 -10 -4q-33 16 -51 53q-14 29 -14 55q0 85 74 192q37 53 110 131q-56 -15 -119 -83q-50 -54 -74 -103q-33 -68 -53 -133.5t-20 -96.5q0 -54 33.5 -91.5t88.5 -37.5q67 0 127 64q46 49 95 144
q56 111 90 206q30 84 30 116z" />
    <glyph glyph-name="Idieresis" unicode="&#xcf;" horiz-adv-x="934" 
d="M856 567q-39 6 -166.5 19.5t-141.5 13.5q-67 0 -111 -15q-59 -20 -59 -65l2 -14q0 -6 -9.5 -4t-10.5 8l-3 33q0 64 54 93.5t150 29.5q57 0 146.5 -9.5t184.5 -19t142 -9.5q42 0 62 5.5t40 22.5q10 10 14 10q5 0 9 -4t2 -9q-8 -15 -14.5 -23.5t-18.5 -20.5
q-25 -25 -55.5 -36.5t-80.5 -11.5q-42 0 -101 7q8 -8 3 -12q-6 -3 -16 -5t-12 -3q-63 -25 -101.5 -77t-81.5 -160q-57 -141 -101 -213q-56 -91 -122 -132q-73 -45 -180 -45q-122 0 -190 76q-60 67 -60 167q0 130 109 227q100 89 211 89q66 0 103 -38t37 -100q0 -96 -91 -170
q-77 -63 -139 -63q-40 0 -64 15q-32 20 -32 63q0 19 13 39q1 2 5.5 0t3.5 -5q-6 -21 -6 -38q0 -53 65 -53q49 0 118 63q86 79 86 188q0 40 -24.5 59.5t-59.5 19.5q-30 0 -94 -40q-80 -50 -130 -118q-65 -89 -65 -191q0 -84 58 -129q53 -41 135 -41q44 0 87 19
q61 26 110 87.5t98 159.5q38 76 76 153q45 84 95.5 131.5t120.5 75.5zM710 132q0 111 71 228.5t167 176.5h20q-89 -94 -148 -215q-66 -136 -66 -259q0 -27 9 -44t31 -17q40 0 83 75q22 38 47 102q2 5 8 1.5t4 -12.5q-10 -40 -46 -100q-50 -82 -95 -82t-65 38.5t-20 107.5z
" />
    <glyph glyph-name="Idieresis" unicode="&#x41f;" horiz-adv-x="934" 
d="M856 567q-39 6 -166.5 19.5t-141.5 13.5q-67 0 -111 -15q-59 -20 -59 -65l2 -14q0 -6 -9.5 -4t-10.5 8l-3 33q0 64 54 93.5t150 29.5q57 0 146.5 -9.5t184.5 -19t142 -9.5q42 0 62 5.5t40 22.5q10 10 14 10q5 0 9 -4t2 -9q-8 -15 -14.5 -23.5t-18.5 -20.5
q-25 -25 -55.5 -36.5t-80.5 -11.5q-42 0 -101 7q8 -8 3 -12q-6 -3 -16 -5t-12 -3q-63 -25 -101.5 -77t-81.5 -160q-57 -141 -101 -213q-56 -91 -122 -132q-73 -45 -180 -45q-122 0 -190 76q-60 67 -60 167q0 130 109 227q100 89 211 89q66 0 103 -38t37 -100q0 -96 -91 -170
q-77 -63 -139 -63q-40 0 -64 15q-32 20 -32 63q0 19 13 39q1 2 5.5 0t3.5 -5q-6 -21 -6 -38q0 -53 65 -53q49 0 118 63q86 79 86 188q0 40 -24.5 59.5t-59.5 19.5q-30 0 -94 -40q-80 -50 -130 -118q-65 -89 -65 -191q0 -84 58 -129q53 -41 135 -41q44 0 87 19
q61 26 110 87.5t98 159.5q38 76 76 153q45 84 95.5 131.5t120.5 75.5zM710 132q0 111 71 228.5t167 176.5h20q-89 -94 -148 -215q-66 -136 -66 -259q0 -27 9 -44t31 -17q40 0 83 75q22 38 47 102q2 5 8 1.5t4 -12.5q-10 -40 -46 -100q-50 -82 -95 -82t-65 38.5t-20 107.5z
" />
    <glyph glyph-name="Eth" unicode="&#xd0;" horiz-adv-x="703" 
d="M613 579q-54 -76 -94 -178l-36 -92q-35 -82 -85 -144.5t-112 -104.5q69 0 147 -26t107 -26q41 0 66 36q22 45 31 61q3 7 10 2t5 -11q-33 -94 -63.5 -124.5t-71.5 -30.5q-51 0 -114 30l-146 74l-66 -36q-47 -23 -74 -23q-20 0 -20 18q0 22 34 35q6 2 129 27q38 26 68 63
q36 44 57 99q53 145 71 187q45 105 120 177q-20 6 -67 13t-69 7q-144 0 -249 -110q-94 -98 -94 -202q0 -32 19 -54t54 -22q60 0 120 74q56 69 56 120q0 33 -17 50q-3 3 1 7.5t8 1.5q23 -16 32 -34t9 -40q0 -89 -73 -147q-60 -48 -123 -48q-52 0 -84 30q-39 36 -39 107
q0 94 80 176q104 107 289 107q51 0 96 -7q27 -4 69 -15q37 26 70 39q51 21 103 21q27 0 52 -12.5t25 -35.5q0 -21 -8 -32.5t-30 -11.5q-20 0 -27 9.5t-7 21.5q0 5 4 14t4 13q0 8 -14 13t-31 5q-28 0 -57 -13.5t-55 -40.5q49 -16 82 -42q59 -47 59 -117t-55 -115.5
t-132 -45.5q-20 0 -36 4q-26 7 -49 23q-3 2 1.5 6.5t7.5 2.5q13 -7 31 -13.5t32 -6.5q48 0 91 46q48 51 48 123q0 38 -27.5 72t-62.5 46z" />
    <glyph glyph-name="Eth" unicode="&#x420;" horiz-adv-x="703" 
d="M613 579q-54 -76 -94 -178l-36 -92q-35 -82 -85 -144.5t-112 -104.5q69 0 147 -26t107 -26q41 0 66 36q22 45 31 61q3 7 10 2t5 -11q-33 -94 -63.5 -124.5t-71.5 -30.5q-51 0 -114 30l-146 74l-66 -36q-47 -23 -74 -23q-20 0 -20 18q0 22 34 35q6 2 129 27q38 26 68 63
q36 44 57 99q53 145 71 187q45 105 120 177q-20 6 -67 13t-69 7q-144 0 -249 -110q-94 -98 -94 -202q0 -32 19 -54t54 -22q60 0 120 74q56 69 56 120q0 33 -17 50q-3 3 1 7.5t8 1.5q23 -16 32 -34t9 -40q0 -89 -73 -147q-60 -48 -123 -48q-52 0 -84 30q-39 36 -39 107
q0 94 80 176q104 107 289 107q51 0 96 -7q27 -4 69 -15q37 26 70 39q51 21 103 21q27 0 52 -12.5t25 -35.5q0 -21 -8 -32.5t-30 -11.5q-20 0 -27 9.5t-7 21.5q0 5 4 14t4 13q0 8 -14 13t-31 5q-28 0 -57 -13.5t-55 -40.5q49 -16 82 -42q59 -47 59 -117t-55 -115.5
t-132 -45.5q-20 0 -36 4q-26 7 -49 23q-3 2 1.5 6.5t7.5 2.5q13 -7 31 -13.5t32 -6.5q48 0 91 46q48 51 48 123q0 38 -27.5 72t-62.5 46z" />
    <glyph glyph-name="Ntilde" unicode="&#xd1;" horiz-adv-x="532" 
d="M199 -117q-108 0 -151 52q-38 46 -38 147q0 81 49 183q44 91 109 168q81 88 174.5 141.5t169.5 53.5q50 0 84 -30q38 -34 38 -93q0 -88 -86 -188q-93 -108 -195 -108q-39 0 -68 25.5t-29 64.5q0 86 80 149q68 54 128 54q18 0 28 -4.5t17 -16.5q-2 -3 -2 -4q-3 -5 -5 -4
q-7 5 -9 6q-11 6 -21 6q-52 0 -115.5 -72.5t-63.5 -133.5q0 -25 17.5 -39.5t42.5 -14.5q66 0 151 117t85 204q0 35 -23 51.5t-61 16.5t-113 -53q-100 -71 -193 -198q-52 -70 -95.5 -166t-43.5 -160q0 -134 141 -134q49 0 91 21q53 26 112 95q25 30 51 68l52 76q3 3 8 -2
t3 -9q-18 -34 -28 -50q-26 -40 -69.5 -93t-93.5 -85q-64 -41 -128 -41z" />
    <glyph glyph-name="Ntilde" unicode="&#x421;" horiz-adv-x="532" 
d="M199 -117q-108 0 -151 52q-38 46 -38 147q0 81 49 183q44 91 109 168q81 88 174.5 141.5t169.5 53.5q50 0 84 -30q38 -34 38 -93q0 -88 -86 -188q-93 -108 -195 -108q-39 0 -68 25.5t-29 64.5q0 86 80 149q68 54 128 54q18 0 28 -4.5t17 -16.5q-2 -3 -2 -4q-3 -5 -5 -4
q-7 5 -9 6q-11 6 -21 6q-52 0 -115.5 -72.5t-63.5 -133.5q0 -25 17.5 -39.5t42.5 -14.5q66 0 151 117t85 204q0 35 -23 51.5t-61 16.5t-113 -53q-100 -71 -193 -198q-52 -70 -95.5 -166t-43.5 -160q0 -134 141 -134q49 0 91 21q53 26 112 95q25 30 51 68l52 76q3 3 8 -2
t3 -9q-18 -34 -28 -50q-26 -40 -69.5 -93t-93.5 -85q-64 -41 -128 -41z" />
    <glyph glyph-name="Ograve" unicode="&#xd2;" horiz-adv-x="1087" 
d="M866 567q-25 6 -157.5 17.5t-150.5 11.5q-70 0 -111 -13q-59 -19 -59 -63l2 -14q0 -6 -9.5 -4t-10.5 8l-3 33q0 64 54 93.5t150 29.5q60 0 184 -9.5t255 -19t177 -9.5q39 0 58 5t39 22q11 11 15 11q6 0 10.5 -4.5t0.5 -9.5q-8 -10 -15.5 -19t-22.5 -23q-28 -26 -66 -36
q-28 -7 -73 -7l-236 2q3 -2 5 -4t4 -6q-3 -4 -10.5 -5t-19.5 -6q-63 -25 -101.5 -77t-81.5 -160q-57 -141 -101 -213q-56 -91 -122 -132q-73 -45 -180 -45q-122 0 -190 76q-60 67 -60 167q0 130 109 227q100 89 211 89q66 0 103 -38t37 -100q0 -96 -91 -170
q-77 -63 -139 -63q-40 0 -64 15q-32 20 -32 63q0 19 13 39q1 2 5.5 0t3.5 -5q-6 -21 -6 -38q0 -53 65 -53q49 0 118 63q86 79 86 188q0 41 -24.5 62t-59.5 21q-29 0 -94 -41q-79 -50 -130 -120q-65 -90 -65 -192q0 -84 58 -131q53 -43 135 -43q42 0 87 21q60 28 109.5 89.5
t98.5 159.5q38 76 76 153q45 84 95.5 131.5t120.5 75.5zM712 92l19 100q26 136 85 215q39 51 142 130h20q-90 -94 -121 -150q-40 -70 -62 -195t-65 -174q-28 -32 -67 -32q-3 5 -3 7q0 6 5 9q33 16 47 90zM858 132q0 116 57 222.5t152 164.5h20q-84 -88 -133 -206
q-52 -124 -52 -250q0 -27 9 -44t31 -17q40 0 83 75q22 38 47 102q2 5 8 1.5t4 -12.5q-10 -40 -46 -100q-50 -82 -95 -82t-65 38.5t-20 107.5z" />
    <glyph glyph-name="Ograve" unicode="&#x422;" horiz-adv-x="1087" 
d="M866 567q-25 6 -157.5 17.5t-150.5 11.5q-70 0 -111 -13q-59 -19 -59 -63l2 -14q0 -6 -9.5 -4t-10.5 8l-3 33q0 64 54 93.5t150 29.5q60 0 184 -9.5t255 -19t177 -9.5q39 0 58 5t39 22q11 11 15 11q6 0 10.5 -4.5t0.5 -9.5q-8 -10 -15.5 -19t-22.5 -23q-28 -26 -66 -36
q-28 -7 -73 -7l-236 2q3 -2 5 -4t4 -6q-3 -4 -10.5 -5t-19.5 -6q-63 -25 -101.5 -77t-81.5 -160q-57 -141 -101 -213q-56 -91 -122 -132q-73 -45 -180 -45q-122 0 -190 76q-60 67 -60 167q0 130 109 227q100 89 211 89q66 0 103 -38t37 -100q0 -96 -91 -170
q-77 -63 -139 -63q-40 0 -64 15q-32 20 -32 63q0 19 13 39q1 2 5.5 0t3.5 -5q-6 -21 -6 -38q0 -53 65 -53q49 0 118 63q86 79 86 188q0 41 -24.5 62t-59.5 21q-29 0 -94 -41q-79 -50 -130 -120q-65 -90 -65 -192q0 -84 58 -131q53 -43 135 -43q42 0 87 21q60 28 109.5 89.5
t98.5 159.5q38 76 76 153q45 84 95.5 131.5t120.5 75.5zM712 92l19 100q26 136 85 215q39 51 142 130h20q-90 -94 -121 -150q-40 -70 -62 -195t-65 -174q-28 -32 -67 -32q-3 5 -3 7q0 6 5 9q33 16 47 90zM858 132q0 116 57 222.5t152 164.5h20q-84 -88 -133 -206
q-52 -124 -52 -250q0 -27 9 -44t31 -17q40 0 83 75q22 38 47 102q2 5 8 1.5t4 -12.5q-10 -40 -46 -100q-50 -82 -95 -82t-65 38.5t-20 107.5z" />
    <glyph glyph-name="Oacute" unicode="&#xd3;" horiz-adv-x="877" 
d="M630 -7q28 37 65 104q56 102 87 154q73 124 168 264q-32 0 -86 12t-87 12q-70 0 -95 -42q-7 -14 -13 -28h-8l-2 12q0 33 58 80q43 35 98 35q36 0 109 -15q39 -8 62 -8q36 39 68 62q43 31 76 31q12 0 20.5 -7.5t8.5 -20.5q0 -75 -68 -104q-44 -19 -110 -19
q-47 -61 -239 -385q-84 -140 -128 -198q-74 -99 -150 -145q-92 -56 -210 -56q-98 0 -168 51q-76 55 -76 142q0 105 86 189q96 94 244 94q70 0 123.5 -35.5t53.5 -96.5q0 -60 -59 -118q-70 -69 -171 -69q-55 0 -99 27q-50 30 -50 77q0 20 7 34t30 33q3 2 9 -2t2 -8
q-29 -23 -29 -57q0 -29 27 -53q34 -31 94 -31q79 0 138 48t59 118q0 41 -34 73q-39 36 -104 36q-109 0 -190.5 -69.5t-81.5 -175.5q0 -92 67 -145q58 -46 141 -46q90 0 177 57q63 41 103 95q36 49 58 114q26 78 26 166q0 172 -87 294.5t-220 122.5q-54 0 -90.5 -34.5
t-36.5 -87.5q0 -56 61 -110q69 -61 163 -61q39 0 64 17q13 9 36 35q2 3 5 0q7 -8 3 -15q-23 -39 -69 -55q-34 -12 -75 -12q-86 0 -149.5 56.5t-63.5 128.5q0 74 53 122t145 48q118 0 202 -79q103 -97 103 -277q0 -103 -14 -166q-7 -31 -37 -113zM1021 573q47 0 83 18.5
t36 44.5q0 14 -13 14q-24 0 -58 -27q-30 -24 -48 -50z" />
    <glyph glyph-name="Oacute" unicode="&#x423;" horiz-adv-x="877" 
d="M630 -7q28 37 65 104q56 102 87 154q73 124 168 264q-32 0 -86 12t-87 12q-70 0 -95 -42q-7 -14 -13 -28h-8l-2 12q0 33 58 80q43 35 98 35q36 0 109 -15q39 -8 62 -8q36 39 68 62q43 31 76 31q12 0 20.5 -7.5t8.5 -20.5q0 -75 -68 -104q-44 -19 -110 -19
q-47 -61 -239 -385q-84 -140 -128 -198q-74 -99 -150 -145q-92 -56 -210 -56q-98 0 -168 51q-76 55 -76 142q0 105 86 189q96 94 244 94q70 0 123.5 -35.5t53.5 -96.5q0 -60 -59 -118q-70 -69 -171 -69q-55 0 -99 27q-50 30 -50 77q0 20 7 34t30 33q3 2 9 -2t2 -8
q-29 -23 -29 -57q0 -29 27 -53q34 -31 94 -31q79 0 138 48t59 118q0 41 -34 73q-39 36 -104 36q-109 0 -190.5 -69.5t-81.5 -175.5q0 -92 67 -145q58 -46 141 -46q90 0 177 57q63 41 103 95q36 49 58 114q26 78 26 166q0 172 -87 294.5t-220 122.5q-54 0 -90.5 -34.5
t-36.5 -87.5q0 -56 61 -110q69 -61 163 -61q39 0 64 17q13 9 36 35q2 3 5 0q7 -8 3 -15q-23 -39 -69 -55q-34 -12 -75 -12q-86 0 -149.5 56.5t-63.5 128.5q0 74 53 122t145 48q118 0 202 -79q103 -97 103 -277q0 -103 -14 -166q-7 -31 -37 -113zM1021 573q47 0 83 18.5
t36 44.5q0 14 -13 14q-24 0 -58 -27q-30 -24 -48 -50z" />
    <glyph glyph-name="Ocircumflex" unicode="&#xd4;" horiz-adv-x="921" 
d="M604 -14q-59 0 -100 38q-37 34 -42 79l-31 -62q-65 -142 -150 -218q-102 -92 -234 -92q-89 0 -145 33q-66 39 -66 115q0 39 22 69t56 30q18 0 34 -12.5t16 -31.5q0 -20 -14 -32t-30 -12q-18 0 -25 11t-12 11q-11 0 -17.5 -15t-6.5 -30q0 -64 52 -94q45 -26 121 -26
q77 0 138 36q52 31 98 90q34 44 105 193q28 58 67 143q12 32 12 74q0 50 -27 91q-31 47 -74 47q-119 0 -202 -137q-67 -111 -67 -200q0 -33 15 -57.5t44 -24.5q60 0 133 83q77 87 77 170q0 57 -50 63q1 3 3 6t8 8q47 -7 67 -45q15 -28 15 -72q0 -82 -83 -155.5t-187 -73.5
q-53 0 -80.5 35.5t-27.5 90.5q0 144 103 238q98 89 232 89q57 0 89 -54q28 -48 28 -118q46 100 90 173q22 36 64 97q-35 8 -78 14t-85 6q-58 0 -83 -29q-17 -33 -20 -39h-8l-2 12q0 31 56 76q42 34 94 34q35 0 85 -11t77 -11q22 34 63 55.5t78 21.5q11 0 19 -6t8 -18
q0 -64 -68 -92q-42 -17 -100 -17q-55 -88 -162 -353q-4 -11 -7.5 -33t-3.5 -38q0 -58 48 -86q36 -21 83 -21q120 0 189 124q52 94 52 186q0 44 -18 76.5t-44 32.5q-69 0 -136.5 -90.5t-67.5 -178.5q0 -57 50 -63q-6 -7 -11 -14q-47 7 -67 45q-15 28 -15 72q0 86 73 163
q80 84 187 84q48 0 81.5 -42.5t33.5 -106.5q0 -89 -75 -184q-95 -120 -244 -120zM690 585q43 0 80.5 14t37.5 38q0 13 -12 13q-26 0 -58 -20.5t-48 -44.5z" />
    <glyph glyph-name="Ocircumflex" unicode="&#x424;" horiz-adv-x="921" 
d="M604 -14q-59 0 -100 38q-37 34 -42 79l-31 -62q-65 -142 -150 -218q-102 -92 -234 -92q-89 0 -145 33q-66 39 -66 115q0 39 22 69t56 30q18 0 34 -12.5t16 -31.5q0 -20 -14 -32t-30 -12q-18 0 -25 11t-12 11q-11 0 -17.5 -15t-6.5 -30q0 -64 52 -94q45 -26 121 -26
q77 0 138 36q52 31 98 90q34 44 105 193q28 58 67 143q12 32 12 74q0 50 -27 91q-31 47 -74 47q-119 0 -202 -137q-67 -111 -67 -200q0 -33 15 -57.5t44 -24.5q60 0 133 83q77 87 77 170q0 57 -50 63q1 3 3 6t8 8q47 -7 67 -45q15 -28 15 -72q0 -82 -83 -155.5t-187 -73.5
q-53 0 -80.5 35.5t-27.5 90.5q0 144 103 238q98 89 232 89q57 0 89 -54q28 -48 28 -118q46 100 90 173q22 36 64 97q-35 8 -78 14t-85 6q-58 0 -83 -29q-17 -33 -20 -39h-8l-2 12q0 31 56 76q42 34 94 34q35 0 85 -11t77 -11q22 34 63 55.5t78 21.5q11 0 19 -6t8 -18
q0 -64 -68 -92q-42 -17 -100 -17q-55 -88 -162 -353q-4 -11 -7.5 -33t-3.5 -38q0 -58 48 -86q36 -21 83 -21q120 0 189 124q52 94 52 186q0 44 -18 76.5t-44 32.5q-69 0 -136.5 -90.5t-67.5 -178.5q0 -57 50 -63q-6 -7 -11 -14q-47 7 -67 45q-15 28 -15 72q0 86 73 163
q80 84 187 84q48 0 81.5 -42.5t33.5 -106.5q0 -89 -75 -184q-95 -120 -244 -120zM690 585q43 0 80.5 14t37.5 38q0 13 -12 13q-26 0 -58 -20.5t-48 -44.5z" />
    <glyph glyph-name="Otilde" unicode="&#xd5;" horiz-adv-x="934" 
d="M545 316h-54v20h64q22 45 37 97.5t15 89.5q0 44 -24.5 66.5t-63.5 22.5q-83 0 -163 -71q-95 -85 -95 -211q0 -26 18 -43.5t49 -17.5q42 0 94 47q69 62 69 160q0 24 -13 37q-2 3 3 6t8 2q14 -5 23.5 -23.5t9.5 -39.5q0 -86 -75 -150q-64 -55 -119 -55q-42 0 -73 30
q-34 33 -34 83q0 82 87 168q95 94 209 94q57 0 86 -25q35 -30 35 -97q0 -43 -20 -116q39 65 75 108q51 61 104 92q65 38 142 38q30 0 59.5 -19.5t29.5 -51.5q0 -30 -17 -44q-13 -11 -33 -11q-15 0 -25 10t-10 26q0 19 22.5 23t22.5 16q0 35 -56 35q-27 0 -49 -5
q-49 -11 -95 -44q-40 -29 -80 -85q-43 -61 -78 -142h80v-20h-88q-29 -62 -42.5 -111.5t-13.5 -83.5q0 -51 28.5 -85t77.5 -34q72 0 141.5 99t69.5 195q0 35 -17 48q-11 8 -31 8q-36 0 -96 -73q-69 -84 -69 -169q0 -11 6 -26.5t11 -21.5q1 -2 -3 -4t-7 1q-39 34 -39 82
q0 25 20 70q26 59 69 102q19 20 56 37.5t57 17.5q35 0 60.5 -31.5t25.5 -82.5q0 -80 -63 -165q-77 -103 -190 -103q-73 0 -106 60q-25 45 -25 113q0 25 3 43l-3 1q-64 -98 -137 -152q-88 -65 -189 -65q-77 0 -133 35q-63 40 -63 105q0 42 27.5 75.5t64.5 33.5
q25 0 38.5 -13.5t13.5 -31.5t-12.5 -28.5t-30.5 -10.5q-30 0 -30 20q0 6 3 13t3 8q0 4 -8 8q-12 0 -29 -20q-20 -24 -20 -53q0 -53 48.5 -89t124.5 -36q109 0 204 100q80 84 128 214z" />
    <glyph glyph-name="Otilde" unicode="&#x425;" horiz-adv-x="934" 
d="M545 316h-54v20h64q22 45 37 97.5t15 89.5q0 44 -24.5 66.5t-63.5 22.5q-83 0 -163 -71q-95 -85 -95 -211q0 -26 18 -43.5t49 -17.5q42 0 94 47q69 62 69 160q0 24 -13 37q-2 3 3 6t8 2q14 -5 23.5 -23.5t9.5 -39.5q0 -86 -75 -150q-64 -55 -119 -55q-42 0 -73 30
q-34 33 -34 83q0 82 87 168q95 94 209 94q57 0 86 -25q35 -30 35 -97q0 -43 -20 -116q39 65 75 108q51 61 104 92q65 38 142 38q30 0 59.5 -19.5t29.5 -51.5q0 -30 -17 -44q-13 -11 -33 -11q-15 0 -25 10t-10 26q0 19 22.5 23t22.5 16q0 35 -56 35q-27 0 -49 -5
q-49 -11 -95 -44q-40 -29 -80 -85q-43 -61 -78 -142h80v-20h-88q-29 -62 -42.5 -111.5t-13.5 -83.5q0 -51 28.5 -85t77.5 -34q72 0 141.5 99t69.5 195q0 35 -17 48q-11 8 -31 8q-36 0 -96 -73q-69 -84 -69 -169q0 -11 6 -26.5t11 -21.5q1 -2 -3 -4t-7 1q-39 34 -39 82
q0 25 20 70q26 59 69 102q19 20 56 37.5t57 17.5q35 0 60.5 -31.5t25.5 -82.5q0 -80 -63 -165q-77 -103 -190 -103q-73 0 -106 60q-25 45 -25 113q0 25 3 43l-3 1q-64 -98 -137 -152q-88 -65 -189 -65q-77 0 -133 35q-63 40 -63 105q0 42 27.5 75.5t64.5 33.5
q25 0 38.5 -13.5t13.5 -31.5t-12.5 -28.5t-30.5 -10.5q-30 0 -30 20q0 6 3 13t3 8q0 4 -8 8q-12 0 -29 -20q-20 -24 -20 -53q0 -53 48.5 -89t124.5 -36q109 0 204 100q80 84 128 214z" />
    <glyph glyph-name="Odieresis" unicode="&#xd6;" horiz-adv-x="879" 
d="M834 573h62l-155 -313q-16 -32 -28.5 -95.5t-12.5 -100.5q0 -25 11 -43.5t32 -18.5q37 0 80 75q22 38 47 103q2 6 8.5 1.5t4.5 -13.5q-11 -38 -28 -71q-21 -41 -51 -79q-16 -21 -39 -43q-15 -14 -53 -49q26 0 45 -8q32 -14 75 -57q33 -40 54 -64q41 -46 64 -46
q18 0 32 14t14 25t-7 11q-8 0 -14.5 -4.5t-13.5 -4.5q-11 0 -20 8t-9 24q0 12 12 24t30 12q16 0 31 -13t15 -35q0 -32 -20 -54q-24 -27 -68 -27q-61 0 -137 87t-97 87q-15 0 -58 -45q-21 -22 -34 -22q-2 0 -6 5.5t-4 8.5q0 24 36 43q55 28 65 38q20 18 30 26q17 15 27 27
q-52 0 -76.5 38t-24.5 107q0 58 39 142l-2 3q-76 -112 -94 -136q-57 -76 -102 -110q-59 -44 -124 -44q-54 0 -85.5 44.5t-31.5 97.5q0 77 45 147q36 56 113 125q72 61 145 123q-23 -3 -75 -5.5t-156 -2.5q-88 0 -162 -48.5t-74 -114.5q0 -53 29 -78.5t103 -25.5
q4 0 3.5 -9.5t-11.5 -9.5q-70 0 -114 38q-39 34 -39 79q0 88 93.5 157.5t192.5 69.5q33 0 84 -9q114 -20 128 -20q12 0 17 1q55 48 78.5 65.5t41.5 17.5q22 0 22 -11q0 -27 -53 -51q-77 -35 -88 -44q-28 -25 -53 -53q-38 -42 -79 -96q-23 -35 -35 -54q-39 -64 -62 -116
q-33 -75 -33 -124q0 -36 22.5 -56.5t56.5 -20.5q61 0 163 121q82 97 142 204z" />
    <glyph glyph-name="Odieresis" unicode="&#x426;" horiz-adv-x="879" 
d="M834 573h62l-155 -313q-16 -32 -28.5 -95.5t-12.5 -100.5q0 -25 11 -43.5t32 -18.5q37 0 80 75q22 38 47 103q2 6 8.5 1.5t4.5 -13.5q-11 -38 -28 -71q-21 -41 -51 -79q-16 -21 -39 -43q-15 -14 -53 -49q26 0 45 -8q32 -14 75 -57q33 -40 54 -64q41 -46 64 -46
q18 0 32 14t14 25t-7 11q-8 0 -14.5 -4.5t-13.5 -4.5q-11 0 -20 8t-9 24q0 12 12 24t30 12q16 0 31 -13t15 -35q0 -32 -20 -54q-24 -27 -68 -27q-61 0 -137 87t-97 87q-15 0 -58 -45q-21 -22 -34 -22q-2 0 -6 5.5t-4 8.5q0 24 36 43q55 28 65 38q20 18 30 26q17 15 27 27
q-52 0 -76.5 38t-24.5 107q0 58 39 142l-2 3q-76 -112 -94 -136q-57 -76 -102 -110q-59 -44 -124 -44q-54 0 -85.5 44.5t-31.5 97.5q0 77 45 147q36 56 113 125q72 61 145 123q-23 -3 -75 -5.5t-156 -2.5q-88 0 -162 -48.5t-74 -114.5q0 -53 29 -78.5t103 -25.5
q4 0 3.5 -9.5t-11.5 -9.5q-70 0 -114 38q-39 34 -39 79q0 88 93.5 157.5t192.5 69.5q33 0 84 -9q114 -20 128 -20q12 0 17 1q55 48 78.5 65.5t41.5 17.5q22 0 22 -11q0 -27 -53 -51q-77 -35 -88 -44q-28 -25 -53 -53q-38 -42 -79 -96q-23 -35 -35 -54q-39 -64 -62 -116
q-33 -75 -33 -124q0 -36 22.5 -56.5t56.5 -20.5q61 0 163 121q82 97 142 204z" />
    <glyph glyph-name="multiply" unicode="&#xd7;" horiz-adv-x="900" 
d="M854 573h62l-151 -313q-15 -31 -30 -95.5t-15 -100.5q0 -25 11 -43.5t32 -18.5q37 0 80 75q22 38 47 103q2 6 8.5 1.5t4.5 -13.5q-11 -44 -42 -100q-46 -82 -94 -82q-52 0 -73 38t-21 107q0 59 20 116q16 45 48 98l-2 3q-65 -96 -119 -142q-69 -59 -141 -59
q-54 0 -85.5 41t-31.5 93q0 22 19 69t45 86.5t65 79.5q34 35 66 61q-17 -4 -28 -6q-41 -8 -92 -8q-13 0 -38 3q-58 7 -81 7q-84 0 -156.5 -50t-72.5 -116q0 -54 29 -80.5t103 -26.5q4 0 3.5 -8t-11.5 -8q-70 0 -114 38q-39 34 -39 79q0 88 93.5 157.5t192.5 69.5q33 0 84 -9
q114 -20 128 -20q12 0 17 1q31 23 63 46q31 20 56 20q22 0 22 -11q0 -26 -53 -46q-72 -27 -87 -39q-43 -50 -67 -84q-39 -56 -60 -110q-26 -68 -26 -136q0 -36 22.5 -55.5t56.5 -19.5q61 0 163 120q83 97 142 203z" />
    <glyph glyph-name="multiply" unicode="&#x427;" horiz-adv-x="900" 
d="M854 573h62l-151 -313q-15 -31 -30 -95.5t-15 -100.5q0 -25 11 -43.5t32 -18.5q37 0 80 75q22 38 47 103q2 6 8.5 1.5t4.5 -13.5q-11 -44 -42 -100q-46 -82 -94 -82q-52 0 -73 38t-21 107q0 59 20 116q16 45 48 98l-2 3q-65 -96 -119 -142q-69 -59 -141 -59
q-54 0 -85.5 41t-31.5 93q0 22 19 69t45 86.5t65 79.5q34 35 66 61q-17 -4 -28 -6q-41 -8 -92 -8q-13 0 -38 3q-58 7 -81 7q-84 0 -156.5 -50t-72.5 -116q0 -54 29 -80.5t103 -26.5q4 0 3.5 -8t-11.5 -8q-70 0 -114 38q-39 34 -39 79q0 88 93.5 157.5t192.5 69.5q33 0 84 -9
q114 -20 128 -20q12 0 17 1q31 23 63 46q31 20 56 20q22 0 22 -11q0 -26 -53 -46q-72 -27 -87 -39q-43 -50 -67 -84q-39 -56 -60 -110q-26 -68 -26 -136q0 -36 22.5 -55.5t56.5 -19.5q61 0 163 120q83 97 142 203z" />
    <glyph glyph-name="Oslash" unicode="&#xd8;" horiz-adv-x="947" 
d="M934 573h62l-165 -319q-23 -44 -42 -98q-22 -62 -22 -94q0 -27 8 -43.5t29 -16.5q40 0 83 75q22 38 47 102q2 5 8 1.5t4 -12.5q-10 -40 -46 -100q-50 -82 -95 -82q-78 0 -78 105q0 20 4 42t11 44l-3 1l-46 -88q-60 -104 -127 -104q-25 0 -41 19t-16 51q0 10 4 28.5
t7 24.5l-2 2q-27 -53 -51 -81q-38 -44 -82 -44q-26 0 -44.5 30.5t-18.5 74.5q0 129 106 299q93 149 178 206q-25 4 -80 10t-84 6q-124 0 -224 -51q-121 -62 -121 -168q0 -35 26 -55t66 -20q77 0 135 74q49 63 49 115q0 19 -12 37q-3 5 1.5 8.5t9.5 0.5q20 -15 26.5 -28.5
t6.5 -35.5q0 -57 -52 -115q-64 -72 -161 -72q-57 0 -94.5 36.5t-37.5 94.5q0 92 89 148q75 47 167 47q114 0 176 -3t132 -10q43 25 59 33q35 18 54 18q23 0 23 -13q0 -14 -40 -28q-22 -8 -66 -18q-69 -63 -118 -150q-5 -9 -69 -130q-31 -59 -70 -159.5t-39 -126.5
q0 -14 9.5 -26.5t22.5 -12.5q34 0 72 53q24 34 49 89q57 126 135 249q74 116 139 186l39 30l11 3l8 -6q-7 -6 -17 -16q-4 -4 -15 -16q-34 -45 -75.5 -117t-76.5 -141q-14 -28 -70 -142q-21 -43 -31 -70q-13 -35 -13 -63q0 -10 7 -24.5t18 -14.5q35 0 68 38q23 27 60 95
q32 62 65 124z" />
    <glyph glyph-name="Oslash" unicode="&#x428;" horiz-adv-x="947" 
d="M934 573h62l-165 -319q-23 -44 -42 -98q-22 -62 -22 -94q0 -27 8 -43.5t29 -16.5q40 0 83 75q22 38 47 102q2 5 8 1.5t4 -12.5q-10 -40 -46 -100q-50 -82 -95 -82q-78 0 -78 105q0 20 4 42t11 44l-3 1l-46 -88q-60 -104 -127 -104q-25 0 -41 19t-16 51q0 10 4 28.5
t7 24.5l-2 2q-27 -53 -51 -81q-38 -44 -82 -44q-26 0 -44.5 30.5t-18.5 74.5q0 129 106 299q93 149 178 206q-25 4 -80 10t-84 6q-124 0 -224 -51q-121 -62 -121 -168q0 -35 26 -55t66 -20q77 0 135 74q49 63 49 115q0 19 -12 37q-3 5 1.5 8.5t9.5 0.5q20 -15 26.5 -28.5
t6.5 -35.5q0 -57 -52 -115q-64 -72 -161 -72q-57 0 -94.5 36.5t-37.5 94.5q0 92 89 148q75 47 167 47q114 0 176 -3t132 -10q43 25 59 33q35 18 54 18q23 0 23 -13q0 -14 -40 -28q-22 -8 -66 -18q-69 -63 -118 -150q-5 -9 -69 -130q-31 -59 -70 -159.5t-39 -126.5
q0 -14 9.5 -26.5t22.5 -12.5q34 0 72 53q24 34 49 89q57 126 135 249q74 116 139 186l39 30l11 3l8 -6q-7 -6 -17 -16q-4 -4 -15 -16q-34 -45 -75.5 -117t-76.5 -141q-14 -28 -70 -142q-21 -43 -31 -70q-13 -35 -13 -63q0 -10 7 -24.5t18 -14.5q35 0 68 38q23 27 60 95
q32 62 65 124z" />
    <glyph glyph-name="Ugrave" unicode="&#xd9;" horiz-adv-x="969" 
d="M934 573h62l-165 -319q-21 -40 -34 -92t-13 -98q0 -25 11 -43.5t32 -18.5q37 0 80 75q22 38 47 103q2 6 8.5 1.5t4.5 -13.5q-11 -38 -28 -71q-21 -41 -51 -79q-16 -21 -39 -43q-15 -14 -53 -49q26 0 45 -8q32 -14 75 -57q31 -38 51 -59q38 -41 61 -41q18 0 32 14t14 25
t-7 11q-8 0 -14.5 -4.5t-13.5 -4.5q-11 0 -20 8t-9 24q0 12 12 24t30 12q16 0 31 -13t15 -35q0 -32 -20 -54q-24 -27 -68 -27q-61 0 -134 82t-94 82q-15 0 -58 -45q-21 -22 -34 -22q-2 0 -6 5.5t-4 8.5q0 24 36 43q55 28 65 38q20 18 30 26q17 15 27 27q-52 0 -76.5 38
t-24.5 107q0 24 8 54l-3 -8l-3 1l-46 -88q-60 -104 -127 -104q-25 0 -41 19t-16 51q0 10 4 28.5t7 24.5l-2 2q-27 -53 -51 -81q-38 -44 -82 -44q-26 0 -44.5 30.5t-18.5 74.5q0 129 106 299q93 149 178 206q-25 4 -80 10t-84 6q-124 0 -224 -51q-121 -62 -121 -168
q0 -35 26 -55t66 -20q77 0 135 74q49 63 49 115q0 19 -12 37q-3 5 1.5 8.5t9.5 0.5q20 -15 26.5 -28.5t6.5 -35.5q0 -57 -52 -115q-64 -72 -161 -72q-57 0 -94.5 36.5t-37.5 94.5q0 92 89 148q75 47 167 47q114 0 176 -3t132 -10q43 25 59 33q35 18 54 18q23 0 23 -13
q0 -14 -40 -28q-22 -8 -66 -18q-69 -63 -118 -150q-5 -9 -69 -130q-31 -59 -70 -159.5t-39 -126.5q0 -14 9.5 -26.5t22.5 -12.5q34 0 72 53q24 34 49 89q57 126 135 249q74 116 139 186l39 30l11 3l8 -6q-7 -6 -17 -16q-4 -4 -15 -16q-34 -45 -75.5 -117t-76.5 -141
q-14 -28 -70 -142q-21 -43 -31 -70q-13 -35 -13 -63q0 -10 7 -24.5t18 -14.5q35 0 68 38q23 27 60 95q32 62 65 124z" />
    <glyph glyph-name="Ugrave" unicode="&#x429;" horiz-adv-x="969" 
d="M934 573h62l-165 -319q-21 -40 -34 -92t-13 -98q0 -25 11 -43.5t32 -18.5q37 0 80 75q22 38 47 103q2 6 8.5 1.5t4.5 -13.5q-11 -38 -28 -71q-21 -41 -51 -79q-16 -21 -39 -43q-15 -14 -53 -49q26 0 45 -8q32 -14 75 -57q31 -38 51 -59q38 -41 61 -41q18 0 32 14t14 25
t-7 11q-8 0 -14.5 -4.5t-13.5 -4.5q-11 0 -20 8t-9 24q0 12 12 24t30 12q16 0 31 -13t15 -35q0 -32 -20 -54q-24 -27 -68 -27q-61 0 -134 82t-94 82q-15 0 -58 -45q-21 -22 -34 -22q-2 0 -6 5.5t-4 8.5q0 24 36 43q55 28 65 38q20 18 30 26q17 15 27 27q-52 0 -76.5 38
t-24.5 107q0 24 8 54l-3 -8l-3 1l-46 -88q-60 -104 -127 -104q-25 0 -41 19t-16 51q0 10 4 28.5t7 24.5l-2 2q-27 -53 -51 -81q-38 -44 -82 -44q-26 0 -44.5 30.5t-18.5 74.5q0 129 106 299q93 149 178 206q-25 4 -80 10t-84 6q-124 0 -224 -51q-121 -62 -121 -168
q0 -35 26 -55t66 -20q77 0 135 74q49 63 49 115q0 19 -12 37q-3 5 1.5 8.5t9.5 0.5q20 -15 26.5 -28.5t6.5 -35.5q0 -57 -52 -115q-64 -72 -161 -72q-57 0 -94.5 36.5t-37.5 94.5q0 92 89 148q75 47 167 47q114 0 176 -3t132 -10q43 25 59 33q35 18 54 18q23 0 23 -13
q0 -14 -40 -28q-22 -8 -66 -18q-69 -63 -118 -150q-5 -9 -69 -130q-31 -59 -70 -159.5t-39 -126.5q0 -14 9.5 -26.5t22.5 -12.5q34 0 72 53q24 34 49 89q57 126 135 249q74 116 139 186l39 30l11 3l8 -6q-7 -6 -17 -16q-4 -4 -15 -16q-34 -45 -75.5 -117t-76.5 -141
q-14 -28 -70 -142q-21 -43 -31 -70q-13 -35 -13 -63q0 -10 7 -24.5t18 -14.5q35 0 68 38q23 27 60 95q32 62 65 124z" />
    <glyph glyph-name="Uacute" unicode="&#xda;" horiz-adv-x="716" 
d="M553 558q-40 11 -85.5 18t-113.5 7q-111 0 -181 -59t-70 -147q0 -52 34 -91t79 -39q24 0 35 4q5 2 9 -4t-3 -10q-4 -2 -19 -5t-22 -3q-64 0 -108 34q-48 38 -48 101q0 112 118 190q111 73 252 73q121 -8 131 -8q34 0 56 16q12 9 24 27q3 4 8 4q2 0 5 -4q-6 -24 -16 -41
q-6 -11 -26 -35q-49 -61 -80 -100q-56 -69 -75 -91.5t-37 -43.5q-26 -33 -52 -82q-15 -27 -26 -65q-14 -48 -14 -92q0 -42 33 -76t83 -34q86 0 156 123q59 103 59 177q0 33 -14.5 56.5t-35.5 23.5q-59 0 -100 -65.5t-41 -158.5q0 -26 17 -43q14 -14 26 -14l2 -2q-2 -7 -6 -7
q-35 0 -64 27t-29 62q0 89 58 153t140 64q39 0 67 -39t28 -96q0 -78 -60 -165q-77 -112 -197 -112q-72 0 -122 44q-54 47 -54 124q0 78 50 150q31 45 112 124q85 83 117 130z" />
    <glyph glyph-name="Uacute" unicode="&#x42a;" horiz-adv-x="716" 
d="M553 558q-40 11 -85.5 18t-113.5 7q-111 0 -181 -59t-70 -147q0 -52 34 -91t79 -39q24 0 35 4q5 2 9 -4t-3 -10q-4 -2 -19 -5t-22 -3q-64 0 -108 34q-48 38 -48 101q0 112 118 190q111 73 252 73q121 -8 131 -8q34 0 56 16q12 9 24 27q3 4 8 4q2 0 5 -4q-6 -24 -16 -41
q-6 -11 -26 -35q-49 -61 -80 -100q-56 -69 -75 -91.5t-37 -43.5q-26 -33 -52 -82q-15 -27 -26 -65q-14 -48 -14 -92q0 -42 33 -76t83 -34q86 0 156 123q59 103 59 177q0 33 -14.5 56.5t-35.5 23.5q-59 0 -100 -65.5t-41 -158.5q0 -26 17 -43q14 -14 26 -14l2 -2q-2 -7 -6 -7
q-35 0 -64 27t-29 62q0 89 58 153t140 64q39 0 67 -39t28 -96q0 -78 -60 -165q-77 -112 -197 -112q-72 0 -122 44q-54 47 -54 124q0 78 50 150q31 45 112 124q85 83 117 130z" />
    <glyph glyph-name="Ucircumflex" unicode="&#xdb;" horiz-adv-x="964" 
d="M848 -14q-32 0 -52.5 36.5t-20.5 88.5q0 38 23 109q32 99 99 213q48 81 102 129q75 66 158 66q34 0 59.5 -16t25.5 -40q0 -17 -10.5 -29.5t-26.5 -12.5q-15 0 -25 8t-10 22q0 11 12 19t12 14q0 7 -12 13t-26 6q-41 0 -87 -39q-65 -56 -137 -189q-51 -94 -83 -185.5
t-32 -142.5q0 -19 9 -36.5t23 -17.5q17 0 46 48q25 42 40 85q1 3 7.5 -0.5t4.5 -10.5q-11 -37 -33 -77q-34 -61 -66 -61zM453 -14q-77 0 -131 60q-48 53 -48 110q0 115 88 208q63 67 169 120q50 22 101 44q-57 22 -149 40t-126 18q-94 0 -168 -60q-79 -64 -79 -155
q0 -63 43 -99t108 -36q6 0 5 -8t-5 -8h-39q-162 0 -162 137q0 107 106 187q111 84 273 84q62 0 204 -32t195 -32q39 0 57 6q7 2 35 18q13 8 16 8q7 -7 7 -10q-1 -3 -3 -6t-4 -5q-41 -48 -88 -65q-33 -12 -83 -12q-22 0 -55 9t-38 9q-28 -7 -50 -14t-57 -24
q-97 -46 -164 -137q-73 -99 -73 -203q0 -49 31.5 -92.5t76.5 -43.5q58 0 132 78q90 94 90 220q0 29 -12 50.5t-35 21.5q-56 0 -101.5 -60t-45.5 -138q0 -23 7 -38t26 -27l3 -5q0 -6 -11 -6q-4 0 -9 3q-23 12 -37.5 37.5t-14.5 57.5q0 62 48 122q56 70 135 70q35 0 63 -28
q34 -34 34 -93q0 -108 -94 -198q-87 -83 -171 -83z" />
    <glyph glyph-name="Ucircumflex" unicode="&#x42b;" horiz-adv-x="964" 
d="M848 -14q-32 0 -52.5 36.5t-20.5 88.5q0 38 23 109q32 99 99 213q48 81 102 129q75 66 158 66q34 0 59.5 -16t25.5 -40q0 -17 -10.5 -29.5t-26.5 -12.5q-15 0 -25 8t-10 22q0 11 12 19t12 14q0 7 -12 13t-26 6q-41 0 -87 -39q-65 -56 -137 -189q-51 -94 -83 -185.5
t-32 -142.5q0 -19 9 -36.5t23 -17.5q17 0 46 48q25 42 40 85q1 3 7.5 -0.5t4.5 -10.5q-11 -37 -33 -77q-34 -61 -66 -61zM453 -14q-77 0 -131 60q-48 53 -48 110q0 115 88 208q63 67 169 120q50 22 101 44q-57 22 -149 40t-126 18q-94 0 -168 -60q-79 -64 -79 -155
q0 -63 43 -99t108 -36q6 0 5 -8t-5 -8h-39q-162 0 -162 137q0 107 106 187q111 84 273 84q62 0 204 -32t195 -32q39 0 57 6q7 2 35 18q13 8 16 8q7 -7 7 -10q-1 -3 -3 -6t-4 -5q-41 -48 -88 -65q-33 -12 -83 -12q-22 0 -55 9t-38 9q-28 -7 -50 -14t-57 -24
q-97 -46 -164 -137q-73 -99 -73 -203q0 -49 31.5 -92.5t76.5 -43.5q58 0 132 78q90 94 90 220q0 29 -12 50.5t-35 21.5q-56 0 -101.5 -60t-45.5 -138q0 -23 7 -38t26 -27l3 -5q0 -6 -11 -6q-4 0 -9 3q-23 12 -37.5 37.5t-14.5 57.5q0 62 48 122q56 70 135 70q35 0 63 -28
q34 -34 34 -93q0 -108 -94 -198q-87 -83 -171 -83z" />
    <glyph glyph-name="Udieresis" unicode="&#xdc;" horiz-adv-x="737" 
d="M453 -14q-77 0 -131 60q-48 53 -48 110q0 115 88 208q63 67 169 120q50 22 101 44q-57 22 -149 40t-126 18q-94 0 -168 -60q-79 -64 -79 -155q0 -63 43 -99t108 -36q6 0 5 -8t-5 -8h-39q-162 0 -162 137q0 107 106 187q111 84 273 84q53 0 131 -16t157.5 -32t122.5 -16
q39 0 57 6q7 2 35 18q13 8 16 8q7 -7 7 -10q-1 -3 -3 -6t-4 -5q-41 -48 -88 -65q-33 -12 -83 -12q-27 0 -52.5 5.5t-52.5 12.5q-28 -7 -50 -14t-57 -24q-96 -46 -164 -145q-73 -107 -73 -219q0 -46 31 -79t77 -33q58 0 132 78q90 94 90 220q0 29 -12 50.5t-35 21.5
q-32 0 -86 -64q-61 -73 -61 -144q0 -21 6.5 -31.5t26.5 -23.5l3 -5q0 -6 -11 -6q-4 0 -9 3q-22 12 -37 35.5t-15 48.5q0 57 59 127q64 76 124 76q35 0 63 -28q34 -34 34 -93q0 -108 -94 -198q-87 -83 -171 -83z" />
    <glyph glyph-name="Udieresis" unicode="&#x42c;" horiz-adv-x="737" 
d="M453 -14q-77 0 -131 60q-48 53 -48 110q0 115 88 208q63 67 169 120q50 22 101 44q-57 22 -149 40t-126 18q-94 0 -168 -60q-79 -64 -79 -155q0 -63 43 -99t108 -36q6 0 5 -8t-5 -8h-39q-162 0 -162 137q0 107 106 187q111 84 273 84q53 0 131 -16t157.5 -32t122.5 -16
q39 0 57 6q7 2 35 18q13 8 16 8q7 -7 7 -10q-1 -3 -3 -6t-4 -5q-41 -48 -88 -65q-33 -12 -83 -12q-27 0 -52.5 5.5t-52.5 12.5q-28 -7 -50 -14t-57 -24q-96 -46 -164 -145q-73 -107 -73 -219q0 -46 31 -79t77 -33q58 0 132 78q90 94 90 220q0 29 -12 50.5t-35 21.5
q-32 0 -86 -64q-61 -73 -61 -144q0 -21 6.5 -31.5t26.5 -23.5l3 -5q0 -6 -11 -6q-4 0 -9 3q-22 12 -37 35.5t-15 48.5q0 57 59 127q64 76 124 76q35 0 63 -28q34 -34 34 -93q0 -108 -94 -198q-87 -83 -171 -83z" />
    <glyph glyph-name="Yacute" unicode="&#xdd;" horiz-adv-x="651" 
d="M413 336h177q6 31 9 75.5t3 82.5q0 57 -32 106.5t-76 49.5q-53 0 -90 -22q-24 -14 -44 -41q-2 -3 -6 -13t-4 -12q0 -19 16 -19q9 0 15 -10t6 -18q0 -25 -21.5 -41t-45.5 -16q-23 0 -33 15.5t-10 36.5q0 63 63 108q67 48 171 48q69 0 113.5 -54t44.5 -157
q0 -221 -132 -377.5t-318 -156.5q-97 0 -153 45q-51 41 -51 102q0 117 89 189q73 59 156 59q69 0 107.5 -30t38.5 -77q0 -80 -59 -135q-53 -49 -131 -63q-3 -1 -6.5 5.5t0.5 8.5q60 31 95 72q40 48 40 106q0 47 -21 72t-59 25q-75 0 -132 -68t-57 -154q0 -63 24 -97
q31 -44 102 -44q136 0 241 104t142 275h-172v20z" />
    <glyph glyph-name="Yacute" unicode="&#x42d;" horiz-adv-x="651" 
d="M413 336h177q6 31 9 75.5t3 82.5q0 57 -32 106.5t-76 49.5q-53 0 -90 -22q-24 -14 -44 -41q-2 -3 -6 -13t-4 -12q0 -19 16 -19q9 0 15 -10t6 -18q0 -25 -21.5 -41t-45.5 -16q-23 0 -33 15.5t-10 36.5q0 63 63 108q67 48 171 48q69 0 113.5 -54t44.5 -157
q0 -221 -132 -377.5t-318 -156.5q-97 0 -153 45q-51 41 -51 102q0 117 89 189q73 59 156 59q69 0 107.5 -30t38.5 -77q0 -80 -59 -135q-53 -49 -131 -63q-3 -1 -6.5 5.5t0.5 8.5q60 31 95 72q40 48 40 106q0 47 -21 72t-59 25q-75 0 -132 -68t-57 -154q0 -63 24 -97
q31 -44 102 -44q136 0 241 104t142 275h-172v20z" />
    <glyph glyph-name="Thorn" unicode="&#xde;" horiz-adv-x="1192" 
d="M1227 482q0 -70 -28.5 -152t-80.5 -162q-56 -87 -118 -132q-69 -50 -148 -50q-88 0 -141.5 56.5t-53.5 142.5q0 41 9.5 78t27.5 73h-63q-24 -57 -32 -74q-23 -46 -64 -104q-63 -87 -155 -132q-82 -40 -169 -40q-83 0 -137 32q-64 38 -64 110q0 36 23.5 67t56.5 31
q29 0 40 -17q7 -11 7 -28q0 -19 -11.5 -32.5t-29.5 -13.5q-13 0 -20 11q-10 17 -17 22q-19 -14 -22 -20t-3 -33q0 -57 48 -84t129 -27q102 0 177 63q57 48 104 137q30 66 61 132h-37v22h47q39 85 74 131q44 59 118 114q-99 9 -173 9q-125 0 -223 -48q-121 -59 -121 -165
q0 -35 26 -53.5t66 -18.5q78 0 135 72q49 61 49 114q0 19 -12 37q-3 5 1.5 8.5t9.5 0.5q21 -15 27.5 -28t6.5 -36q0 -57 -52 -115q-65 -72 -162 -72q-57 0 -94.5 36.5t-37.5 94.5q0 92 89 145q74 44 167 44q106 0 173.5 -2t157.5 -4l42 32q18 12 46 12q22 0 22 -17
q0 -13 -27 -21q-57 -16 -62 -18q-59 -38 -112 -126q-40 -66 -59 -126h68q25 43 59 80q26 28 56 51q88 65 183 74q32 31 61 46q35 19 72 19q43 0 66.5 -42t23.5 -104zM1185 532q0 36 -13.5 58t-39.5 22q-46 0 -104 -61q-48 -50 -96 -133q-41 -68 -65 -128t-24 -99
q0 -43 36 -64q-1 -4 -1 -7q-6 -6 -10 -4q-33 16 -51 53q-14 29 -14 55q0 85 74 192q37 53 110 131q-57 -16 -120 -83q-50 -54 -73 -103q-36 -73 -54.5 -134t-18.5 -96q0 -54 33.5 -91.5t88.5 -37.5q67 0 127 64q46 49 95 144q56 111 90 206q30 84 30 116z" />
    <glyph glyph-name="Thorn" unicode="&#x42e;" horiz-adv-x="1192" 
d="M1227 482q0 -70 -28.5 -152t-80.5 -162q-56 -87 -118 -132q-69 -50 -148 -50q-88 0 -141.5 56.5t-53.5 142.5q0 41 9.5 78t27.5 73h-63q-24 -57 -32 -74q-23 -46 -64 -104q-63 -87 -155 -132q-82 -40 -169 -40q-83 0 -137 32q-64 38 -64 110q0 36 23.5 67t56.5 31
q29 0 40 -17q7 -11 7 -28q0 -19 -11.5 -32.5t-29.5 -13.5q-13 0 -20 11q-10 17 -17 22q-19 -14 -22 -20t-3 -33q0 -57 48 -84t129 -27q102 0 177 63q57 48 104 137q30 66 61 132h-37v22h47q39 85 74 131q44 59 118 114q-99 9 -173 9q-125 0 -223 -48q-121 -59 -121 -165
q0 -35 26 -53.5t66 -18.5q78 0 135 72q49 61 49 114q0 19 -12 37q-3 5 1.5 8.5t9.5 0.5q21 -15 27.5 -28t6.5 -36q0 -57 -52 -115q-65 -72 -162 -72q-57 0 -94.5 36.5t-37.5 94.5q0 92 89 145q74 44 167 44q106 0 173.5 -2t157.5 -4l42 32q18 12 46 12q22 0 22 -17
q0 -13 -27 -21q-57 -16 -62 -18q-59 -38 -112 -126q-40 -66 -59 -126h68q25 43 59 80q26 28 56 51q88 65 183 74q32 31 61 46q35 19 72 19q43 0 66.5 -42t23.5 -104zM1185 532q0 36 -13.5 58t-39.5 22q-46 0 -104 -61q-48 -50 -96 -133q-41 -68 -65 -128t-24 -99
q0 -43 36 -64q-1 -4 -1 -7q-6 -6 -10 -4q-33 16 -51 53q-14 29 -14 55q0 85 74 192q37 53 110 131q-57 -16 -120 -83q-50 -54 -73 -103q-36 -73 -54.5 -134t-18.5 -96q0 -54 33.5 -91.5t88.5 -37.5q67 0 127 64q46 49 95 144q56 111 90 206q30 84 30 116z" />
    <glyph glyph-name="germandbls" unicode="&#xdf;" horiz-adv-x="742" 
d="M594 -14q-45 0 -65 38.5t-20 107.5q0 31 11 85t35.5 124t52.5 126q25 50 70 121q-27 11 -58.5 16.5t-58.5 5.5q-77 0 -132.5 -51.5t-55.5 -121.5q0 -56 25.5 -89.5t66.5 -33.5q15 0 38.5 2.5t26.5 2.5l3 -5q0 -5 -4.5 -11.5t-8.5 -6.5h-51q-35 0 -72 -30
q-46 -38 -64 -108q-21 -83 -68 -127.5t-117 -44.5q-62 0 -100 38t-38 94q0 36 23.5 67t56.5 31q23 0 37.5 -12t14.5 -34q0 -18 -13.5 -31.5t-32.5 -13.5q-12 0 -19.5 16.5t-17.5 16.5q-25 0 -25 -53q0 -41 35 -71t82 -30q38 0 67 52q23 40 42 117q13 53 51.5 88.5
t102.5 43.5q-49 2 -86 42t-37 100q0 75 76 128t186 53q33 0 68 -5t66 -19q15 21 30 34q10 9 33 25l11 3q8 -3 8 -5l-6 -5q-12 -10 -24.5 -25.5t-25.5 -34.5q44 -23 75.5 -61.5t31.5 -70.5q0 -49 -29 -80t-71 -31q-17 0 -35 3.5t-34 13.5q-4 3 -4 9v5q2 4 6 2q6 -4 18.5 -5
t23.5 -3q29 0 49 25t20 61q0 28 -18 60t-45 51q-23 -43 -44 -101q-2 -6 -45 -137q-28 -86 -43.5 -155.5t-15.5 -118.5q0 -27 9 -43t31 -16q40 0 83 74q23 39 47 101q2 5 8 1.5t4 -12.5q-10 -40 -46 -100q-50 -82 -95 -82z" />
    <glyph glyph-name="germandbls" unicode="&#x42f;" horiz-adv-x="742" 
d="M594 -14q-45 0 -65 38.5t-20 107.5q0 31 11 85t35.5 124t52.5 126q25 50 70 121q-27 11 -58.5 16.5t-58.5 5.5q-77 0 -132.5 -51.5t-55.5 -121.5q0 -56 25.5 -89.5t66.5 -33.5q15 0 38.5 2.5t26.5 2.5l3 -5q0 -5 -4.5 -11.5t-8.5 -6.5h-51q-35 0 -72 -30
q-46 -38 -64 -108q-21 -83 -68 -127.5t-117 -44.5q-62 0 -100 38t-38 94q0 36 23.5 67t56.5 31q23 0 37.5 -12t14.5 -34q0 -18 -13.5 -31.5t-32.5 -13.5q-12 0 -19.5 16.5t-17.5 16.5q-25 0 -25 -53q0 -41 35 -71t82 -30q38 0 67 52q23 40 42 117q13 53 51.5 88.5
t102.5 43.5q-49 2 -86 42t-37 100q0 75 76 128t186 53q33 0 68 -5t66 -19q15 21 30 34q10 9 33 25l11 3q8 -3 8 -5l-6 -5q-12 -10 -24.5 -25.5t-25.5 -34.5q44 -23 75.5 -61.5t31.5 -70.5q0 -49 -29 -80t-71 -31q-17 0 -35 3.5t-34 13.5q-4 3 -4 9v5q2 4 6 2q6 -4 18.5 -5
t23.5 -3q29 0 49 25t20 61q0 28 -18 60t-45 51q-23 -43 -44 -101q-2 -6 -45 -137q-28 -86 -43.5 -155.5t-15.5 -118.5q0 -27 9 -43t31 -16q40 0 83 74q23 39 47 101q2 5 8 1.5t4 -12.5q-10 -40 -46 -100q-50 -82 -95 -82z" />
    <glyph glyph-name="agrave" unicode="&#xe0;" horiz-adv-x="362" 
d="M265 295l18 41h62l-115 -301q0 -31 19 -31q29 0 55 42q15 24 27 60q3 7 8 7q8 0 6 -8q-9 -36 -28 -67q-30 -48 -68 -48q-24 0 -36 22.5t-12 56.5q0 9 2.5 29t10.5 46q-57 -85 -60 -88q-52 -66 -89 -66q-26 0 -40.5 25t-14.5 60q0 82 74 175t138 93q23 0 33 -14t10 -34z
M249 285q0 24 -6.5 34t-16.5 10q-15 0 -33 -23q-21 -27 -78 -128q-19 -35 -41 -86.5t-22 -65.5q0 -6 4.5 -14t10.5 -8q17 0 49 34q36 39 70 91q28 47 47 96q16 42 16 60z" />
    <glyph glyph-name="agrave" unicode="&#x430;" horiz-adv-x="362" 
d="M265 295l18 41h62l-115 -301q0 -31 19 -31q29 0 55 42q15 24 27 60q3 7 8 7q8 0 6 -8q-9 -36 -28 -67q-30 -48 -68 -48q-24 0 -36 22.5t-12 56.5q0 9 2.5 29t10.5 46q-57 -85 -60 -88q-52 -66 -89 -66q-26 0 -40.5 25t-14.5 60q0 82 74 175t138 93q23 0 33 -14t10 -34z
M249 285q0 24 -6.5 34t-16.5 10q-15 0 -33 -23q-21 -27 -78 -128q-19 -35 -41 -86.5t-22 -65.5q0 -6 4.5 -14t10.5 -8q17 0 49 34q36 39 70 91q28 47 47 96q16 42 16 60z" />
    <glyph glyph-name="aacute" unicode="&#xe1;" horiz-adv-x="332" 
d="M119 -10q-53 0 -81 32.5t-28 79.5q0 27 11 60q20 66 56 150q24 58 55 121q46 95 109 152t123 57h73q21 0 36 4.5t19 16.5q9 3 11 3l5 -3q-8 -39 -21 -54q-19 -21 -60 -21h-67q-65 0 -107 -28q-55 -37 -106 -138q-14 -28 -43 -95q-18 -42 -26 -61q30 37 60 55q36 22 82 22
t69 -26t23 -67q0 -69 -44 -151q-58 -109 -149 -109zM111 4q49 0 102 132q45 112 45 150q0 19 -5 27q-10 16 -36 16q-48 0 -102 -121q-47 -106 -47 -150q0 -24 10 -39t33 -15z" />
    <glyph glyph-name="aacute" unicode="&#x431;" horiz-adv-x="332" 
d="M119 -10q-53 0 -81 32.5t-28 79.5q0 27 11 60q20 66 56 150q24 58 55 121q46 95 109 152t123 57h73q21 0 36 4.5t19 16.5q9 3 11 3l5 -3q-8 -39 -21 -54q-19 -21 -60 -21h-67q-65 0 -107 -28q-55 -37 -106 -138q-14 -28 -43 -95q-18 -42 -26 -61q30 37 60 55q36 22 82 22
t69 -26t23 -67q0 -69 -44 -151q-58 -109 -149 -109zM111 4q49 0 102 132q45 112 45 150q0 19 -5 27q-10 16 -36 16q-48 0 -102 -121q-47 -106 -47 -150q0 -24 10 -39t33 -15z" />
    <glyph glyph-name="acircumflex" unicode="&#xe2;" horiz-adv-x="302" 
d="M92 -10q-52 0 -67 20.5t-15 63.5q0 51 37 151q27 73 85 198q25 53 53 95q36 54 70 81q49 39 53 41q43 26 92 26q25 0 43.5 -16.5t18.5 -39.5q0 -51 -35 -102q-30 -44 -85 -89q-35 -29 -106 -76q25 0 38 -30q10 -23 10 -57q0 -76 -59 -167q-64 -99 -133 -99zM215 460
l-64 -143q151 70 218 165q48 68 48 135q0 14 -8.5 24.5t-21.5 10.5q-36 0 -86 -56t-86 -136zM87 4q30 0 59 48q15 25 40 85q21 50 34.5 96t13.5 68q0 12 -8.5 20.5t-21.5 8.5l-62 -33l-63 -163q-25 -66 -25 -90q0 -17 9.5 -28.5t23.5 -11.5z" />
    <glyph glyph-name="acircumflex" unicode="&#x432;" horiz-adv-x="302" 
d="M92 -10q-52 0 -67 20.5t-15 63.5q0 51 37 151q27 73 85 198q25 53 53 95q36 54 70 81q49 39 53 41q43 26 92 26q25 0 43.5 -16.5t18.5 -39.5q0 -51 -35 -102q-30 -44 -85 -89q-35 -29 -106 -76q25 0 38 -30q10 -23 10 -57q0 -76 -59 -167q-64 -99 -133 -99zM215 460
l-64 -143q151 70 218 165q48 68 48 135q0 14 -8.5 24.5t-21.5 10.5q-36 0 -86 -56t-86 -136zM87 4q30 0 59 48q15 25 40 85q21 50 34.5 96t13.5 68q0 12 -8.5 20.5t-21.5 8.5l-62 -33l-63 -163q-25 -66 -25 -90q0 -17 9.5 -28.5t23.5 -11.5z" />
    <glyph glyph-name="atilde" unicode="&#xe3;" horiz-adv-x="276" 
d="M86 -10q-33 0 -56.5 21.5t-23.5 49.5q0 70 104.5 131.5t104.5 97.5q0 15 -10 27t-33 12q-27 0 -43 -8t-16 -22q0 -17 10 -17q12 0 12 -22q0 -14 -11.5 -21.5t-33.5 -7.5q-27 0 -27 32q0 33 31.5 56.5t83.5 23.5q34 0 59 -17.5t25 -43.5q0 -51 -56 -95q-53 -34 -105 -67
q-57 -38 -57 -73q0 -20 16 -31.5t41 -11.5q38 0 65 19q21 15 21 27q0 11 -11 11q-9 0 -16.5 7.5t-7.5 18.5q0 17 13 28t36 11q14 0 24 -8t10 -19q0 -46 -50 -79q-46 -30 -99 -30z" />
    <glyph glyph-name="atilde" unicode="&#x433;" horiz-adv-x="276" 
d="M86 -10q-33 0 -56.5 21.5t-23.5 49.5q0 70 104.5 131.5t104.5 97.5q0 15 -10 27t-33 12q-27 0 -43 -8t-16 -22q0 -17 10 -17q12 0 12 -22q0 -14 -11.5 -21.5t-33.5 -7.5q-27 0 -27 32q0 33 31.5 56.5t83.5 23.5q34 0 59 -17.5t25 -43.5q0 -51 -56 -95q-53 -34 -105 -67
q-57 -38 -57 -73q0 -20 16 -31.5t41 -11.5q38 0 65 19q21 15 21 27q0 11 -11 11q-9 0 -16.5 7.5t-7.5 18.5q0 17 13 28t36 11q14 0 24 -8t10 -19q0 -46 -50 -79q-46 -30 -99 -30z" />
    <glyph glyph-name="adieresis" unicode="&#xe4;" horiz-adv-x="346" 
d="M266 295l11 27q5 14 17 14h76q5 0 3 -7t-9 -7q-22 0 -30 -19l-155 -382q-31 -78 -80 -119q-67 -56 -174 -56q-61 0 -94 30q-28 25 -28 58q0 16 15 35q19 23 43 23q15 0 28.5 -10t13.5 -29q0 -36 -28 -36q-8 0 -16 3.5t-15 5.5q-6 0 -6 -11q0 -19 18 -34q25 -21 69 -21
q66 0 116 46q43 40 76 115l98 223q-57 -85 -60 -88q-52 -66 -89 -66q-26 0 -40.5 25t-14.5 60q0 82 74 175t138 93q23 0 33 -14t10 -34zM250 285q0 24 -6.5 34t-16.5 10q-15 0 -33 -23q-21 -27 -78 -128q-19 -35 -41 -86.5t-22 -65.5q0 -6 4.5 -14t10.5 -8q17 0 49 34
q36 39 70 91q28 47 47 96q16 42 16 60z" />
    <glyph glyph-name="adieresis" unicode="&#x434;" horiz-adv-x="346" 
d="M266 295l11 27q5 14 17 14h76q5 0 3 -7t-9 -7q-22 0 -30 -19l-155 -382q-31 -78 -80 -119q-67 -56 -174 -56q-61 0 -94 30q-28 25 -28 58q0 16 15 35q19 23 43 23q15 0 28.5 -10t13.5 -29q0 -36 -28 -36q-8 0 -16 3.5t-15 5.5q-6 0 -6 -11q0 -19 18 -34q25 -21 69 -21
q66 0 116 46q43 40 76 115l98 223q-57 -85 -60 -88q-52 -66 -89 -66q-26 0 -40.5 25t-14.5 60q0 82 74 175t138 93q23 0 33 -14t10 -34zM250 285q0 24 -6.5 34t-16.5 10q-15 0 -33 -23q-21 -27 -78 -128q-19 -35 -41 -86.5t-22 -65.5q0 -6 4.5 -14t10.5 -8q17 0 49 34
q36 39 70 91q28 47 47 96q16 42 16 60z" />
    <glyph glyph-name="aring" unicode="&#xe5;" horiz-adv-x="279" 
d="M276 291q0 -62 -51 -94q-41 -26 -97 -26l-28 2q-18 -38 -28.5 -69t-10.5 -47q0 -49 49 -49q38 0 69 39q12 16 30 47q14 26 18 33q1 3 7 1t5 -6q-12 -26 -25.5 -49t-27.5 -41q-32 -42 -81 -42q-44 0 -69.5 28.5t-25.5 73.5q0 87 67 169t141 82q58 0 58 -52zM223 307
q0 22 -15 22q-25 0 -60 -59q-8 -13 -41 -82l17 -1q52 0 79 48q20 35 20 72z" />
    <glyph glyph-name="aring" unicode="&#x435;" horiz-adv-x="279" 
d="M276 291q0 -62 -51 -94q-41 -26 -97 -26l-28 2q-18 -38 -28.5 -69t-10.5 -47q0 -49 49 -49q38 0 69 39q12 16 30 47q14 26 18 33q1 3 7 1t5 -6q-12 -26 -25.5 -49t-27.5 -41q-32 -42 -81 -42q-44 0 -69.5 28.5t-25.5 73.5q0 87 67 169t141 82q58 0 58 -52zM223 307
q0 22 -15 22q-25 0 -60 -59q-8 -13 -41 -82l17 -1q52 0 79 48q20 35 20 72z" />
    <glyph glyph-name="ae" unicode="&#xe6;" horiz-adv-x="636" 
d="M210 99q-32 -46 -77.5 -77.5t-81.5 -31.5q-27 0 -44 18t-17 43q0 33 13 54.5t40 21.5q12 0 20.5 -7.5t8.5 -18.5q0 -15 -8.5 -25.5t-21.5 -10.5q-32 0 -32 -32q0 -11 10 -19t25 -8q23 0 51 30q32 35 60 96q22 50 34.5 89.5t12.5 62.5q0 17 -10 29t-35 12q-38 0 -69 -39
q-12 -16 -30 -47q-14 -26 -18 -33q-1 -3 -7 -1t-5 6q12 26 25.5 49t27.5 41q32 42 81 42q29 0 56 -22q36 -30 36 -85q0 -11 -2.5 -25t-7.5 -30l3 -1l96 143l62 157q28 82 98.5 134t161.5 52q30 0 52 -11t22 -34q0 -15 -10.5 -24.5t-29.5 -9.5q-14 0 -24.5 8.5t-10.5 22.5
q0 6 4 10q9 10 9 13q0 5 -10 8t-21 3q-50 0 -97 -42.5t-82 -129.5l-160 -394q25 43 55 82q24 31 49 63q37 49 79 79q46 33 81 33q25 0 43 -17t18 -42q0 -33 -13 -55.5t-40 -22.5q-12 0 -20.5 7.5t-8.5 18.5q0 15 8.5 25.5t21.5 10.5q32 0 32 32q0 11 -10 19t-25 8
q-23 0 -51 -30q-32 -35 -60 -96q-22 -50 -34.5 -89.5t-12.5 -62.5q0 -17 10 -29t35 -12q38 0 69 39q12 16 30 47q14 26 18 33q1 3 7 1t5 -6q-12 -26 -25.5 -49t-27.5 -41q-32 -42 -81 -42q-29 0 -56 22q-36 30 -36 85q0 28 8 60q-25 -32 -53 -74q-34 -52 -45 -83h-63
l106 259l-110 -159z" />
    <glyph glyph-name="ae" unicode="&#x436;" horiz-adv-x="636" 
d="M210 99q-32 -46 -77.5 -77.5t-81.5 -31.5q-27 0 -44 18t-17 43q0 33 13 54.5t40 21.5q12 0 20.5 -7.5t8.5 -18.5q0 -15 -8.5 -25.5t-21.5 -10.5q-32 0 -32 -32q0 -11 10 -19t25 -8q23 0 51 30q32 35 60 96q22 50 34.5 89.5t12.5 62.5q0 17 -10 29t-35 12q-38 0 -69 -39
q-12 -16 -30 -47q-14 -26 -18 -33q-1 -3 -7 -1t-5 6q12 26 25.5 49t27.5 41q32 42 81 42q29 0 56 -22q36 -30 36 -85q0 -11 -2.5 -25t-7.5 -30l3 -1l96 143l62 157q28 82 98.5 134t161.5 52q30 0 52 -11t22 -34q0 -15 -10.5 -24.5t-29.5 -9.5q-14 0 -24.5 8.5t-10.5 22.5
q0 6 4 10q9 10 9 13q0 5 -10 8t-21 3q-50 0 -97 -42.5t-82 -129.5l-160 -394q25 43 55 82q24 31 49 63q37 49 79 79q46 33 81 33q25 0 43 -17t18 -42q0 -33 -13 -55.5t-40 -22.5q-12 0 -20.5 7.5t-8.5 18.5q0 15 8.5 25.5t21.5 10.5q32 0 32 32q0 11 -10 19t-25 8
q-23 0 -51 -30q-32 -35 -60 -96q-22 -50 -34.5 -89.5t-12.5 -62.5q0 -17 10 -29t35 -12q38 0 69 39q12 16 30 47q14 26 18 33q1 3 7 1t5 -6q-12 -26 -25.5 -49t-27.5 -41q-32 -42 -81 -42q-29 0 -56 22q-36 30 -36 85q0 28 8 60q-25 -32 -53 -74q-34 -52 -45 -83h-63
l106 259l-110 -159z" />
    <glyph glyph-name="ccedilla" unicode="&#xe7;" horiz-adv-x="300" 
d="M116 173l5 14h41q34 0 56.5 23.5t22.5 57.5q0 26 -13.5 42.5t-33.5 16.5q-32 0 -54.5 -14t-22.5 -34q0 -11 15 -11q14 0 14 -16q0 -19 -15.5 -32.5t-33.5 -13.5q-14 0 -23.5 9.5t-9.5 22.5q0 44 43.5 74.5t105.5 30.5q36 0 61 -18t25 -45q0 -28 -25 -57t-62 -42
q25 0 42 -19t17 -47q0 -52 -56 -88.5t-137 -36.5q-31 0 -54 21t-23 52q0 24 11 52q2 4 8.5 2t4.5 -6q-10 -26 -10 -49q0 -21 20.5 -37.5t45.5 -16.5q56 0 91.5 28.5t35.5 71.5q0 28 -13.5 46.5t-38.5 18.5h-40z" />
    <glyph glyph-name="ccedilla" unicode="&#x437;" horiz-adv-x="300" 
d="M116 173l5 14h41q34 0 56.5 23.5t22.5 57.5q0 26 -13.5 42.5t-33.5 16.5q-32 0 -54.5 -14t-22.5 -34q0 -11 15 -11q14 0 14 -16q0 -19 -15.5 -32.5t-33.5 -13.5q-14 0 -23.5 9.5t-9.5 22.5q0 44 43.5 74.5t105.5 30.5q36 0 61 -18t25 -45q0 -28 -25 -57t-62 -42
q25 0 42 -19t17 -47q0 -52 -56 -88.5t-137 -36.5q-31 0 -54 21t-23 52q0 24 11 52q2 4 8.5 2t4.5 -6q-10 -26 -10 -49q0 -21 20.5 -37.5t45.5 -16.5q56 0 91.5 28.5t35.5 71.5q0 28 -13.5 46.5t-38.5 18.5h-40z" />
    <glyph glyph-name="egrave" unicode="&#xe8;" horiz-adv-x="344" 
d="M266 336h62l-115 -301q0 -31 19 -31q29 0 55 42q15 24 27 60q3 7 8 7q8 0 6 -8q-9 -36 -28 -67q-30 -48 -68 -48q-24 0 -36 22.5t-12 56.5q0 26 6 51q6 19 8 26q-38 -67 -60 -99q-40 -57 -63 -57t-37.5 21.5t-14.5 52.5q0 41 46 130t46 112t-12 23q-21 0 -45 -39.5
t-33 -74.5q-1 -4 -8 -3t-6 6q9 42 30 77q29 48 63 48q20 0 30 -17q14 -23 14 -71q0 -46 -28 -102q-62 -124 -62 -127q0 -22 16 -22q18 0 57 58q36 53 62 109z" />
    <glyph glyph-name="egrave" unicode="&#x438;" horiz-adv-x="344" 
d="M266 336h62l-115 -301q0 -31 19 -31q29 0 55 42q15 24 27 60q3 7 8 7q8 0 6 -8q-9 -36 -28 -67q-30 -48 -68 -48q-24 0 -36 22.5t-12 56.5q0 26 6 51q6 19 8 26q-38 -67 -60 -99q-40 -57 -63 -57t-37.5 21.5t-14.5 52.5q0 41 46 130t46 112t-12 23q-21 0 -45 -39.5
t-33 -74.5q-1 -4 -8 -3t-6 6q9 42 30 77q29 48 63 48q20 0 30 -17q14 -23 14 -71q0 -46 -28 -102q-62 -124 -62 -127q0 -22 16 -22q18 0 57 58q36 53 62 109z" />
    <glyph glyph-name="eacute" unicode="&#xe9;" horiz-adv-x="342" 
d="M266 336h62l-115 -301q0 -31 19 -31q29 0 55 42q15 24 27 60q3 7 8 7q8 0 6 -8q-9 -36 -28 -67q-30 -48 -68 -48q-24 0 -36 22.5t-12 56.5q0 26 6 51q6 19 8 26q-38 -67 -60 -99q-40 -57 -63 -57t-37.5 21.5t-14.5 52.5q0 41 46 130t46 112t-12 23q-21 0 -45 -39.5
t-33 -74.5q-1 -4 -8 -3t-6 6q9 42 30 77q29 48 63 48q20 0 30 -17q14 -23 14 -71q0 -46 -28 -102q-62 -124 -62 -127q0 -22 16 -22q18 0 57 58q36 53 62 109zM225 395q-18 0 -53 12q-18 6 -28 6q-19 0 -31 -3.5t-15 -11.5q-7 -2 -9 -2q-5 2 -2 7q15 38 87 38q11 0 30 -4
t31 -4q35 0 59.5 15t24.5 36q0 30 -13 30q-9 0 -17 -17t-22 -17q-12 0 -22 9t-10 25t12 30t31 14q23 0 41 -21.5t18 -48.5q0 -41 -29 -67t-83 -26z" />
    <glyph glyph-name="eacute" unicode="&#x439;" horiz-adv-x="342" 
d="M266 336h62l-115 -301q0 -31 19 -31q29 0 55 42q15 24 27 60q3 7 8 7q8 0 6 -8q-9 -36 -28 -67q-30 -48 -68 -48q-24 0 -36 22.5t-12 56.5q0 26 6 51q6 19 8 26q-38 -67 -60 -99q-40 -57 -63 -57t-37.5 21.5t-14.5 52.5q0 41 46 130t46 112t-12 23q-21 0 -45 -39.5
t-33 -74.5q-1 -4 -8 -3t-6 6q9 42 30 77q29 48 63 48q20 0 30 -17q14 -23 14 -71q0 -46 -28 -102q-62 -124 -62 -127q0 -22 16 -22q18 0 57 58q36 53 62 109zM225 395q-18 0 -53 12q-18 6 -28 6q-19 0 -31 -3.5t-15 -11.5q-7 -2 -9 -2q-5 2 -2 7q15 38 87 38q11 0 30 -4
t31 -4q35 0 59.5 15t24.5 36q0 30 -13 30q-9 0 -17 -17t-22 -17q-12 0 -22 9t-10 25t12 30t31 14q23 0 41 -21.5t18 -48.5q0 -41 -29 -67t-83 -26z" />
    <glyph glyph-name="ecircumflex" unicode="&#xea;" horiz-adv-x="347" 
d="M52 0h-62l190 480q28 82 98.5 134t161.5 52q30 0 52 -11t22 -34q0 -15 -10.5 -24.5t-29.5 -9.5q-14 0 -24.5 8.5t-10.5 22.5q0 6 4 10q9 10 9 13q0 5 -10 8t-21 3q-50 0 -97 -42.5t-82 -129.5l-90 -229q15 17 31 34q60 58 120 58q12 0 23.5 -12t11.5 -29q0 -57 -59 -84
q-30 -13 -89 -21q28 -4 38.5 -19.5t10.5 -46.5q0 -13 -2.5 -45.5t-2.5 -45.5q0 -14 3.5 -23t15.5 -9q19 0 40 42q21 49 27 62q2 4 8 0t5 -8q-14 -51 -34 -80q-24 -34 -51 -34q-31 0 -51.5 23.5t-20.5 61.5q0 17 2.5 45t2.5 30q0 42 -31 42h-22zM134 208h29q66 0 98 26
q23 19 23 45q0 14 -8.5 21.5t-18.5 7.5q-22 0 -57 -31q-27 -24 -66 -69z" />
    <glyph glyph-name="ecircumflex" unicode="&#x43a;" horiz-adv-x="347" 
d="M52 0h-62l190 480q28 82 98.5 134t161.5 52q30 0 52 -11t22 -34q0 -15 -10.5 -24.5t-29.5 -9.5q-14 0 -24.5 8.5t-10.5 22.5q0 6 4 10q9 10 9 13q0 5 -10 8t-21 3q-50 0 -97 -42.5t-82 -129.5l-90 -229q15 17 31 34q60 58 120 58q12 0 23.5 -12t11.5 -29q0 -57 -59 -84
q-30 -13 -89 -21q28 -4 38.5 -19.5t10.5 -46.5q0 -13 -2.5 -45.5t-2.5 -45.5q0 -14 3.5 -23t15.5 -9q19 0 40 42q21 49 27 62q2 4 8 0t5 -8q-14 -51 -34 -80q-24 -34 -51 -34q-31 0 -51.5 23.5t-20.5 61.5q0 17 2.5 45t2.5 30q0 42 -31 42h-22zM134 208h29q66 0 98 26
q23 19 23 45q0 14 -8.5 21.5t-18.5 7.5q-22 0 -57 -31q-27 -24 -66 -69z" />
    <glyph glyph-name="edieresis" unicode="&#xeb;" horiz-adv-x="373" 
d="M350 309l-101 -241q-6 -14 -6 -33q0 -31 19 -31q29 0 55 42q15 24 27 60q3 7 8 7q8 0 6 -8q-9 -36 -28 -67q-30 -48 -68 -48q-24 0 -36 22.5t-12 56.5q0 21 10 51q21 59 39.5 101.5t43.5 92.5q-13 0 -30.5 -15.5t-27.5 -34.5q-71 -132 -95 -171q-65 -103 -103 -103
q-26 0 -43.5 20.5t-17.5 50.5q0 28 15.5 46.5t38.5 18.5q18 0 30 -11t12 -28q0 -15 -8.5 -25.5t-19.5 -10.5t-17 3t-10 6q-10 0 -10 -16q0 -17 8 -28.5t21 -11.5q32 0 81 75q42 64 118 212q10 20 47 36t76 16l-4 -14q-9 0 -18 -20z" />
    <glyph glyph-name="edieresis" unicode="&#x43b;" horiz-adv-x="373" 
d="M350 309l-101 -241q-6 -14 -6 -33q0 -31 19 -31q29 0 55 42q15 24 27 60q3 7 8 7q8 0 6 -8q-9 -36 -28 -67q-30 -48 -68 -48q-24 0 -36 22.5t-12 56.5q0 21 10 51q21 59 39.5 101.5t43.5 92.5q-13 0 -30.5 -15.5t-27.5 -34.5q-71 -132 -95 -171q-65 -103 -103 -103
q-26 0 -43.5 20.5t-17.5 50.5q0 28 15.5 46.5t38.5 18.5q18 0 30 -11t12 -28q0 -15 -8.5 -25.5t-19.5 -10.5t-17 3t-10 6q-10 0 -10 -16q0 -17 8 -28.5t21 -11.5q32 0 81 75q42 64 118 212q10 20 47 36t76 16l-4 -14q-9 0 -18 -20z" />
    <glyph glyph-name="igrave" unicode="&#xec;" horiz-adv-x="517" 
d="M445 336h62l-112 -267q-4 -9 -5 -18t-1 -16q0 -31 19 -31q29 0 55 42q15 24 27 60q3 7 8 7q8 0 6 -8q-9 -36 -28 -67q-30 -48 -68 -48q-24 0 -36 22.5t-12 56.5q0 21 1.5 30t11.5 42q-53 -93 -61 -104q-33 -47 -61 -47q-24 0 -34 28q-3 9 -6 29q0 27 6 62.5t15 58.5
l53 137q-10 -7 -19.5 -17.5t-16.5 -23.5q-71 -132 -95 -171q-65 -103 -103 -103q-26 0 -43.5 20.5t-17.5 50.5q0 28 15.5 46.5t38.5 18.5q18 0 30 -11t12 -28q0 -15 -8.5 -25.5t-19.5 -10.5t-17 3t-10 6q-10 0 -10 -16q0 -17 8 -28.5t21 -11.5q32 0 81 75q42 64 118 212
q11 22 46.5 37t76.5 15l-4 -14q-9 0 -16 -15l-77 -194q-15 -39 -22.5 -66t-7.5 -37q0 -13 11 -13q13 0 45 49q29 44 70 121z" />
    <glyph glyph-name="igrave" unicode="&#x43c;" horiz-adv-x="517" 
d="M445 336h62l-112 -267q-4 -9 -5 -18t-1 -16q0 -31 19 -31q29 0 55 42q15 24 27 60q3 7 8 7q8 0 6 -8q-9 -36 -28 -67q-30 -48 -68 -48q-24 0 -36 22.5t-12 56.5q0 21 1.5 30t11.5 42q-53 -93 -61 -104q-33 -47 -61 -47q-24 0 -34 28q-3 9 -6 29q0 27 6 62.5t15 58.5
l53 137q-10 -7 -19.5 -17.5t-16.5 -23.5q-71 -132 -95 -171q-65 -103 -103 -103q-26 0 -43.5 20.5t-17.5 50.5q0 28 15.5 46.5t38.5 18.5q18 0 30 -11t12 -28q0 -15 -8.5 -25.5t-19.5 -10.5t-17 3t-10 6q-10 0 -10 -16q0 -17 8 -28.5t21 -11.5q32 0 81 75q42 64 118 212
q11 22 46.5 37t76.5 15l-4 -14q-9 0 -16 -15l-77 -194q-15 -39 -22.5 -66t-7.5 -37q0 -13 11 -13q13 0 45 49q29 44 70 121z" />
    <glyph glyph-name="iacute" unicode="&#xed;" horiz-adv-x="365" 
d="M224 176h-77l-73 -176h-62l108 264q4 9 5 18t1 16q0 31 -19 31q-20 0 -49 -41q-25 -35 -32 -59q-2 -6 -7 -6q-10 0 -8 10q7 30 34 66q33 44 62 44q25 0 40 -24.5t15 -57.5q0 -39 -9 -69h78l61 144h62l-109 -267q-4 -9 -5 -18t-1 -16q0 -31 19 -31q29 0 55 42q15 24 27 60
q3 7 8 7q8 0 6 -8q-9 -36 -28 -67q-30 -48 -68 -48q-25 0 -40 24.5t-15 57.5q0 26 6 54t15 50z" />
    <glyph glyph-name="iacute" unicode="&#x43d;" horiz-adv-x="365" 
d="M224 176h-77l-73 -176h-62l108 264q4 9 5 18t1 16q0 31 -19 31q-20 0 -49 -41q-25 -35 -32 -59q-2 -6 -7 -6q-10 0 -8 10q7 30 34 66q33 44 62 44q25 0 40 -24.5t15 -57.5q0 -39 -9 -69h78l61 144h62l-109 -267q-4 -9 -5 -18t-1 -16q0 -31 19 -31q29 0 55 42q15 24 27 60
q3 7 8 7q8 0 6 -8q-9 -36 -28 -67q-30 -48 -68 -48q-25 0 -40 24.5t-15 57.5q0 26 6 54t15 50z" />
    <glyph glyph-name="icircumflex" unicode="&#xee;" horiz-adv-x="324" 
d="M119 -10q-53 0 -81 32.5t-28 79.5q0 67 51 144q64 97 159 97q46 0 69 -26t23 -67q0 -69 -44 -151q-58 -109 -149 -109zM111 4q49 0 102 132q45 112 45 150q0 19 -5 27q-10 16 -36 16q-48 0 -102 -121q-47 -106 -47 -150q0 -24 10 -39t33 -15z" />
    <glyph glyph-name="icircumflex" unicode="&#x43e;" horiz-adv-x="324" 
d="M119 -10q-53 0 -81 32.5t-28 79.5q0 67 51 144q64 97 159 97q46 0 69 -26t23 -67q0 -69 -44 -151q-58 -109 -149 -109zM111 4q49 0 102 132q45 112 45 150q0 19 -5 27q-10 16 -36 16q-48 0 -102 -121q-47 -106 -47 -150q0 -24 10 -39t33 -15z" />
    <glyph glyph-name="idieresis" unicode="&#xef;" horiz-adv-x="356" 
d="M72 0h-62l79 192q3 8 16 46q21 62 21 68q0 23 -12 23q-19 0 -46 -44t-32 -70l-7 -3q-9 0 -7 6q5 33 31 75q31 50 60 50q47 0 47 -50q0 -24 -3.5 -48t-12.5 -53q47 82 60 100q36 51 63 51q21 0 33.5 -20.5t12.5 -53.5q0 -59 -33 -120q-22 -34 -43 -68q-10 -19 -10 -43
q0 -34 14 -34q29 0 55 42q15 24 27 60q3 7 8 7q8 0 6 -8q-9 -36 -28 -67q-30 -48 -68 -48q-29 0 -41.5 29.5t-12.5 66.5q0 43 44 123t44 107q0 13 -10 13q-16 0 -53 -56t-72 -127z" />
    <glyph glyph-name="idieresis" unicode="&#x43f;" horiz-adv-x="356" 
d="M72 0h-62l79 192q3 8 16 46q21 62 21 68q0 23 -12 23q-19 0 -46 -44t-32 -70l-7 -3q-9 0 -7 6q5 33 31 75q31 50 60 50q47 0 47 -50q0 -24 -3.5 -48t-12.5 -53q47 82 60 100q36 51 63 51q21 0 33.5 -20.5t12.5 -53.5q0 -59 -33 -120q-22 -34 -43 -68q-10 -19 -10 -43
q0 -34 14 -34q29 0 55 42q15 24 27 60q3 7 8 7q8 0 6 -8q-9 -36 -28 -67q-30 -48 -68 -48q-29 0 -41.5 29.5t-12.5 66.5q0 43 44 123t44 107q0 13 -10 13q-16 0 -53 -56t-72 -127z" />
    <glyph glyph-name="eth" unicode="&#xf0;" horiz-adv-x="330" 
d="M82 26l-91 -237l-3 -15q0 -18 11.5 -19.5t20.5 -1.5h19q6 0 6 -7q0 -11 -14 -11q-15 0 -45 3t-45 3q-20 0 -31 -1q-55 -5 -68 -5q-7 0 -7 9t7 9q30 0 50.5 8t27.5 26l164 405q3 8 16 46q21 62 21 68q0 23 -12 23q-19 0 -46 -44t-32 -70l-7 -3q-9 0 -7 6q5 33 31 75
q31 50 60 50q47 0 47 -50q0 -24 -3.5 -48t-12.5 -53q43 80 55 97q36 54 67 54q24 0 41.5 -25.5t17.5 -63.5q0 -60 -48 -150q-61 -114 -140 -114q-21 0 -35.5 10.5t-14.5 25.5zM270 307q0 7 -4.5 12.5t-9.5 5.5q-14 0 -38.5 -35t-58.5 -98l-59 -128q-6 -12 -6 -20
q0 -17 8 -26.5t28 -9.5q24 0 52 48q21 35 38 83q27 72 38.5 112.5t11.5 55.5z" />
    <glyph glyph-name="eth" unicode="&#x440;" horiz-adv-x="330" 
d="M82 26l-91 -237l-3 -15q0 -18 11.5 -19.5t20.5 -1.5h19q6 0 6 -7q0 -11 -14 -11q-15 0 -45 3t-45 3q-20 0 -31 -1q-55 -5 -68 -5q-7 0 -7 9t7 9q30 0 50.5 8t27.5 26l164 405q3 8 16 46q21 62 21 68q0 23 -12 23q-19 0 -46 -44t-32 -70l-7 -3q-9 0 -7 6q5 33 31 75
q31 50 60 50q47 0 47 -50q0 -24 -3.5 -48t-12.5 -53q43 80 55 97q36 54 67 54q24 0 41.5 -25.5t17.5 -63.5q0 -60 -48 -150q-61 -114 -140 -114q-21 0 -35.5 10.5t-14.5 25.5zM270 307q0 7 -4.5 12.5t-9.5 5.5q-14 0 -38.5 -35t-58.5 -98l-59 -128q-6 -12 -6 -20
q0 -17 8 -26.5t28 -9.5q24 0 52 48q21 35 38 83q27 72 38.5 112.5t11.5 55.5z" />
    <glyph glyph-name="ntilde" unicode="&#xf1;" horiz-adv-x="286" 
d="M278 284q0 -33 -13 -55.5t-40 -22.5q-12 0 -20.5 7.5t-8.5 18.5q0 15 8.5 25.5t21.5 10.5q32 0 32 32q0 11 -10 19t-25 8q-23 0 -51 -30q-32 -35 -60 -96q-22 -50 -34.5 -89.5t-12.5 -62.5q0 -17 10 -29t35 -12q38 0 69 39q12 16 30 47q14 26 18 33q1 3 7 1t5 -6
q-12 -26 -25.5 -49t-27.5 -41q-32 -42 -81 -42q-29 0 -57 22q-38 30 -38 85q0 33 12.5 67t34.5 67q34 49 79 80.5t81 31.5q25 0 43 -17t18 -42z" />
    <glyph glyph-name="ntilde" unicode="&#x441;" horiz-adv-x="286" 
d="M278 284q0 -33 -13 -55.5t-40 -22.5q-12 0 -20.5 7.5t-8.5 18.5q0 15 8.5 25.5t21.5 10.5q32 0 32 32q0 11 -10 19t-25 8q-23 0 -51 -30q-32 -35 -60 -96q-22 -50 -34.5 -89.5t-12.5 -62.5q0 -17 10 -29t35 -12q38 0 69 39q12 16 30 47q14 26 18 33q1 3 7 1t5 -6
q-12 -26 -25.5 -49t-27.5 -41q-32 -42 -81 -42q-29 0 -57 22q-38 30 -38 85q0 33 12.5 67t34.5 67q34 49 79 80.5t81 31.5q25 0 43 -17t18 -42z" />
    <glyph glyph-name="ograve" unicode="&#xf2;" horiz-adv-x="497" 
d="M72 0h-62l78 192q3 8 16 46q21 62 21 68q0 23 -12 23q-19 0 -46 -44t-32 -70l-7 -3q-9 0 -7 6q5 33 31 75q31 50 60 50q47 0 47 -50q0 -24 -3.5 -48t-12.5 -53q53 93 61 104q33 47 61 47q24 0 34 -28q3 -9 6 -29q0 -13 -3.5 -34t-11.5 -60l62 100q35 51 61 51
q21 0 33.5 -20.5t12.5 -53.5q0 -59 -33 -120q-22 -34 -43 -68q-10 -19 -10 -43q0 -34 14 -34q29 0 55 42q15 24 27 60q3 7 8 7q8 0 6 -8q-9 -36 -28 -67q-30 -48 -68 -48q-29 0 -41.5 29.5t-12.5 66.5q0 43 44 123t44 107q0 13 -10 13q-16 0 -67 -81q-6 -10 -62 -102
l-64 -146h-62l83 211q9 24 20.5 60.5t11.5 44.5q0 13 -11 13q-13 0 -43.5 -46.5t-71.5 -123.5z" />
    <glyph glyph-name="ograve" unicode="&#x442;" horiz-adv-x="497" 
d="M72 0h-62l78 192q3 8 16 46q21 62 21 68q0 23 -12 23q-19 0 -46 -44t-32 -70l-7 -3q-9 0 -7 6q5 33 31 75q31 50 60 50q47 0 47 -50q0 -24 -3.5 -48t-12.5 -53q53 93 61 104q33 47 61 47q24 0 34 -28q3 -9 6 -29q0 -13 -3.5 -34t-11.5 -60l62 100q35 51 61 51
q21 0 33.5 -20.5t12.5 -53.5q0 -59 -33 -120q-22 -34 -43 -68q-10 -19 -10 -43q0 -34 14 -34q29 0 55 42q15 24 27 60q3 7 8 7q8 0 6 -8q-9 -36 -28 -67q-30 -48 -68 -48q-29 0 -41.5 29.5t-12.5 66.5q0 43 44 123t44 107q0 13 -10 13q-16 0 -67 -81q-6 -10 -62 -102
l-64 -146h-62l83 211q9 24 20.5 60.5t11.5 44.5q0 13 -11 13q-13 0 -43.5 -46.5t-71.5 -123.5z" />
    <glyph glyph-name="oacute" unicode="&#xf3;" horiz-adv-x="312" 
d="M270 336h62l-163 -420q-31 -78 -80 -119q-67 -56 -174 -56q-61 0 -94 30q-28 25 -28 58q0 16 15 35q19 23 43 23q15 0 28.5 -10t13.5 -29q0 -36 -28 -36q-8 0 -16 3.5t-15 5.5q-6 0 -6 -11q0 -19 18 -34q25 -21 69 -21q66 0 116 46q43 40 76 115l94 230q-29 -54 -42 -74
q-52 -82 -80 -82q-23 0 -37.5 21.5t-14.5 52.5q0 41 46 130t46 112t-12 23q-21 0 -45 -39.5t-33 -74.5q-1 -4 -8 -3t-6 6q9 42 30 77q29 48 63 48q20 0 30 -17q14 -23 14 -71q0 -46 -28 -102q-62 -124 -62 -127q0 -22 16 -22q18 0 57 58q36 53 62 109z" />
    <glyph glyph-name="oacute" unicode="&#x443;" horiz-adv-x="312" 
d="M270 336h62l-163 -420q-31 -78 -80 -119q-67 -56 -174 -56q-61 0 -94 30q-28 25 -28 58q0 16 15 35q19 23 43 23q15 0 28.5 -10t13.5 -29q0 -36 -28 -36q-8 0 -16 3.5t-15 5.5q-6 0 -6 -11q0 -19 18 -34q25 -21 69 -21q66 0 116 46q43 40 76 115l94 230q-29 -54 -42 -74
q-52 -82 -80 -82q-23 0 -37.5 21.5t-14.5 52.5q0 41 46 130t46 112t-12 23q-21 0 -45 -39.5t-33 -74.5q-1 -4 -8 -3t-6 6q9 42 30 77q29 48 63 48q20 0 30 -17q14 -23 14 -71q0 -46 -28 -102q-62 -124 -62 -127q0 -22 16 -22q18 0 57 58q36 53 62 109z" />
    <glyph glyph-name="ocircumflex" unicode="&#xf4;" horiz-adv-x="464" 
d="M215 26l-92 -235l-2 -14q0 -14 15.5 -19t35.5 -5q6 0 6 -7q0 -11 -14 -11q-22 0 -42 2t-48 4q-20 0 -31 -1q-55 -5 -68 -5q-7 0 -7 9t7 9q30 0 50.5 8t27.5 26l105 251q-15 -20 -43 -34t-54 -14q-23 0 -39 25t-16 62q0 104 71 188q66 78 131 78q23 0 33 -14t10 -34
l73 185q28 82 98.5 134t161.5 52q30 0 52 -11t22 -34q0 -15 -10.5 -24.5t-29.5 -9.5q-14 0 -24.5 8.5t-10.5 22.5q0 6 4 10q9 10 9 13q0 5 -10 8t-21 3q-50 0 -97 -42.5t-82 -129.5l-72 -185q12 20 35 34t45 14q24 0 40.5 -24t16.5 -65q0 -65 -47 -153q-59 -111 -139 -111
q-21 0 -35.5 10.5t-14.5 25.5zM292 238l-59 -165q-6 -16 -6 -29q0 -22 10.5 -31t24.5 -9q24 0 53 50q16 28 38 85q27 70 37.5 108.5t10.5 56.5q0 25 -16 25q-20 0 -46 -26t-47 -65zM178 87l44 125q7 21 10 45.5t3 27.5q0 24 -6.5 34t-16.5 10q-18 0 -36 -21
q-28 -33 -75 -130q-20 -42 -36.5 -86t-16.5 -57q0 -31 20 -31q23 0 55.5 24.5t54.5 58.5z" />
    <glyph glyph-name="ocircumflex" unicode="&#x444;" horiz-adv-x="464" 
d="M215 26l-92 -235l-2 -14q0 -14 15.5 -19t35.5 -5q6 0 6 -7q0 -11 -14 -11q-22 0 -42 2t-48 4q-20 0 -31 -1q-55 -5 -68 -5q-7 0 -7 9t7 9q30 0 50.5 8t27.5 26l105 251q-15 -20 -43 -34t-54 -14q-23 0 -39 25t-16 62q0 104 71 188q66 78 131 78q23 0 33 -14t10 -34
l73 185q28 82 98.5 134t161.5 52q30 0 52 -11t22 -34q0 -15 -10.5 -24.5t-29.5 -9.5q-14 0 -24.5 8.5t-10.5 22.5q0 6 4 10q9 10 9 13q0 5 -10 8t-21 3q-50 0 -97 -42.5t-82 -129.5l-72 -185q12 20 35 34t45 14q24 0 40.5 -24t16.5 -65q0 -65 -47 -153q-59 -111 -139 -111
q-21 0 -35.5 10.5t-14.5 25.5zM292 238l-59 -165q-6 -16 -6 -29q0 -22 10.5 -31t24.5 -9q24 0 53 50q16 28 38 85q27 70 37.5 108.5t10.5 56.5q0 25 -16 25q-20 0 -46 -26t-47 -65zM178 87l44 125q7 21 10 45.5t3 27.5q0 24 -6.5 34t-16.5 10q-18 0 -36 -21
q-28 -33 -75 -130q-20 -42 -36.5 -86t-16.5 -57q0 -31 20 -31q23 0 55.5 24.5t54.5 58.5z" />
    <glyph glyph-name="otilde" unicode="&#xf5;" horiz-adv-x="433" 
d="M329 178v-14h-73q-9 -28 -15 -50q-9 -35 -9 -55q0 -33 12 -46q8 -9 24 -9q36 0 67 50q18 28 31 68q1 4 9 4q7 0 5 -5q-12 -43 -31 -73q-36 -58 -87 -58q-26 0 -38 21.5t-12 51.5q0 26 5 43q-48 -64 -57 -73q-43 -43 -91 -43q-27 0 -49 13q-30 18 -30 51q0 30 17.5 45.5
t39.5 15.5q14 0 24.5 -10.5t10.5 -22.5q0 -15 -8 -25t-23 -10q-9 0 -16 9t-15 9q-4 0 -7 -4.5t-3 -16.5q0 -16 16.5 -28t30.5 -12q29 0 69 57q29 41 57 103h-57v14h63q17 37 27 66.5t10 51.5q0 13 -8 23t-20 10q-23 0 -45 -25q-26 -29 -44 -75q-2 -6 -9 -6q-3 3 -5 7
q14 37 36 66q35 47 72 47q66 0 66 -78q0 -18 -6 -42q29 59 44 76q37 44 96 44q18 0 30.5 -10.5t12.5 -25.5q0 -18 -10 -30t-24 -12q-28 0 -28 26l3 21q0 12 -10 12q-25 0 -53 -33q-32 -38 -63 -113h68z" />
    <glyph glyph-name="otilde" unicode="&#x445;" horiz-adv-x="433" 
d="M329 178v-14h-73q-9 -28 -15 -50q-9 -35 -9 -55q0 -33 12 -46q8 -9 24 -9q36 0 67 50q18 28 31 68q1 4 9 4q7 0 5 -5q-12 -43 -31 -73q-36 -58 -87 -58q-26 0 -38 21.5t-12 51.5q0 26 5 43q-48 -64 -57 -73q-43 -43 -91 -43q-27 0 -49 13q-30 18 -30 51q0 30 17.5 45.5
t39.5 15.5q14 0 24.5 -10.5t10.5 -22.5q0 -15 -8 -25t-23 -10q-9 0 -16 9t-15 9q-4 0 -7 -4.5t-3 -16.5q0 -16 16.5 -28t30.5 -12q29 0 69 57q29 41 57 103h-57v14h63q17 37 27 66.5t10 51.5q0 13 -8 23t-20 10q-23 0 -45 -25q-26 -29 -44 -75q-2 -6 -9 -6q-3 3 -5 7
q14 37 36 66q35 47 72 47q66 0 66 -78q0 -18 -6 -42q29 59 44 76q37 44 96 44q18 0 30.5 -10.5t12.5 -25.5q0 -18 -10 -30t-24 -12q-28 0 -28 26l3 21q0 12 -10 12q-25 0 -53 -33q-32 -38 -63 -113h68z" />
    <glyph glyph-name="odieresis" unicode="&#xf6;" horiz-adv-x="343" 
d="M266 336h62l-109 -267q-4 -9 -5 -18t-1 -16q0 -31 19 -31q29 0 55 42q15 24 27 60q1 3 6 6q9 0 9 -10q0 -73 -42 -131q-37 -50 -95 -50l-1 -3q53 -27 99 -48.5t70 -21.5q21 0 32.5 15t11.5 32q0 5 -3.5 10.5t-7.5 5.5q-5 0 -15 -10t-21 -10q-9 0 -18.5 9.5t-9.5 23.5
q0 15 12.5 27.5t33.5 12.5t35 -17t14 -43q0 -31 -24 -56q-28 -29 -72 -29q-38 0 -104 48.5t-100 48.5l-33 -2l-2 3q2 3 3.5 6t3.5 4q15 5 32 5q89 0 131 35q26 22 37 60l-3 2q-12 -17 -27.5 -28t-33.5 -11q-24 0 -36 22.5t-12 56.5q0 26 6 51q6 19 8 26q-38 -67 -60 -99
q-40 -57 -63 -57t-37.5 21.5t-14.5 52.5q0 41 46 130t46 112t-12 23q-21 0 -45 -39.5t-33 -74.5q-1 -4 -8 -3t-6 6q9 42 30 77q29 48 63 48q20 0 30 -17q14 -23 14 -71q0 -46 -28 -102q-62 -124 -62 -127q0 -22 16 -22q18 0 57 58q36 53 62 109z" />
    <glyph glyph-name="odieresis" unicode="&#x446;" horiz-adv-x="343" 
d="M266 336h62l-109 -267q-4 -9 -5 -18t-1 -16q0 -31 19 -31q29 0 55 42q15 24 27 60q1 3 6 6q9 0 9 -10q0 -73 -42 -131q-37 -50 -95 -50l-1 -3q53 -27 99 -48.5t70 -21.5q21 0 32.5 15t11.5 32q0 5 -3.5 10.5t-7.5 5.5q-5 0 -15 -10t-21 -10q-9 0 -18.5 9.5t-9.5 23.5
q0 15 12.5 27.5t33.5 12.5t35 -17t14 -43q0 -31 -24 -56q-28 -29 -72 -29q-38 0 -104 48.5t-100 48.5l-33 -2l-2 3q2 3 3.5 6t3.5 4q15 5 32 5q89 0 131 35q26 22 37 60l-3 2q-12 -17 -27.5 -28t-33.5 -11q-24 0 -36 22.5t-12 56.5q0 26 6 51q6 19 8 26q-38 -67 -60 -99
q-40 -57 -63 -57t-37.5 21.5t-14.5 52.5q0 41 46 130t46 112t-12 23q-21 0 -45 -39.5t-33 -74.5q-1 -4 -8 -3t-6 6q9 42 30 77q29 48 63 48q20 0 30 -17q14 -23 14 -71q0 -46 -28 -102q-62 -124 -62 -127q0 -22 16 -22q18 0 57 58q36 53 62 109z" />
    <glyph glyph-name="divide" unicode="&#xf7;" horiz-adv-x="350" 
d="M277 336h62l-115 -301q0 -31 19 -31q29 0 55 42q15 24 27 60q3 7 8 7q8 0 6 -8q-9 -36 -28 -67q-30 -48 -68 -48q-24 0 -36 22.5t-12 56.5q0 17 16 66q21 60 43 120q-38 -67 -60 -99q-40 -57 -63 -57t-37.5 21.5t-14.5 52.5q0 40 21 91q11 27 11 42q0 23 -12 23
q-21 0 -45 -39.5t-33 -74.5q-1 -4 -8 -3t-6 6q8 40 31 77q29 48 63 48q25 0 42 -19t17 -45q0 -29 -21.5 -78.5t-21.5 -65.5q0 -22 16 -22q18 0 57 58q36 53 62 109z" />
    <glyph glyph-name="divide" unicode="&#x447;" horiz-adv-x="350" 
d="M277 336h62l-115 -301q0 -31 19 -31q29 0 55 42q15 24 27 60q3 7 8 7q8 0 6 -8q-9 -36 -28 -67q-30 -48 -68 -48q-24 0 -36 22.5t-12 56.5q0 17 16 66q21 60 43 120q-38 -67 -60 -99q-40 -57 -63 -57t-37.5 21.5t-14.5 52.5q0 40 21 91q11 27 11 42q0 23 -12 23
q-21 0 -45 -39.5t-33 -74.5q-1 -4 -8 -3t-6 6q8 40 31 77q29 48 63 48q25 0 42 -19t17 -45q0 -29 -21.5 -78.5t-21.5 -65.5q0 -22 16 -22q18 0 57 58q36 53 62 109z" />
    <glyph glyph-name="oslash" unicode="&#xf8;" horiz-adv-x="495" 
d="M277 336h62l-84 -214q-9 -24 -20.5 -60.5t-11.5 -44.5q0 -13 11 -13q13 0 45 49q29 44 70 121l74 162h62l-118 -301q0 -31 19 -31q29 0 55 42q15 24 27 60q3 7 8 7q8 0 6 -8q-9 -36 -28 -67q-30 -48 -68 -48q-24 0 -36 22.5t-12 56.5q0 21 1.5 30t11.5 42
q-53 -93 -61 -104q-33 -47 -61 -47q-24 0 -34 28q-3 9 -6 29q0 13 5 42q2 13 10 52l-62 -100q-35 -51 -61 -51q-21 0 -33.5 20.5t-12.5 53.5q0 59 33 120q21 34 43 68q10 19 10 43q0 34 -14 34q-29 0 -55 -42q-15 -24 -27 -60q-3 -7 -8 -7q-8 0 -6 8q9 36 28 67q30 48 68 48
q29 0 43 -33q11 -26 11 -63q0 -43 -44 -123t-44 -107q0 -13 10 -13q16 0 67 81q6 10 62 102z" />
    <glyph glyph-name="oslash" unicode="&#x448;" horiz-adv-x="495" 
d="M277 336h62l-84 -214q-9 -24 -20.5 -60.5t-11.5 -44.5q0 -13 11 -13q13 0 45 49q29 44 70 121l74 162h62l-118 -301q0 -31 19 -31q29 0 55 42q15 24 27 60q3 7 8 7q8 0 6 -8q-9 -36 -28 -67q-30 -48 -68 -48q-24 0 -36 22.5t-12 56.5q0 21 1.5 30t11.5 42
q-53 -93 -61 -104q-33 -47 -61 -47q-24 0 -34 28q-3 9 -6 29q0 13 5 42q2 13 10 52l-62 -100q-35 -51 -61 -51q-21 0 -33.5 20.5t-12.5 53.5q0 59 33 120q21 34 43 68q10 19 10 43q0 34 -14 34q-29 0 -55 -42q-15 -24 -27 -60q-3 -7 -8 -7q-8 0 -6 8q9 36 28 67q30 48 68 48
q29 0 43 -33q11 -26 11 -63q0 -43 -44 -123t-44 -107q0 -13 10 -13q16 0 67 81q6 10 62 102z" />
    <glyph glyph-name="ugrave" unicode="&#xf9;" horiz-adv-x="497" 
d="M277 336h62l-84 -214q-9 -24 -20.5 -60.5t-11.5 -44.5q0 -13 11 -13q13 0 45 49q29 44 70 121l74 162h62l-112 -267q-4 -9 -5 -18t-1 -16q0 -31 19 -31q29 0 55 42q15 24 27 60q1 3 6 6q9 0 9 -10q0 -73 -42 -131q-37 -50 -95 -50l-1 -3q53 -27 99 -48.5t70 -21.5
q21 0 32.5 15t11.5 32q0 5 -3.5 10.5t-7.5 5.5q-5 0 -15 -10t-21 -10q-9 0 -18.5 9.5t-9.5 23.5q0 15 12.5 27.5t33.5 12.5t35 -17t14 -43q0 -31 -24 -56q-28 -29 -72 -29q-38 0 -104 48.5t-100 48.5l-33 -2l-2 3q2 3 3.5 6t3.5 4q15 5 32 5q89 0 131 35q26 22 37 60l-3 2
q-12 -17 -27.5 -28t-33.5 -11q-24 0 -36 22.5t-12 56.5q0 16 2 29t11 43q-53 -93 -61 -104q-33 -47 -61 -47q-24 0 -34 28q-3 9 -6 29q0 13 5 42q2 13 10 52l-62 -100q-35 -51 -61 -51q-21 0 -33.5 20.5t-12.5 53.5q0 59 33 120q21 34 43 68q10 19 10 43q0 34 -14 34
q-29 0 -55 -42q-15 -24 -27 -60q-3 -7 -8 -7q-8 0 -6 8q9 36 28 67q30 48 68 48q29 0 43 -33q11 -26 11 -63q0 -43 -44 -123t-44 -107q0 -13 10 -13q16 0 67 81q6 10 62 102z" />
    <glyph glyph-name="ugrave" unicode="&#x449;" horiz-adv-x="497" 
d="M277 336h62l-84 -214q-9 -24 -20.5 -60.5t-11.5 -44.5q0 -13 11 -13q13 0 45 49q29 44 70 121l74 162h62l-112 -267q-4 -9 -5 -18t-1 -16q0 -31 19 -31q29 0 55 42q15 24 27 60q1 3 6 6q9 0 9 -10q0 -73 -42 -131q-37 -50 -95 -50l-1 -3q53 -27 99 -48.5t70 -21.5
q21 0 32.5 15t11.5 32q0 5 -3.5 10.5t-7.5 5.5q-5 0 -15 -10t-21 -10q-9 0 -18.5 9.5t-9.5 23.5q0 15 12.5 27.5t33.5 12.5t35 -17t14 -43q0 -31 -24 -56q-28 -29 -72 -29q-38 0 -104 48.5t-100 48.5l-33 -2l-2 3q2 3 3.5 6t3.5 4q15 5 32 5q89 0 131 35q26 22 37 60l-3 2
q-12 -17 -27.5 -28t-33.5 -11q-24 0 -36 22.5t-12 56.5q0 16 2 29t11 43q-53 -93 -61 -104q-33 -47 -61 -47q-24 0 -34 28q-3 9 -6 29q0 13 5 42q2 13 10 52l-62 -100q-35 -51 -61 -51q-21 0 -33.5 20.5t-12.5 53.5q0 59 33 120q21 34 43 68q10 19 10 43q0 34 -14 34
q-29 0 -55 -42q-15 -24 -27 -60q-3 -7 -8 -7q-8 0 -6 8q9 36 28 67q30 48 68 48q29 0 43 -33q11 -26 11 -63q0 -43 -44 -123t-44 -107q0 -13 10 -13q16 0 67 81q6 10 62 102z" />
    <glyph glyph-name="uacute" unicode="&#xfa;" horiz-adv-x="424" 
d="M304 336l-60 -144l2 -2q13 19 35 29.5t51 10.5q31 0 56.5 -24.5t25.5 -58.5q0 -64 -52.5 -110.5t-123.5 -46.5q-41 0 -59 12q-28 18 -28 71q0 20 9 54t22 65l35 83l-18 -13.5t-22 -7.5q-18 0 -64 14q-23 7 -34 7q-29 0 -42 -20q-10 -25 -13.5 -33.5t-9.5 -8.5q-7 0 -5 8
q6 30 28 68q31 54 66 54q28 0 65 -23.5t52 -23.5q16 0 33.5 12t28.5 28h22zM227 4q36 0 77 46q46 52 46 112q0 22 -10 37t-24 15q-23 0 -50 -20t-42 -48.5t-22.5 -57t-7.5 -48.5q0 -15 9.5 -25.5t23.5 -10.5z" />
    <glyph glyph-name="uacute" unicode="&#x44a;" horiz-adv-x="424" 
d="M304 336l-60 -144l2 -2q13 19 35 29.5t51 10.5q31 0 56.5 -24.5t25.5 -58.5q0 -64 -52.5 -110.5t-123.5 -46.5q-41 0 -59 12q-28 18 -28 71q0 20 9 54t22 65l35 83l-18 -13.5t-22 -7.5q-18 0 -64 14q-23 7 -34 7q-29 0 -42 -20q-10 -25 -13.5 -33.5t-9.5 -8.5q-7 0 -5 8
q6 30 28 68q31 54 66 54q28 0 65 -23.5t52 -23.5q16 0 33.5 12t28.5 28h22zM227 4q36 0 77 46q46 52 46 112q0 22 -10 37t-24 15q-23 0 -50 -20t-42 -48.5t-22.5 -57t-7.5 -48.5q0 -15 9.5 -25.5t23.5 -10.5z" />
    <glyph glyph-name="ucircumflex" unicode="&#xfb;" horiz-adv-x="490" 
d="M417 336h62l-109 -267q-4 -9 -5 -18t-1 -16q0 -31 19 -31q29 0 55 42q15 24 27 60q3 7 8 7q8 0 6 -8q-9 -36 -28 -67q-30 -48 -68 -48q-25 0 -40 24.5t-15 57.5q0 25 5.5 51.5t15.5 47.5zM159 230l-17 -38l2 -2q13 19 35 29.5t51 10.5q31 0 56.5 -24.5t25.5 -58.5
q0 -64 -52.5 -110.5t-123.5 -46.5q-41 0 -59 12q-28 18 -28 71q0 20 9 54t22 65l32 76q8 21 8 36q0 25 -22 25q-24 0 -51 -38q-23 -32 -31 -62q-2 -6 -7 -6q-12 0 -8 10q19 48 37 72q29 38 66 38q32 0 47 -19t15 -48q0 -26 -7 -46zM131 4q36 0 77 46q46 52 46 112
q0 22 -10 37t-24 15q-23 0 -50 -20t-42 -48.5t-22.5 -57t-7.5 -48.5q0 -15 9.5 -25.5t23.5 -10.5z" />
    <glyph glyph-name="ucircumflex" unicode="&#x44b;" horiz-adv-x="490" 
d="M417 336h62l-109 -267q-4 -9 -5 -18t-1 -16q0 -31 19 -31q29 0 55 42q15 24 27 60q3 7 8 7q8 0 6 -8q-9 -36 -28 -67q-30 -48 -68 -48q-25 0 -40 24.5t-15 57.5q0 25 5.5 51.5t15.5 47.5zM159 230l-17 -38l2 -2q13 19 35 29.5t51 10.5q31 0 56.5 -24.5t25.5 -58.5
q0 -64 -52.5 -110.5t-123.5 -46.5q-41 0 -59 12q-28 18 -28 71q0 20 9 54t22 65l32 76q8 21 8 36q0 25 -22 25q-24 0 -51 -38q-23 -32 -31 -62q-2 -6 -7 -6q-12 0 -8 10q19 48 37 72q29 38 66 38q32 0 47 -19t15 -48q0 -26 -7 -46zM131 4q36 0 77 46q46 52 46 112
q0 22 -10 37t-24 15q-23 0 -50 -20t-42 -48.5t-22.5 -57t-7.5 -48.5q0 -15 9.5 -25.5t23.5 -10.5z" />
    <glyph glyph-name="udieresis" unicode="&#xfc;" horiz-adv-x="332" 
d="M158 230l-16 -38l2 -2q13 19 35 29.5t51 10.5q31 0 56.5 -24.5t25.5 -58.5q0 -64 -52.5 -110.5t-123.5 -46.5q-41 0 -59 12q-28 18 -28 71q0 20 9 54t22 65l32 76q8 21 8 36q0 25 -22 25q-24 0 -51 -38q-23 -32 -31 -62q-2 -6 -7 -6q-12 0 -8 10q19 48 37 72q29 38 66 38
q34 0 48 -20.5t14 -52.5q0 -9 -1 -16t-7 -24zM131 4q36 0 77 46q46 52 46 112q0 22 -10 37t-24 15q-23 0 -50 -20t-42 -48.5t-22.5 -57t-7.5 -48.5q0 -15 9.5 -25.5t23.5 -10.5z" />
    <glyph glyph-name="udieresis" unicode="&#x44c;" horiz-adv-x="332" 
d="M158 230l-16 -38l2 -2q13 19 35 29.5t51 10.5q31 0 56.5 -24.5t25.5 -58.5q0 -64 -52.5 -110.5t-123.5 -46.5q-41 0 -59 12q-28 18 -28 71q0 20 9 54t22 65l32 76q8 21 8 36q0 25 -22 25q-24 0 -51 -38q-23 -32 -31 -62q-2 -6 -7 -6q-12 0 -8 10q19 48 37 72q29 38 66 38
q34 0 48 -20.5t14 -52.5q0 -9 -1 -16t-7 -24zM131 4q36 0 77 46q46 52 46 112q0 22 -10 37t-24 15q-23 0 -50 -20t-42 -48.5t-22.5 -57t-7.5 -48.5q0 -15 9.5 -25.5t23.5 -10.5z" />
    <glyph glyph-name="yacute" unicode="&#xfd;" horiz-adv-x="303" 
d="M105 178h111q6 27 9.5 56t3.5 46q0 21 -14 34t-35 13q-31 0 -53 -14t-22 -34q0 -11 15 -11q14 0 14 -21q0 -17 -13 -29t-34 -12q-14 0 -24.5 10.5t-10.5 24.5q0 42 41.5 72t101.5 30q38 0 65 -28t27 -69q0 -103 -60.5 -179.5t-142.5 -76.5q-32 0 -56.5 20.5t-24.5 52.5
q0 24 11 52q2 4 8.5 2t4.5 -6q-10 -26 -10 -49q0 -22 19 -38t43 -16q51 0 87 50q27 38 46 106h-107v14z" />
    <glyph glyph-name="yacute" unicode="&#x44d;" horiz-adv-x="303" 
d="M105 178h111q6 27 9.5 56t3.5 46q0 21 -14 34t-35 13q-31 0 -53 -14t-22 -34q0 -11 15 -11q14 0 14 -21q0 -17 -13 -29t-34 -12q-14 0 -24.5 10.5t-10.5 24.5q0 42 41.5 72t101.5 30q38 0 65 -28t27 -69q0 -103 -60.5 -179.5t-142.5 -76.5q-32 0 -56.5 20.5t-24.5 52.5
q0 24 11 52q2 4 8.5 2t4.5 -6q-10 -26 -10 -49q0 -22 19 -38t43 -16q51 0 87 50q27 38 46 106h-107v14z" />
    <glyph glyph-name="thorn" unicode="&#xfe;" horiz-adv-x="486" 
d="M281 -10q-53 0 -81 30t-28 76q0 43 16 80h-46l-70 -176h-62l113 264q4 9 5 18t1 16q0 31 -19 31q-20 0 -49 -41q-25 -35 -32 -59q-2 -6 -7 -6q-10 0 -8 10q7 30 34 66q33 44 62 44q25 0 40 -24.5t15 -57.5q0 -11 -7 -36q-1 -5 -10 -33h46q30 73 85 114q50 37 103 37
q46 0 69 -26t23 -67q0 -69 -44 -151q-58 -109 -149 -109zM273 4q49 0 102 132q45 112 45 150q0 19 -5 27q-10 16 -36 16q-48 0 -102 -121q-47 -106 -47 -150q0 -24 10 -39t33 -15z" />
    <glyph glyph-name="thorn" unicode="&#x44e;" horiz-adv-x="486" 
d="M281 -10q-53 0 -81 30t-28 76q0 43 16 80h-46l-70 -176h-62l113 264q4 9 5 18t1 16q0 31 -19 31q-20 0 -49 -41q-25 -35 -32 -59q-2 -6 -7 -6q-10 0 -8 10q7 30 34 66q33 44 62 44q25 0 40 -24.5t15 -57.5q0 -11 -7 -36q-1 -5 -10 -33h46q30 73 85 114q50 37 103 37
q46 0 69 -26t23 -67q0 -69 -44 -151q-58 -109 -149 -109zM273 4q49 0 102 132q45 112 45 150q0 19 -5 27q-10 16 -36 16q-48 0 -102 -121q-47 -106 -47 -150q0 -24 10 -39t33 -15z" />
    <glyph glyph-name="ydieresis" unicode="&#xff;" horiz-adv-x="357" 
d="M284 336h62l-109 -267q-4 -9 -5 -18t-1 -16q0 -31 19 -31q29 0 55 42q15 24 27 60q3 7 8 7q8 0 6 -8q-9 -36 -28 -67q-30 -48 -68 -48q-24 0 -36 22.5t-12 56.5q0 20 3 46.5t15 48.5q-3 -5 -11 -12q-40 -68 -66 -100q-50 -62 -92 -62q-26 0 -43.5 20.5t-17.5 50.5
q0 27 15.5 45.5t38.5 18.5q18 0 30 -10t12 -28q0 -15 -8.5 -25.5t-19.5 -10.5t-17 3t-10 6q-10 0 -10 -16q0 -17 8 -28.5t21 -11.5q38 0 134 134q-28 -13 -56 -13q-21 0 -36 23t-15 56q0 58 43.5 98.5t105.5 40.5q18 0 29 -10.5t11 -33.5zM250 296q0 17 -10 28q-5 5 -9 5
q-32 0 -65 -49.5t-33 -94.5q0 -17 5 -30t12 -13q19 0 40 16.5t34.5 43t19.5 53.5t6 41z" />
    <glyph glyph-name="ydieresis" unicode="&#x44f;" horiz-adv-x="357" 
d="M284 336h62l-109 -267q-4 -9 -5 -18t-1 -16q0 -31 19 -31q29 0 55 42q15 24 27 60q3 7 8 7q8 0 6 -8q-9 -36 -28 -67q-30 -48 -68 -48q-24 0 -36 22.5t-12 56.5q0 20 3 46.5t15 48.5q-3 -5 -11 -12q-40 -68 -66 -100q-50 -62 -92 -62q-26 0 -43.5 20.5t-17.5 50.5
q0 27 15.5 45.5t38.5 18.5q18 0 30 -10t12 -28q0 -15 -8.5 -25.5t-19.5 -10.5t-17 3t-10 6q-10 0 -10 -16q0 -17 8 -28.5t21 -11.5q38 0 134 134q-28 -13 -56 -13q-21 0 -36 23t-15 56q0 58 43.5 98.5t105.5 40.5q18 0 29 -10.5t11 -33.5zM250 296q0 17 -10 28q-5 5 -9 5
q-32 0 -65 -49.5t-33 -94.5q0 -17 5 -30t12 -13q19 0 40 16.5t34.5 43t19.5 53.5t6 41z" />
    <glyph glyph-name="florin" unicode="&#x192;" horiz-adv-x="238" 
d="M125 322h-83v14h89l56 144q28 82 98.5 134t161.5 52q30 0 52 -11t22 -34q0 -15 -10.5 -24.5t-29.5 -9.5q-14 0 -24.5 8.5t-10.5 22.5q0 6 4 10q9 10 9 13q0 5 -10 8t-21 3q-50 0 -97 -42.5t-82 -129.5l-56 -144h80v-14h-86l-155 -396q-32 -80 -103.5 -133t-156.5 -53
q-30 0 -52 11t-22 34q0 15 10.5 24.5t29.5 9.5q14 0 24.5 -8.5t10.5 -22.5q0 -6 -4 -10q-9 -10 -9 -13q0 -5 10 -8t21 -3q47 0 97.5 49t81.5 123z" />
    <glyph glyph-name="florin" unicode="&#x453;" horiz-adv-x="238" 
d="M125 322h-83v14h89l56 144q28 82 98.5 134t161.5 52q30 0 52 -11t22 -34q0 -15 -10.5 -24.5t-29.5 -9.5q-14 0 -24.5 8.5t-10.5 22.5q0 6 4 10q9 10 9 13q0 5 -10 8t-21 3q-50 0 -97 -42.5t-82 -129.5l-56 -144h80v-14h-86l-155 -396q-32 -80 -103.5 -133t-156.5 -53
q-30 0 -52 11t-22 34q0 15 10.5 24.5t29.5 9.5q14 0 24.5 -8.5t10.5 -22.5q0 -6 -4 -10q-9 -10 -9 -13q0 -5 10 -8t21 -3q47 0 97.5 49t81.5 123z" />
    <glyph glyph-name="endash" unicode="&#x2013;" horiz-adv-x="277" 
d="M15 192h244v-24h-244v24z" />
    <glyph glyph-name="emdash" unicode="&#x2014;" horiz-adv-x="519" 
d="M15 192h488v-24h-488v24z" />
    <glyph glyph-name="quoteleft" unicode="&#x2018;" horiz-adv-x="120" 
d="M89 337q-13 0 -21 11t-8 26q0 29 19 57q23 33 68 56l4 1q6 0 9.5 -4t-0.5 -7q-16 -9 -31 -18q-22 -15 -22 -33q0 -7 15.5 -11.5t15.5 -21.5q0 -22 -17 -39t-32 -17z" />
    <glyph glyph-name="quoteright" unicode="&#x2019;" horiz-adv-x="120" 
d="M115 399q0 7 -15.5 11.5t-15.5 21.5q0 22 17 39t32 17q13 0 21 -11t8 -26q0 -29 -19 -57q-23 -33 -68 -56l-4 -1q-10 0 -10 8l1 3q15 9 31 18q22 15 22 33z" />
    <glyph glyph-name="quotesinglbase" unicode="&#x201a;" horiz-adv-x="120" 
d="M36 -14q0 7 -15.5 11.5t-15.5 21.5q0 22 17 39t32 17q13 0 21 -11t8 -26q0 -29 -19 -57q-23 -33 -68 -56l-4 -1q-10 0 -10 8l1 3q16 9 31 18q22 15 22 33z" />
    <glyph glyph-name="quotedblleft" unicode="&#x201c;" horiz-adv-x="213" 
d="M190 337q-13 0 -21 11t-8 26q0 29 19 57q23 33 68 56l4 1q6 0 9.5 -4t-0.5 -7q-16 -9 -31 -18q-22 -15 -22 -33q0 -7 15.5 -11.5t15.5 -21.5q0 -22 -17 -39t-32 -17zM90 337q-13 0 -21 11t-8 26q0 29 19 57q23 33 68 56l4 1q6 0 9.5 -4t-0.5 -7q-16 -9 -31 -18
q-22 -15 -22 -33q0 -7 15.5 -11.5t15.5 -21.5q0 -22 -17 -39t-32 -17z" />
    <glyph glyph-name="quotedblright" unicode="&#x201d;" horiz-adv-x="213" 
d="M111 399q0 7 -15.5 11.5t-15.5 21.5q0 22 17 39t32 17q13 0 21 -11t8 -26q0 -29 -19 -57q-23 -33 -68 -56l-4 -1q-10 0 -10 8l1 3q15 9 31 18q22 15 22 33zM211 399q0 7 -15.5 11.5t-15.5 21.5q0 22 17 39t32 17q13 0 21 -11t8 -26q0 -29 -19 -57q-23 -33 -68 -56l-4 -1
q-10 0 -10 8l1 3q15 9 31 18q22 15 22 33z" />
    <glyph glyph-name="quotedblbase" unicode="&#x201e;" horiz-adv-x="234" 
d="M48 -14q0 7 -15.5 11.5t-15.5 21.5q0 22 17 39t32 17q13 0 21 -11t8 -26q0 -29 -19 -57q-23 -33 -68 -56l-4 -1q-10 0 -10 8l1 3q15 9 31 18q22 15 22 33zM148 -14q0 7 -15.5 11.5t-15.5 21.5q0 22 17 39t32 17q13 0 21 -11t8 -26q0 -29 -19 -57q-23 -33 -68 -56l-4 -1
q-10 0 -10 8l1 3q15 9 31 18q22 15 22 33z" />
    <glyph glyph-name="dagger" unicode="&#x2020;" horiz-adv-x="324" 
d="M172 480v186h30v-186h122v-26h-122v-533h-30v533h-122v26h122z" />
    <glyph glyph-name="daggerdbl" unicode="&#x2021;" horiz-adv-x="324" 
d="M172 362v92h-122v26h122v186h30v-186h122v-26h-122v-92h122v-26h-122v-415h-30v415h-122v26h122z" />
    <glyph glyph-name="bullet" unicode="&#x2022;" horiz-adv-x="171" 
d="M83 119q-26 0 -43.5 17.5t-17.5 43.5t17.5 43.5t43.5 17.5t43.5 -17.5t17.5 -43.5t-17.5 -43.5t-43.5 -17.5z" />
    <glyph glyph-name="ellipsis" unicode="&#x2026;" horiz-adv-x="429" 
d="M69 73q11 0 19 -10t8 -22q0 -22 -8 -35q-12 -20 -39 -20q-31 0 -31 30q0 17 16 37t35 20zM209 73q11 0 19 -10t8 -22q0 -22 -8 -35q-12 -20 -39 -20q-31 0 -31 30q0 17 16 37t35 20zM349 73q11 0 19 -10t8 -22q0 -22 -8 -35q-12 -20 -39 -20q-31 0 -31 30q0 17 16 37
t35 20z" />
    <glyph glyph-name="perthousand" unicode="&#x2030;" horiz-adv-x="666" 
d="M106 212q-41 0 -56.5 19t-15.5 54q0 75 51 135t105 60q31 0 48 -14q21 -18 21 -61q0 -51 -42 -116q-50 -77 -111 -77zM103 226q38 0 76 92q32 78 32 116q0 17 -5.5 24.5t-15.5 7.5q-35 0 -76 -91q-37 -81 -37 -116q0 -15 8 -24t18 -9zM59 0q-7 0 -10 6t0 9l334 448l5 3
q5 0 9 -5t1 -10l-332 -447q-1 -2 -7 -4zM262 -14q-41 0 -56.5 19t-15.5 54q0 75 51 135t105 60q31 0 48 -14q21 -18 21 -61q0 -51 -42 -116q-50 -77 -111 -77zM259 0q38 0 76 92q32 78 32 116q0 17 -5.5 24.5t-15.5 7.5q-35 0 -76 -91q-37 -81 -37 -116q0 -15 8 -24t18 -9z
M487 -14q-41 0 -56.5 19t-15.5 54q0 75 51 135t105 60q31 0 48 -14q21 -18 21 -61q0 -51 -42 -116q-50 -77 -111 -77zM484 0q38 0 76 92q32 78 32 116q0 17 -5.5 24.5t-15.5 7.5q-35 0 -76 -91q-37 -81 -37 -116q0 -15 8 -24t18 -9z" />
    <glyph glyph-name="guilsinglleft" unicode="&#x2039;" horiz-adv-x="205" 
d="M14 175v26q0 11 14 16q31 14 50 26t67 51l9.5 9.5t8.5 4.5q7 0 14 -16.5t7 -25.5q0 -12 -8 -20q-20 -16 -53 -33q-63 -33 -65 -34q15 -26 32 -49q24 -32 49 -49q6 -4 8 -7q0 -2 1 -3q0 -9 -3 -17t-8 -8l-8 4q-45 37 -65 60t-40 48q-10 12 -10 17z" />
    <glyph glyph-name="guilsinglright" unicode="&#x203a;" horiz-adv-x="199" 
d="M176 181v-26q0 -6 -6.5 -10.5t-7.5 -5.5q-25 -13 -47 -32t-50 -52q-5 -7 -9 -11.5t-9 -4.5t-11 12q-10 21 -10 38q0 5 3 11t5 9q20 22 42 37q15 10 56 31q-9 26 -22 44t-42 43l-6.5 6.5t-2.5 3.5q0 9 3 17t8 8l8 -4q34 -30 56 -57q11 -14 32 -40q10 -12 10 -17z" />
    <glyph glyph-name="trademark" unicode="&#x2122;" horiz-adv-x="1043" 
d="M670 658l-19 -30q-13 -15 -35 -21t-47 -6q-16 -2 -22 -4t-17 -6q-33 -13 -51.5 -40.5t-42.5 -89.5q-48 -117 -87 -159q-51 -56 -136 -56q-68 0 -106 42q-34 38 -34 94q0 73 60 126q55 49 118 49q37 0 58 -21t21 -56q0 -54 -51 -96q-43 -35 -77 -35q-23 0 -37 8
q-19 11 -19 36q0 11 8 24q2 2 6 0t3 -5l-3 -20q0 -29 33 -29q28 0 65 35q46 43 46 103q0 21 -12.5 31.5t-32.5 10.5q-31 0 -86 -49q-71 -63 -71 -142q0 -44 30.5 -68t74.5 -24q24 0 46 10q33 15 60 49q20 24 90 161q27 53 59 83q13 14 33 26q8 5 19 10q-5 5 -69.5 11.5
t-84.5 6.5q-40 0 -60 -8q-30 -12 -30 -39q0 -5 -6 -5q-10 0 -10 9q0 46 28 65t85 19q33 0 116 -8t116 -8q23 0 33 5t26 19q3 3 8.5 -0.5t3.5 -7.5zM858 572q-7 -8 -104 -145q-44 -62 -94 -120q-22 -26 -56 -43.5t-75 -17.5q-33 0 -57.5 16t-24.5 45q0 17 10.5 30.5
t25.5 13.5q11 0 20.5 -7t9.5 -17q0 -8 -5.5 -16.5t-14.5 -8.5q-12 0 -18 5q-2 1 -4 6q-8 0 -8 -12q0 -18 19 -29.5t48 -11.5q86 0 181 136q38 53 77 106q44 60 73 89q-9 -1 -21 -1h-19h-35t-33 1q-71 0 -133.5 -40t-62.5 -94q0 -14 12.5 -24.5t38.5 -10.5q35 0 67.5 35.5
t32.5 60.5q0 10 -9 22q-2 3 2.5 5.5t7.5 0.5q11 -7 15.5 -16.5t4.5 -23.5q0 -30 -29 -61q-35 -37 -87 -37q-34 0 -55 21t-21 55q0 67 62 99q44 23 96 23h175q13 17 20 23q13 11 27 11q11 0 11 -10q0 -6 -20 -18q-14 -9 -26 -20q-12 -35 -23.5 -68t-24.5 -63
q-23 -58 -49 -113t-26 -76q0 -12 6 -12q4 0 16 28q19 45 34.5 77t29 58.5t27.5 47.5q40 58 65 85q69 75 122 75q38 0 38 -28q0 -10 -7.5 -19.5t-18.5 -9.5q-19 0 -19 20q0 6 6.5 10.5t6.5 7.5q0 5 -8 5q-22 0 -55 -49q-27 -39 -59 -106q-21 -45 -37 -88q-20 -54 -20 -84
q0 -14 4.5 -22t15.5 -8q20 0 44 40q12 21 26 55q2 4 6.5 1.5t3.5 -8.5q-7 -36 -36 -73q-22 -29 -43 -29q-26 0 -37.5 22t-11.5 60q0 28 24.5 91t59.5 113q19 27 32 41q9 10 22 20q-9 -6 -26 -23q-24 -24 -50 -59q-57 -68 -104 -174q-23 -53 -25 -58q-17 -33 -31 -33
q-10 0 -13 10.5t-3 27.5v14q0 29 11.5 69t28.5 73q12 24 27 51q23 40 47 81z" />
    </font>
</defs>
</svg>
